<svg width="348" height="73" viewBox="0 0 348 73" fill="none" xmlns="http://www.w3.org/2000/svg">
<g clip-path="url(#clip0_1_2)">
<path fill-rule="evenodd" clip-rule="evenodd" d="M0 4.76157C0 2.13183 1.99944 0 4.45982 0H93.4152C95.8783 0 97.875 2.14522 97.875 4.76157V68.2384C97.875 70.8682 95.8756 73 93.4152 73H4.45982C1.99673 73 0 70.8548 0 68.2384V4.76157Z" fill="#0742A6"/>
<path fill-rule="evenodd" clip-rule="evenodd" d="M44.5218 47.2024H39.2726L42.5558 26.0449H47.8047L44.5218 47.2024Z" fill="white"/>
<path fill-rule="evenodd" clip-rule="evenodd" d="M63.5506 26.5622C62.5152 26.1341 60.8731 25.6614 58.8425 25.6614C53.6587 25.6614 50.0084 28.5423 49.986 32.6611C49.9429 35.6999 52.5995 37.3877 54.5865 38.401C56.6173 39.4363 57.3077 40.1121 57.3077 41.035C57.287 42.4524 55.6666 43.1058 54.1553 43.1058C52.0596 43.1058 50.9367 42.7689 49.2302 41.9804L48.539 41.6423L47.8044 46.3917C49.0356 46.9763 51.3038 47.495 53.6587 47.5177C59.1666 47.5177 62.7523 44.6814 62.7948 40.2922C62.8158 37.8837 61.413 36.0382 58.3887 34.5302C56.5527 33.5621 55.4284 32.9094 55.4284 31.9189C55.4499 31.0184 56.3794 30.0961 58.4518 30.0961C60.1583 30.0509 61.4121 30.4784 62.362 30.9062L62.8367 31.1309L63.5506 26.5622Z" fill="white"/>
<path d="M70.5273 39.7071C70.9596 38.4916 72.623 33.7874 72.623 33.7874C72.6012 33.8326 73.0544 32.5495 73.3136 31.7618L73.6805 33.5849C73.6805 33.5849 74.6745 38.6493 74.8904 39.7071C74.07 39.7071 71.5641 39.7071 70.5273 39.7071ZM77.0068 26.0449H72.9465C71.6944 26.0449 70.7431 26.4273 70.2029 27.8004L62.4059 47.2021H67.9137C67.9137 47.2021 68.8205 44.5908 69.0154 44.0284C69.6196 44.0284 74.9776 44.0284 75.755 44.0284C75.9057 44.7712 76.3813 47.2021 76.3813 47.2021H81.2416L77.0068 26.0449Z" fill="white"/>
<path fill-rule="evenodd" clip-rule="evenodd" d="M34.8882 26.0449L29.7475 40.4723L29.1858 37.5463C28.2354 34.17 25.2547 30.5018 21.9284 28.6778L26.6371 47.18H32.188L40.4388 26.0449H34.8882Z" fill="white"/>
<path fill-rule="evenodd" clip-rule="evenodd" d="M24.974 26.0449H16.5285L16.4421 26.4724C23.0301 28.2282 27.3932 32.4603 29.1858 37.5472L27.3498 27.8234C27.0476 26.4721 26.1187 26.0895 24.974 26.0449Z" fill="white"/>
</g>
<g clip-path="url(#clip1_1_2)">
<path fill-rule="evenodd" clip-rule="evenodd" d="M125.062 4.78973C125.062 2.14444 127.062 0 129.522 0H218.478C220.941 0 222.938 2.10602 222.938 4.78973V68.2103C222.938 70.8556 220.938 73 218.478 73H129.522C127.059 73 125.062 70.894 125.062 68.2103V4.78973Z" fill="#262626"/>
<path d="M181.653 23.0499H166.077V49.8979H181.653V23.0499Z" fill="#FF5F00"/>
<path fill-rule="evenodd" clip-rule="evenodd" d="M167.682 36.4763C167.678 31.2381 169.956 26.2888 173.861 23.0547C167.228 17.5532 157.703 18.3546 151.979 24.8955C146.256 31.4364 146.256 41.5209 151.979 48.0618C157.703 54.6028 167.228 55.4041 173.861 49.9027C169.955 46.6675 167.676 41.7162 167.682 36.4763Z" fill="#EB001B"/>
<path d="M198.522 47.7396V46.624H198.769V46.3931H198.181V46.624H198.413V47.7396H198.522ZM199.664 47.7396V46.3931H199.486L199.279 47.3549L199.071 46.3931H198.893V47.7396H199.021V46.7201L199.214 47.5954H199.348L199.541 46.7201V47.7396H199.664Z" fill="#F79E1B"/>
<path fill-rule="evenodd" clip-rule="evenodd" d="M200.037 36.4763C200.037 43.0132 196.5 48.9763 190.929 51.8329C185.358 54.6895 178.73 53.9381 173.861 49.8979C177.763 46.661 180.042 41.7124 180.042 36.4739C180.042 31.2354 177.763 26.2868 173.861 23.0499C178.73 19.0097 185.358 18.2584 190.929 21.115C196.5 23.9716 200.037 29.9346 200.037 36.4715V36.4763Z" fill="#F79E1B"/>
</g>
<g clip-path="url(#clip2_1_2)">
<path fill-rule="evenodd" clip-rule="evenodd" d="M250.125 4.78973C250.125 2.14444 252.124 0 254.585 0H343.54C346.003 0 348 2.10602 348 4.78973V68.2103C348 70.8556 346.001 73 343.54 73H254.585C252.122 73 250.125 70.894 250.125 68.2103V4.78973Z" fill="#016FD0"/>
<path fill-rule="evenodd" clip-rule="evenodd" d="M269.137 55.2106V38.9268H285.335L287.072 41.3383L288.868 38.9268H347.66V54.0876C347.66 54.0876 346.122 55.1943 344.344 55.2106H311.79L309.83 52.6437V55.2106H303.41V50.8288C303.41 50.8288 302.533 51.4405 300.637 51.4405H298.451V55.2106H288.73L286.995 52.7474L285.233 55.2106H269.137Z" fill="white"/>
<path fill-rule="evenodd" clip-rule="evenodd" d="M250.223 26.6537L253.875 17.5893H260.192L262.265 22.6668V17.5893H270.117L271.351 21.2592L272.547 17.5893H307.796V19.4343C307.796 19.4343 309.649 17.5893 312.694 17.5893L324.131 17.6319L326.168 22.6429V17.5893H332.739L334.548 20.4678V17.5893H341.179V33.8732H334.548L332.814 30.9854V33.8732H323.16L322.189 31.3063H319.594L318.638 33.8732H312.091C309.471 33.8732 307.796 32.0659 307.796 32.0659V33.8732H297.924L295.965 31.3063V33.8732H259.256L258.286 31.3063H255.699L254.735 33.8732H250.223V26.6537Z" fill="white"/>
<path d="M255.168 19.5968L250.242 31.7896H253.449L254.358 29.3481H259.642L260.547 31.7896H263.825L258.903 19.5968H255.168ZM256.991 22.4344L258.602 26.7009H255.375L256.991 22.4344Z" fill="#016FD0"/>
<path fill-rule="evenodd" clip-rule="evenodd" d="M264.164 31.7876V19.5947L268.722 19.6127L271.373 27.4739L273.96 19.5947H278.482V31.7876H275.618V22.8034L272.583 31.7876H270.071L267.027 22.8034V31.7876H264.164Z" fill="#016FD0"/>
<path fill-rule="evenodd" clip-rule="evenodd" d="M280.441 31.7876V19.5947H289.785V22.3221H283.335V24.4077H289.635V26.9746H283.335V29.1404H289.785V31.7876H280.441Z" fill="#016FD0"/>
<path d="M291.443 19.5968V31.7896H294.307V27.458H295.512L298.946 31.7896H302.445L298.677 27.2975C300.224 27.1586 301.819 25.7458 301.819 23.5524C301.819 20.9866 299.927 19.5968 297.816 19.5968H291.443ZM294.307 22.3241H297.58C298.365 22.3241 298.937 22.978 298.937 23.6076C298.937 24.4176 298.196 24.891 297.622 24.891H294.307V22.3241Z" fill="#016FD0"/>
<path fill-rule="evenodd" clip-rule="evenodd" d="M305.912 31.7876H302.988V19.5947H305.912V31.7876Z" fill="#016FD0"/>
<path fill-rule="evenodd" clip-rule="evenodd" d="M312.845 31.7876H312.214C309.16 31.7876 307.306 29.2267 307.306 25.7413C307.306 22.1698 309.139 19.5947 312.995 19.5947H316.16V22.4825H312.88C311.314 22.4825 310.207 23.7829 310.207 25.7714C310.207 28.1327 311.473 29.1244 313.297 29.1244H314.05L312.845 31.7876Z" fill="#016FD0"/>
<path d="M319.076 19.5968L314.149 31.7896H317.357L318.266 29.3481H323.55L324.454 31.7896H327.732L322.811 19.5968H319.076ZM320.898 22.4344L322.509 26.7009H319.283L320.898 22.4344Z" fill="#016FD0"/>
<path fill-rule="evenodd" clip-rule="evenodd" d="M328.067 31.7876V19.5947H331.708L336.356 27.2554V19.5947H339.22V31.7876H335.697L330.93 23.9264V31.7876H328.067Z" fill="#016FD0"/>
<path fill-rule="evenodd" clip-rule="evenodd" d="M271.097 53.125V40.9322H280.441V43.6595H273.99V45.7452H280.29V48.3121H273.99V50.4779H280.441V53.125H271.097Z" fill="#016FD0"/>
<path fill-rule="evenodd" clip-rule="evenodd" d="M316.884 53.125V40.9322H326.228V43.6595H319.778V45.7452H326.047V48.3121H319.778V50.4779H326.228V53.125H316.884Z" fill="#016FD0"/>
<path fill-rule="evenodd" clip-rule="evenodd" d="M280.804 53.125L285.353 47.1038L280.695 40.9322H284.303L287.077 44.7475L289.861 40.9322H293.327L288.73 47.0286L293.288 53.125H289.681L286.988 49.3699L284.36 53.125H280.804Z" fill="#016FD0"/>
<path d="M293.629 40.9342V53.1271H296.567V49.2767H299.582C302.132 49.2767 304.066 47.8364 304.066 45.0353C304.066 42.7149 302.549 40.9342 299.954 40.9342H293.629ZM296.567 43.6917H299.742C300.566 43.6917 301.155 44.2292 301.155 45.0954C301.155 45.9092 300.569 46.4992 299.732 46.4992H296.567V43.6917Z" fill="#016FD0"/>
<path d="M305.309 40.9322V53.125H308.173V48.7934H309.378L312.812 53.125H316.311L312.543 48.6329C314.09 48.494 315.685 47.0812 315.685 44.8878C315.685 42.3221 313.793 40.9322 311.681 40.9322H305.309ZM308.173 43.6595H311.446C312.231 43.6595 312.802 44.3134 312.802 44.943C312.802 45.753 312.062 46.2265 311.488 46.2265H308.173V43.6595Z" fill="#016FD0"/>
<path fill-rule="evenodd" clip-rule="evenodd" d="M327.554 53.125V50.4779H333.285C334.133 50.4779 334.5 49.9901 334.5 49.4552C334.5 48.9426 334.134 48.4244 333.285 48.4244H330.696C328.445 48.4244 327.191 46.9644 327.191 44.7725C327.191 42.8175 328.339 40.9322 331.684 40.9322H337.26L336.055 43.6756H331.232C330.31 43.6756 330.026 44.1905 330.026 44.6823C330.026 45.1878 330.377 45.7452 331.081 45.7452H333.794C336.303 45.7452 337.392 47.2604 337.392 49.2446C337.392 51.3778 336.179 53.125 333.657 53.125H327.554Z" fill="#016FD0"/>
<path fill-rule="evenodd" clip-rule="evenodd" d="M338.064 53.125V50.4779H343.795C344.643 50.4779 345.01 49.9901 345.01 49.4552C345.01 48.9426 344.644 48.4244 343.795 48.4244H341.206C338.955 48.4244 337.701 46.9644 337.701 44.7725C337.701 42.8175 338.849 40.9322 342.194 40.9322H347.77L346.565 43.6756H341.742C340.82 43.6756 340.536 44.1905 340.536 44.6823C340.536 45.1878 340.887 45.7452 341.591 45.7452H344.304C346.813 45.7452 347.902 47.2604 347.902 49.2446C347.902 51.3778 346.689 53.125 344.167 53.125H338.064Z" fill="#016FD0"/>
</g>
<defs>
<clipPath id="clip0_1_2">
<rect width="97.875" height="73" fill="white"/>
</clipPath>
<clipPath id="clip1_1_2">
<rect width="97.875" height="73" fill="white" transform="translate(125.062)"/>
</clipPath>
<clipPath id="clip2_1_2">
<rect width="97.875" height="73" fill="white" transform="translate(250.125)"/>
</clipPath>
</defs>
</svg>
