<svg xmlns="http://www.w3.org/2000/svg" xmlns:xlink="http://www.w3.org/1999/xlink" version="1.1" style="enable-background:new 0 0 492 492;" xml:space="preserve" width="492" height="492"><rect id="backgroundrect" width="100%" height="100%" x="0" y="0" fill="none" stroke="none"/> <g class="currentLayer" style=""><title>Layer 1</title><g id="svg_1" class="selected" fill="#000000" fill-opacity="1"><g id="svg_2" fill="#000000" fill-opacity="1">
	<g id="svg_3" fill="#000000" fill-opacity="1">
		<path d="M465.064,207.566l0.028,0H284.436V27.25c0-14.84-12.016-27.248-26.856-27.248h-23.116    c-14.836,0-26.904,12.408-26.904,27.248v180.316H26.908c-14.832,0-26.908,12-26.908,26.844v23.248    c0,14.832,12.072,26.78,26.908,26.78h180.656v180.968c0,14.832,12.064,26.592,26.904,26.592h23.116    c14.84,0,26.856-11.764,26.856-26.592V284.438h180.624c14.84,0,26.936-11.952,26.936-26.78V234.41    C492,219.566,479.904,207.566,465.064,207.566z" data-original="#000000" class="active-path" data-old_color="#000000" fill="#000000" id="svg_4" fill-opacity="1"/>
	</g>
</g></g></g></svg>