<?xml version="1.0" standalone="no"?>
<!DOCTYPE svg PUBLIC "-//W3C//DTD SVG 20010904//EN"
 "http://www.w3.org/TR/2001/REC-SVG-20010904/DTD/svg10.dtd">
<svg version="1.0" xmlns="http://www.w3.org/2000/svg"
 width="270.000000pt" height="270.000000pt" viewBox="0 0 270.000000 270.000000"
 preserveAspectRatio="xMidYMid meet">
<metadata>
Created by potrace 1.11, written by Peter Selinger 2001-2013
</metadata>
<g transform="translate(0.000000,270.000000) scale(0.100000,-0.100000)"
fill="#000000" stroke="none">
<path d="M2263 2498 c1 -7 -4 -12 -10 -13 -7 0 -12 -4 -10 -8 1 -5 -6 -13 -16
-18 -9 -6 -15 -14 -12 -19 3 -5 0 -12 -6 -16 -7 -4 -9 -3 -5 4 3 6 3 13 -2 16
-4 2 -9 -7 -10 -20 -1 -17 2 -23 10 -18 7 4 8 3 4 -5 -6 -8 -11 -9 -20 -2 -10
8 -18 5 -32 -11 -10 -12 -14 -19 -9 -15 6 3 17 2 25 -4 12 -7 9 -9 -10 -10
-14 -1 -28 -1 -31 -1 -3 1 -4 -9 -2 -22 3 -13 0 -27 -6 -30 -6 -4 -8 2 -6 15
2 12 1 18 -3 15 -4 -4 -7 -20 -7 -34 -1 -16 -7 -27 -15 -28 -34 -2 -40 -5 -40
-15 0 -8 4 -8 13 0 10 8 14 7 14 -4 0 -8 -5 -11 -10 -8 -7 4 -8 -1 -3 -12 6
-18 6 -18 -15 1 -12 10 -19 13 -15 7 8 -14 17 -53 12 -53 -2 0 -10 8 -17 17
-12 14 -12 16 0 8 10 -5 12 -4 7 4 -10 16 -26 4 -19 -14 4 -11 1 -13 -13 -8
-18 7 -18 6 -1 -11 18 -19 23 -31 8 -21 -5 3 -12 1 -16 -5 -4 -6 -10 -8 -15
-5 -5 3 -12 0 -16 -6 -4 -7 -3 -9 4 -5 6 3 13 2 17 -4 3 -5 -2 -10 -11 -10
-10 0 -32 -16 -50 -35 -17 -19 -28 -35 -24 -35 5 0 20 14 33 31 18 23 27 28
32 19 5 -8 4 -11 -2 -7 -11 7 -28 -20 -24 -36 1 -5 -3 -6 -8 -3 -12 8 -33 -19
-23 -30 4 -4 -1 -2 -11 5 -15 12 -17 12 -11 -2 3 -9 0 -24 -6 -34 -10 -16 -11
-16 -6 -1 3 10 1 20 -4 23 -6 4 -10 -1 -10 -9 0 -10 -6 -13 -17 -10 -15 5 -15
4 -4 -4 8 -6 16 -17 17 -26 2 -13 -2 -14 -18 -5 -15 8 -19 8 -14 0 4 -6 1 -11
-6 -11 -9 0 -9 -3 2 -10 12 -8 10 -10 -10 -11 -14 0 -19 -3 -12 -6 6 -2 12 -9
12 -14 0 -6 -4 -7 -10 -4 -9 5 -15 -16 -11 -38 1 -5 -3 -6 -8 -3 -5 4 -14 -2
-20 -11 -6 -10 -11 -14 -11 -9 0 5 8 18 17 28 13 15 14 21 4 31 -10 9 -11 8
-5 -7 5 -14 4 -17 -5 -12 -6 4 -11 4 -10 -1 4 -14 -13 -43 -21 -38 -5 3 -12 0
-16 -6 -4 -7 -3 -9 3 -6 6 4 14 0 17 -9 3 -8 2 -12 -4 -9 -10 6 -15 -9 -10
-30 1 -5 -2 -7 -5 -3 -4 4 -16 3 -27 -3 -15 -8 -17 -13 -7 -25 6 -8 7 -14 2
-14 -6 0 -15 10 -21 23 -10 20 -11 20 -9 2 2 -11 6 -25 10 -32 4 -6 2 -15 -4
-19 -8 -4 -9 -3 -5 4 13 21 -10 13 -33 -12 -15 -16 -19 -26 -11 -31 17 -10 -7
-34 -30 -30 -14 3 -17 -1 -13 -12 5 -12 2 -15 -10 -10 -11 4 -14 2 -10 -8 3
-8 10 -12 17 -8 6 3 7 2 3 -3 -5 -5 -13 -10 -18 -10 -5 -1 -13 -2 -19 -3 -5 0
-10 -8 -10 -17 0 -9 -5 -13 -12 -9 -7 4 -4 -1 7 -10 20 -17 20 -17 -4 -10 -15
5 -21 4 -17 -3 3 -6 2 -13 -4 -17 -5 -3 -10 -1 -10 6 0 7 -3 9 -6 6 -4 -4 -1
-13 6 -22 11 -13 10 -14 -4 -9 -18 7 -19 -15 -1 -28 6 -5 5 -8 -3 -8 -7 0 -15
7 -18 15 -6 14 -8 13 -19 -2 -7 -10 -11 -21 -9 -24 7 -12 -26 -79 -39 -79 -8
0 -7 -4 3 -10 12 -8 12 -10 -5 -10 -12 0 -16 -3 -9 -8 7 -4 10 -22 8 -42 -3
-27 -1 -32 7 -20 8 12 9 8 4 -13 -4 -22 -3 -27 7 -22 7 4 4 -1 -7 -10 -19 -15
-19 -16 5 -13 19 2 24 -1 22 -14 -1 -9 3 -20 9 -24 8 -5 9 -3 4 6 -6 9 -4 11
5 5 10 -6 9 -11 -6 -23 -16 -13 -17 -14 -1 -9 9 4 17 2 17 -4 0 -6 6 -7 13 -3
7 5 6 0 -3 -11 -9 -11 -10 -16 -2 -11 7 4 12 2 12 -4 0 -6 5 -8 13 -4 7 5 6 0
-3 -11 -8 -10 -10 -16 -3 -12 7 4 14 -1 18 -13 5 -17 9 -19 21 -9 9 7 14 8 13
3 -1 -5 -1 -20 0 -33 1 -19 5 -22 22 -18 12 3 18 3 15 0 -3 -4 0 -13 6 -22 10
-13 10 -14 -2 -3 -8 6 -19 12 -24 12 -6 0 0 -7 12 -16 13 -9 31 -13 40 -9 14
5 15 4 5 -6 -17 -17 -17 -32 -1 -27 16 6 54 -42 50 -60 -2 -8 1 -11 7 -7 10 5
16 -14 12 -37 0 -5 6 -8 14 -8 13 0 14 4 5 23 -11 21 -10 21 4 3 11 -13 12
-24 6 -36 -8 -15 -6 -17 13 -13 14 3 18 2 10 -4 -8 -6 -3 -13 19 -22 l31 -14
-23 -12 c-15 -8 -19 -15 -11 -19 6 -4 11 -2 11 3 0 6 5 11 11 11 6 0 8 -7 5
-16 -3 -8 -2 -13 3 -9 13 7 41 -5 41 -19 0 -6 9 -17 21 -24 12 -7 18 -16 15
-19 -3 -4 -1 -12 5 -19 6 -8 9 -21 5 -29 -3 -9 -2 -13 4 -10 6 3 10 1 10 -4 0
-6 5 -11 11 -11 5 0 8 4 5 8 -3 5 2 9 10 9 10 0 11 -4 4 -11 -17 -17 -11 -36
10 -36 11 0 20 -6 20 -13 0 -8 11 -20 25 -27 27 -15 31 -25 13 -36 -6 -4 -8
-3 -5 3 4 6 -1 17 -11 24 -16 13 -16 13 -2 -5 8 -11 13 -21 10 -24 -5 -5 18
-12 47 -14 13 -1 5 -29 -11 -40 -8 -5 -7 -8 1 -8 7 0 17 8 23 18 8 14 9 13 6
-10 -2 -14 2 -35 10 -45 14 -17 15 -17 5 3 -8 16 -7 21 4 21 8 0 12 -4 9 -9
-3 -4 0 -8 6 -8 6 0 9 -4 6 -9 -4 -5 6 -19 21 -31 16 -12 22 -19 15 -15 -10 5
-10 1 -1 -19 9 -19 15 -23 24 -16 9 8 14 6 19 -5 4 -10 2 -14 -5 -9 -8 4 -7 0
0 -15 7 -12 10 -25 7 -30 -3 -4 1 -8 9 -8 8 0 12 5 9 11 -3 6 1 3 9 -6 8 -10
17 -15 21 -11 4 4 4 -1 0 -10 -4 -12 -2 -17 7 -15 9 2 13 -4 11 -14 -2 -10 2
-18 8 -18 6 0 8 -5 4 -12 -4 -7 -3 -8 5 -4 6 4 9 12 6 17 -4 5 -1 9 5 9 8 0
10 -10 6 -27 -5 -23 -4 -25 4 -10 13 20 32 23 24 3 -3 -8 -1 -17 5 -21 7 -4 8
0 4 11 -4 10 -2 15 3 12 5 -4 18 0 29 8 12 9 14 14 5 14 -11 0 -11 3 -2 12 15
15 15 28 1 28 -5 0 -7 -5 -3 -12 5 -7 3 -8 -6 -3 -10 6 -10 10 3 20 14 10 14
12 -1 23 -9 7 -12 10 -5 7 6 -3 14 -1 18 5 3 5 0 10 -7 10 -8 0 -9 3 -3 8 19
13 17 35 -2 28 -16 -5 -16 -4 -3 6 15 13 24 62 10 53 -4 -2 -7 2 -7 10 0 8 4
12 9 9 4 -3 8 0 8 5 0 6 -4 11 -10 11 -5 0 -10 5 -10 11 0 5 4 8 8 5 4 -2 8 4
8 14 0 10 -3 17 -6 15 -4 -2 -7 2 -7 10 0 8 4 12 9 9 4 -3 8 0 8 5 0 6 -4 11
-10 11 -5 0 -10 5 -10 11 0 5 3 8 8 6 4 -3 8 6 8 19 1 15 -2 21 -10 17 -6 -4
-5 1 3 10 13 16 9 21 -14 18 -5 -1 -1 6 9 14 14 11 16 15 5 15 -8 0 -10 3 -4
8 19 13 17 35 -2 28 -16 -5 -16 -4 -3 6 15 13 24 62 10 53 -4 -2 -7 2 -7 10 0
8 4 12 9 9 4 -3 8 0 8 5 0 6 -4 11 -10 11 -5 0 -10 5 -10 11 0 5 4 8 8 5 4 -2
8 4 8 14 0 10 -3 17 -6 15 -4 -2 -7 2 -7 10 0 8 4 12 9 9 4 -3 8 0 8 5 0 6 -4
11 -10 11 -5 0 -10 5 -10 11 0 5 3 8 8 6 4 -3 8 6 8 19 1 15 -2 21 -10 17 -6
-4 -5 1 3 10 13 16 9 21 -14 18 -5 -1 -1 6 9 14 14 11 16 15 5 15 -8 0 -10 3
-4 8 19 13 17 35 -2 28 -16 -5 -16 -4 -3 6 15 13 24 62 10 53 -4 -2 -7 2 -7
10 0 8 4 12 9 9 4 -3 8 0 8 5 0 6 -4 11 -10 11 -5 0 -10 5 -10 11 0 5 4 8 8 5
4 -2 8 4 8 14 0 10 -3 17 -6 15 -4 -2 -7 2 -7 10 0 8 4 12 9 9 4 -3 8 0 8 5 0
6 -4 11 -10 11 -5 0 -10 5 -10 11 0 5 3 8 8 6 4 -3 8 6 8 19 1 15 -2 21 -10
17 -6 -4 -5 1 3 10 13 16 9 21 -14 18 -5 -1 -1 6 9 14 14 11 16 15 5 15 -8 0
-10 3 -4 8 19 13 17 35 -2 28 -16 -5 -16 -4 -3 6 15 13 24 62 10 53 -4 -2 -7
2 -7 10 0 8 4 12 9 9 4 -3 8 0 8 5 0 6 -4 11 -10 11 -5 0 -10 5 -10 11 0 5 4
8 8 5 4 -2 8 4 8 14 0 10 -3 17 -6 15 -4 -2 -7 2 -7 10 0 8 4 12 9 9 4 -3 8 0
8 5 0 6 -4 11 -10 11 -5 0 -10 5 -10 11 0 5 3 8 8 6 4 -3 8 6 8 19 1 15 -2 21
-10 17 -6 -4 -5 1 3 10 13 16 9 21 -14 18 -5 -1 -1 6 9 14 14 11 16 15 5 15
-8 0 -10 3 -4 8 19 13 17 35 -2 28 -16 -5 -16 -4 -3 6 15 13 24 62 10 53 -4
-2 -7 2 -7 10 0 8 4 12 9 9 4 -3 8 0 8 5 0 6 -4 11 -10 11 -5 0 -10 5 -10 11
0 5 4 8 8 5 4 -2 8 4 8 14 0 10 -3 17 -6 15 -4 -2 -7 2 -7 10 0 8 4 12 9 9 4
-3 8 0 8 5 0 6 -4 11 -10 11 -5 0 -10 5 -10 11 0 5 3 8 8 6 4 -3 8 6 8 19 1
15 -2 21 -10 17 -6 -4 -5 1 3 10 13 16 9 21 -14 18 -5 -1 -1 6 9 14 14 11 16
15 5 15 -8 0 -10 3 -4 8 19 13 17 35 -2 28 -16 -5 -16 -4 -3 6 15 13 24 62 10
53 -4 -2 -7 2 -7 10 0 8 4 12 9 9 4 -3 8 0 8 5 0 6 -4 11 -10 11 -5 0 -10 5
-10 11 0 5 4 8 8 5 4 -2 8 4 8 14 0 10 -3 17 -6 15 -4 -2 -7 2 -7 10 0 8 4 12
9 9 4 -3 8 0 8 5 0 6 -4 11 -10 11 -5 0 -10 5 -10 11 0 5 3 8 8 6 4 -3 8 6 8
19 1 15 -2 21 -10 17 -6 -4 -5 1 3 10 13 16 9 21 -14 18 -5 -1 -1 6 9 14 14
11 16 15 5 15 -8 0 -10 3 -4 8 19 13 17 35 -2 28 -16 -5 -16 -4 -3 6 15 13 24
62 10 53 -4 -2 -7 2 -7 10 0 8 4 12 9 9 4 -3 8 0 8 5 0 6 -4 11 -10 11 -5 0
-10 5 -10 11 0 5 3 8 8 5 13 -8 8 60 -6 76 -7 9 -9 24 -5 34 6 16 5 17 -9 6
-13 -10 -18 -10 -24 -1 -5 8 -3 9 7 4 12 -8 12 -6 0 8 -16 20 -22 22 -18 5z
m7 -24 c0 -8 -19 -13 -24 -6 -3 5 1 9 9 9 8 0 15 -2 15 -3z m-20 -28 c0 -3 -4
-8 -10 -11 -5 -3 -10 -1 -10 4 0 6 5 11 10 11 6 0 10 -2 10 -4z m-612 -742
c-1 -5 -9 -9 -16 -10 -10 -2 -11 1 -1 12 12 14 24 13 17 -2z m-191 -229 c0 -8
-4 -12 -9 -9 -5 3 -6 10 -3 15 9 13 12 11 12 -6z m-46 -148 c-10 -9 -11 -8 -5
6 3 10 9 15 12 12 3 -3 0 -11 -7 -18z m909 -1122 c0 -12 -19 -12 -23 0 -4 9
-1 12 9 8 7 -3 14 -7 14 -8z"/>
<path d="M391 2479 c6 -11 8 -23 5 -27 -3 -3 -6 0 -6 7 0 7 -5 9 -10 6 -8 -5
-8 -11 0 -20 8 -10 7 -16 -7 -24 -10 -6 -13 -11 -7 -11 7 0 14 -11 16 -25 3
-13 1 -22 -3 -19 -5 3 -9 0 -9 -5 0 -6 5 -11 11 -11 8 0 8 -5 -1 -15 -9 -11
-9 -15 -1 -15 7 0 9 -5 4 -12 -11 -18 -11 -58 0 -58 5 0 4 -6 -2 -14 -10 -11
-8 -17 6 -26 13 -8 14 -10 2 -7 -12 4 -16 -2 -15 -24 1 -16 5 -29 10 -29 5 0
3 -6 -3 -14 -9 -10 -9 -16 -1 -21 8 -5 8 -11 -1 -21 -9 -11 -9 -14 1 -14 10 0
10 -3 0 -15 -10 -12 -10 -15 0 -15 10 0 10 -3 1 -14 -10 -11 -8 -17 6 -26 13
-8 13 -10 2 -7 -12 4 -16 -3 -15 -31 0 -21 5 -40 10 -44 6 -4 5 -13 -3 -22
-11 -12 -11 -16 -1 -16 10 0 10 -3 1 -14 -10 -11 -8 -17 6 -26 12 -8 13 -10 3
-7 -13 4 -16 -4 -16 -34 0 -21 3 -39 8 -39 4 0 8 -5 8 -11 0 -5 -3 -8 -8 -5
-4 2 -7 -19 -7 -47 1 -37 5 -51 14 -49 7 1 10 -2 6 -8 -3 -6 -10 -8 -14 -5 -5
2 -8 -9 -7 -25 1 -17 5 -30 10 -30 5 0 3 -6 -3 -14 -9 -10 -9 -16 -1 -21 8 -5
8 -11 -1 -21 -9 -11 -9 -14 1 -14 10 0 10 -3 0 -15 -9 -10 -9 -15 -1 -15 6 0
11 -5 11 -11 0 -5 -4 -8 -8 -5 -5 3 -9 -1 -9 -9 0 -8 5 -15 10 -15 5 0 4 -6
-2 -14 -10 -11 -8 -17 6 -26 13 -8 14 -10 2 -7 -12 4 -16 -2 -15 -24 1 -16 5
-29 10 -29 5 0 3 -6 -3 -14 -9 -10 -9 -16 -1 -21 8 -5 8 -11 -1 -21 -9 -11 -9
-14 1 -14 10 0 10 -3 0 -15 -9 -10 -9 -15 -1 -15 6 0 11 -5 11 -11 0 -5 -4 -8
-8 -5 -5 3 -9 -1 -9 -9 0 -8 5 -15 10 -15 5 0 4 -7 -3 -15 -12 -14 -7 -19 13
-16 5 1 6 -3 2 -9 -3 -6 -10 -8 -14 -5 -5 2 -8 -9 -7 -25 1 -17 6 -30 11 -30
6 0 3 -5 -5 -10 -12 -8 -12 -10 -1 -10 10 0 11 -3 2 -14 -10 -11 -8 -17 6 -26
13 -8 13 -10 2 -7 -12 4 -16 -3 -15 -31 0 -21 5 -40 10 -44 6 -4 5 -13 -3 -22
-11 -12 -11 -16 -1 -16 10 0 10 -3 1 -14 -10 -11 -8 -17 6 -26 12 -8 13 -10 3
-7 -13 4 -16 -4 -16 -34 0 -21 3 -39 8 -39 4 0 8 -5 8 -11 0 -5 -5 -7 -11 -3
-7 4 -7 -1 1 -16 8 -15 8 -20 1 -16 -6 4 -11 2 -11 -3 0 -6 5 -11 11 -11 8 0
8 -5 -1 -15 -9 -11 -9 -15 -1 -15 7 0 9 -5 4 -12 -11 -18 -11 -58 0 -58 5 0 4
-6 -2 -14 -10 -11 -8 -17 6 -26 13 -8 14 -10 2 -7 -12 4 -16 -2 -15 -24 1 -16
5 -29 10 -29 5 0 3 -6 -3 -14 -9 -10 -9 -16 -1 -21 8 -5 8 -11 -1 -21 -9 -11
-9 -14 0 -14 9 0 9 -5 1 -20 -8 -15 -8 -20 2 -20 8 -1 5 -7 -6 -15 -11 -8 -15
-15 -8 -15 8 0 11 -17 8 -55 -2 -30 -1 -55 3 -55 3 0 7 -11 7 -26 2 -23 1 -24
-12 -7 -12 17 -13 16 -7 -4 3 -13 10 -23 15 -23 6 0 4 -8 -3 -17 -10 -11 -10
-14 -1 -9 8 4 12 1 12 -9 0 -11 5 -15 15 -11 8 3 14 0 12 -6 -1 -5 6 -12 17
-13 14 -3 16 -1 7 8 -17 17 -13 31 4 17 8 -7 15 -9 15 -5 0 4 8 1 18 -6 15
-12 16 -12 5 2 -7 9 -9 20 -5 25 4 4 0 4 -8 -1 -13 -8 -13 -7 0 5 9 9 15 22
13 30 -4 13 -3 13 5 1 6 -8 8 -21 6 -30 -3 -9 1 -5 7 9 6 14 16 35 21 47 7 13
17 20 30 18 10 -2 16 0 13 5 -3 5 -1 11 4 15 6 3 8 12 4 20 -3 9 1 15 11 15 9
0 15 3 15 8 -3 18 2 32 12 32 5 0 7 -5 3 -12 -4 -7 -3 -8 4 -4 7 4 12 14 12
22 0 9 7 22 15 31 8 8 12 19 9 25 -4 7 0 6 13 0 15 -9 20 -8 20 4 0 7 -5 14
-11 14 -6 0 -3 5 7 11 9 5 23 7 30 3 7 -5 6 0 -3 11 -14 17 -13 18 2 12 10 -3
17 -3 17 1 -3 20 3 23 19 11 15 -13 16 -12 4 3 -8 9 -21 15 -30 12 -9 -2 -3 2
13 10 17 8 34 12 39 8 5 -3 6 0 2 7 -4 6 -12 9 -17 6 -5 -3 -6 1 -3 8 3 8 13
14 22 12 26 -4 33 4 22 26 -7 13 -7 19 0 19 5 0 10 -5 10 -11 0 -5 5 -7 11 -3
8 4 4 11 -11 19 -15 8 -19 15 -11 19 6 4 11 2 11 -3 0 -6 5 -11 10 -11 6 0 10
7 10 16 0 8 4 13 9 9 5 -3 14 10 21 29 6 19 18 37 27 41 15 5 15 4 0 -13 -9
-10 -17 -23 -17 -28 0 -5 5 -1 11 9 6 9 14 15 19 12 10 -6 8 15 -3 32 -4 6 -2
15 4 19 7 4 9 3 5 -4 -4 -6 1 -10 13 -9 15 1 17 4 9 14 -6 8 -8 17 -4 20 4 4
11 1 16 -7 6 -8 10 -10 10 -4 0 5 -5 15 -11 21 -9 9 -5 11 15 9 15 -2 24 -1
21 2 -3 3 7 19 22 35 16 17 23 27 17 24 -7 -4 -14 -1 -17 7 -4 9 2 13 19 12
13 -1 24 4 23 9 0 6 -8 8 -17 7 -9 -2 -14 0 -9 4 4 4 17 8 30 9 18 1 22 8 22
32 0 17 3 29 7 27 4 -3 12 5 18 16 6 11 19 20 29 20 11 0 22 7 25 16 5 14 4
15 -9 4 -9 -7 -18 -10 -22 -6 -3 3 -1 6 6 6 7 0 9 5 6 10 -4 6 -3 9 2 8 4 -1
19 2 32 6 24 8 24 9 5 23 -18 14 -18 15 4 8 22 -6 23 -5 11 17 -11 20 -10 21
3 11 17 -15 39 1 31 23 -3 8 0 14 6 14 6 0 11 -5 11 -12 0 -6 3 -8 6 -5 4 4 1
14 -7 24 -8 9 -9 14 -2 10 18 -11 42 3 36 20 -5 12 -2 14 8 9 8 -4 6 -1 -4 7
-16 13 -16 15 -2 21 11 4 14 2 9 -6 -5 -7 -3 -8 5 -4 7 5 10 15 7 23 -3 8 -1
11 4 8 6 -3 10 -1 10 5 0 6 5 8 12 4 7 -4 8 -3 4 5 -4 6 -12 8 -18 5 -5 -4 -2
5 7 20 17 25 16 26 -1 27 -16 0 -15 2 4 9 12 5 22 12 22 14 0 3 -6 3 -14 0 -8
-3 -17 0 -22 7 -5 8 -3 10 6 4 10 -6 12 -3 8 13 -4 12 -2 20 2 17 5 -3 12 -1
15 5 4 6 3 9 -2 8 -4 -2 -9 1 -10 5 -4 13 -31 37 -42 37 -13 0 -14 10 -2 30
14 21 2 33 -17 18 -12 -10 -14 -10 -8 0 4 6 2 12 -3 12 -6 0 -10 3 -10 8 3 19
-2 33 -11 27 -6 -3 -10 -1 -10 5 0 6 -7 18 -16 27 -8 9 -13 21 -10 29 3 8 -2
11 -15 9 -12 -2 -19 2 -19 11 0 10 -5 12 -12 8 -9 -5 -8 -2 1 9 8 10 11 20 7
24 -3 3 -6 1 -6 -6 0 -8 -5 -7 -16 3 -8 9 -20 13 -26 10 -7 -4 -7 0 0 12 10
21 6 44 -9 44 -6 0 -7 -4 -4 -10 3 -5 2 -10 -3 -10 -12 0 -30 41 -26 62 2 14
-2 16 -15 9 -10 -6 -23 -5 -34 1 -18 9 -18 11 -1 30 10 11 14 19 9 18 -28 -6
-45 2 -45 20 0 11 -3 19 -8 18 -4 0 -15 2 -25 7 -17 7 -17 8 0 22 10 8 12 12
6 8 -8 -4 -13 0 -13 9 0 9 -4 16 -10 16 -5 0 -7 -8 -3 -17 5 -15 3 -14 -10 2
-10 12 -12 24 -6 30 5 5 9 14 9 20 0 5 -5 3 -10 -5 -8 -12 -10 -12 -10 -1 0
10 -3 11 -14 2 -12 -10 -13 -8 -9 8 3 12 10 18 16 14 6 -3 7 -1 3 5 -4 6 -13
9 -20 6 -7 -3 -19 2 -26 10 -7 9 -17 13 -23 9 -6 -4 -7 -1 -3 6 6 9 12 9 25
-3 15 -14 18 -14 18 -2 0 8 -5 14 -11 13 -6 -1 -10 3 -9 10 2 7 -6 10 -17 8
-14 -3 -17 0 -13 13 6 15 4 15 -9 4 -14 -11 -16 -10 -11 7 3 12 10 18 16 14 6
-3 7 -1 3 6 -6 9 -11 9 -23 0 -12 -11 -14 -10 -11 5 2 10 -6 23 -16 30 -11 6
-28 18 -39 28 -18 16 -18 16 0 27 17 10 16 10 -4 11 -25 0 -29 10 -12 27 9 9
5 11 -16 9 -18 -2 -28 2 -32 13 -7 25 -25 60 -18 38 3 -11 1 -16 -6 -11 -6 3
-9 14 -6 23 2 9 -3 23 -11 31 -14 13 -15 12 -10 -2 4 -9 1 -18 -6 -21 -9 -4
-11 4 -8 26 4 25 2 29 -12 24 -11 -4 -15 -3 -11 4 4 5 1 16 -5 24 -7 8 -9 15
-5 15 4 0 2 6 -4 13 -6 8 -9 17 -6 21 3 3 -1 2 -7 -4 -18 -15 -31 -12 -24 5 3
9 -3 19 -17 27 -12 6 -23 11 -24 10 -2 -1 -9 -2 -15 -2 -8 0 -9 3 -3 8 21 15
16 34 -6 27 -18 -6 -21 -4 -15 11 6 18 5 18 -9 0 -8 -11 -15 -15 -15 -9 0 6
-7 13 -15 17 -13 5 -14 2 -4 -15z m155 -107 c-3 -3 -1 -11 5 -18 7 -8 6 -14
-2 -20 -7 -4 -9 -3 -5 4 3 6 2 13 -4 17 -5 3 -10 13 -10 21 0 8 5 12 11 9 6
-4 8 -10 5 -13z m219 -281 c3 -5 2 -12 -3 -15 -5 -3 -9 1 -9 9 0 17 3 19 12 6z
m219 -1252 c-9 -10 -22 -19 -28 -19 -6 0 -3 5 7 11 9 5 17 17 17 25 0 8 5 12
11 9 7 -5 4 -14 -7 -26z m-424 -519 c-8 -5 -19 -10 -25 -10 -5 0 -3 5 5 10 8
5 20 10 25 10 6 0 3 -5 -5 -10z"/>
<path d="M2317 2473 c-10 -9 -9 -23 1 -23 5 0 9 7 9 15 0 17 -1 18 -10 8z"/>
<path d="M660 2219 c0 -5 5 -7 10 -4 6 3 10 8 10 11 0 2 -4 4 -10 4 -5 0 -10
-5 -10 -11z"/>
<path d="M726 2135 c10 -8 23 -15 28 -15 6 0 1 7 -10 15 -10 8 -23 15 -28 15
-6 0 -1 -7 10 -15z"/>
<path d="M945 1860 c4 -6 11 -8 16 -5 14 9 11 15 -7 15 -8 0 -12 -5 -9 -10z"/>
<path d="M1686 1808 c3 -5 10 -6 15 -3 13 9 11 12 -6 12 -8 0 -12 -4 -9 -9z"/>
<path d="M1005 1779 c-3 -4 1 -9 9 -12 8 -3 17 0 19 7 5 13 -21 18 -28 5z"/>
<path d="M1586 1668 c3 -5 10 -6 15 -3 13 9 11 12 -6 12 -8 0 -12 -4 -9 -9z"/>
<path d="M1271 1447 c2 -2 11 -8 20 -15 12 -9 16 -9 16 1 0 7 -9 14 -20 14
-11 1 -18 1 -16 0z"/>
<path d="M1392 1445 c4 -4 3 -16 -3 -26 -5 -11 -7 -19 -5 -19 3 0 10 9 16 19
7 15 7 22 -2 27 -7 4 -10 4 -6 -1z"/>
<path d="M1405 1229 c-4 -6 -5 -12 -2 -15 2 -3 7 2 10 11 7 17 1 20 -8 4z"/>
<path d="M1106 988 c3 -5 10 -6 15 -3 13 9 11 12 -6 12 -8 0 -12 -4 -9 -9z"/>
<path d="M1085 969 c-4 -6 -5 -12 -2 -15 2 -3 7 2 10 11 7 17 1 20 -8 4z"/>
<path d="M1604 959 c-4 -7 -3 -10 4 -5 6 3 15 -2 21 -11 5 -10 12 -15 15 -12
4 3 -2 14 -13 23 -14 13 -21 14 -27 5z"/>
<path d="M1793 737 c10 -15 15 -33 11 -40 -4 -7 -3 -9 1 -4 5 4 18 -1 29 -10
13 -11 16 -12 9 -3 -6 8 -11 17 -10 20 0 3 -12 19 -28 35 l-29 30 17 -28z"/>
<path d="M1900 579 c0 -5 5 -7 10 -4 6 3 10 8 10 11 0 2 -4 4 -10 4 -5 0 -10
-5 -10 -11z"/>
<path d="M1976 488 c3 -5 10 -6 15 -3 13 9 11 12 -6 12 -8 0 -12 -4 -9 -9z"/>
<path d="M2060 379 c0 -5 5 -7 10 -4 6 3 10 8 10 11 0 2 -4 4 -10 4 -5 0 -10
-5 -10 -11z"/>
<path d="M525 270 c-3 -6 1 -7 9 -4 18 7 21 14 7 14 -6 0 -13 -4 -16 -10z"/>
</g>
</svg>
