<?xml version="1.0" encoding="UTF-8"?>
<svg width="36px" height="25px" viewBox="0 0 36 25" version="1.1" xmlns="http://www.w3.org/2000/svg" xmlns:xlink="http://www.w3.org/1999/xlink">
    <title>DC350A18-317E-443E-B9CA-0ADA543D9148</title>
    <g id="Movado_Desktop_V01_Mod" stroke="none" stroke-width="1" fill="none" fill-rule="evenodd">
        <g id="05_MOD_B" transform="translate(-443.000000, -502.000000)">
            <g id="Stacked-Group-3" transform="translate(351.000000, 502.000000)">
                <g id="American-Express" transform="translate(92.000000, 0.000000)">
                    <path d="M0,1.64031982 C0,0.734396201 0.73542691,0 1.64039183,0 L34.3596082,0 C35.2655716,0 36,0.721240044 36,1.64031982 L36,23.3596802 C36,24.2656038 35.2645731,25 34.3596082,25 L1.64039183,25 C0.734428437,25 0,24.27876 0,23.3596802 L0,1.64031982 Z" id="Rectangle-Copy-4" fill="#016FD0"></path>
                    <g id="American_Express_logo_(2018)" transform="translate(0.035928, 6.023744)">
                        <path d="M6.95713114,12.8840081 L6.95713114,7.30734608 L12.9147456,7.30734608 L13.5539332,8.13319802 L14.2142569,7.30734608 L35.8389269,7.30734608 L35.8389269,12.4994125 C35.8389269,12.4994125 35.2734036,12.8784318 34.6193497,12.8840081 L22.6453236,12.8840081 L21.9246647,12.0049282 L21.9246647,12.8840081 L19.5631204,12.8840081 L19.5631204,11.3833921 C19.5631204,11.3833921 19.2405298,11.5928604 18.543111,11.5928604 L17.7392989,11.5928604 L17.7392989,12.8840081 L14.1637214,12.8840081 L13.5254472,12.0404444 L12.8773728,12.8840081 L6.95713114,12.8840081 Z" id="path3082" fill="#FFFFFF"></path>
                        <path d="M0,3.10424812 L1.34346557,0 L3.66684898,0 L4.4292812,1.73887405 L4.4292812,0 L7.31746096,0 L7.77133725,1.25680661 L8.21135497,0 L21.1762879,0 L21.1762879,0.631837767 C21.1762879,0.631837767 21.857843,0 22.9779356,0 L27.1845819,0.0145710928 L27.9338522,1.7306876 L27.9338522,0 L30.3508315,0 L31.0160554,0.985770751 L31.0160554,0 L33.4552089,0 L33.4552089,5.57665848 L31.0160554,5.57665848 L30.3785493,4.58769362 L30.3785493,5.57665848 L26.8274709,5.57665848 L26.4703599,4.69757861 L25.5157103,4.69757861 L25.1644117,5.57665848 L22.7561943,5.57665848 C21.7923898,5.57665848 21.1762879,4.95772175 21.1762879,4.95772175 L21.1762879,5.57665848 L17.5452754,5.57665848 L16.8246162,4.69757861 L16.8246162,5.57665848 L3.32265377,5.57665848 L2.96578886,4.69757861 L2.01418347,4.69757861 L1.65984072,5.57665848 L0,5.57665848 L0,3.10424812 Z" id="path3080" fill="#FFFFFF"></path>
                        <path d="M1.81897114,0.687483531 L0.00692942515,4.86310935 L1.18666207,4.86310935 L1.52100629,4.02695937 L3.46470683,4.02695937 L3.7973188,4.86310935 L5.00303677,4.86310935 L3.19272719,0.687483531 L1.81897114,0.687483531 Z M2.48939174,1.65927785 L3.08185689,3.12040736 L1.89519449,3.12040736 L2.48939174,1.65927785 L2.48939174,1.65927785 Z" id="path3046" fill="#016FD0" fill-rule="nonzero"></path>
                        <polygon id="path3048" fill="#016FD0" points="5.12776599 4.86240786 5.12776599 0.686778478 6.80423174 0.692949471 7.7793212 3.38512979 8.73106132 0.686778478 10.3941205 0.686778478 10.3941205 4.86240786 9.34084958 4.86240786 9.34084958 1.78562832 8.22436024 4.86240786 7.3006394 4.86240786 6.18103689 1.78562832 6.18103689 4.86240786"></polygon>
                        <polygon id="path3050" fill="#016FD0" points="11.1147794 4.86240786 11.1147794 0.686778478 14.5517687 0.686778478 14.5517687 1.62080262 12.1791374 1.62080262 12.1791374 2.33505324 14.4963334 2.33505324 14.4963334 3.21413311 12.1791374 3.21413311 12.1791374 3.95585586 14.5517687 3.95585586 14.5517687 4.86240786"></polygon>
                        <path d="M15.161557,0.687483531 L15.161557,4.86310935 L16.2148279,4.86310935 L16.2148279,3.37966385 L16.6583102,3.37966385 L17.9211959,4.86310935 L19.2083346,4.86310935 L17.8224517,3.32472314 C18.3912266,3.27715344 18.9779314,2.79332336 18.9779314,2.04216074 C18.9779314,1.16346188 18.2820654,0.687483531 17.5054311,0.687483531 L15.161557,0.687483531 L15.161557,0.687483531 Z M16.2148279,1.62150411 L17.4188134,1.62150411 C17.7076329,1.62150411 17.9177314,1.84541894 17.9177314,2.06104405 C17.9177314,2.33845387 17.6455135,2.50058398 17.4344048,2.50058398 L16.2148279,2.50058398 L16.2148279,1.62150411 L16.2148279,1.62150411 Z" id="path3052" fill="#016FD0" fill-rule="nonzero"></path>
                        <polygon id="path3054" fill="#016FD0" points="20.4833468 4.86240786 19.4079018 4.86240786 19.4079018 0.686778478 20.4833468 0.686778478"></polygon>
                        <path d="M23.0333709,4.86240786 L22.8012356,4.86240786 C21.67806,4.86240786 20.9961234,3.9853933 20.9961234,2.7917637 C20.9961234,1.56864651 21.6704249,0.686778478 23.0888062,0.686778478 L24.2529478,0.686778478 L24.2529478,1.67574333 L23.0462447,1.67574333 C22.4704602,1.67574333 22.0632528,2.12109105 22.0632528,2.80206531 C22.0632528,3.61072535 22.5288769,3.95036143 23.1996769,3.95036143 L23.4768532,3.95036143 L23.0333709,4.86240786 Z" id="path3056" fill="#016FD0"></path>
                        <path d="M25.3252743,0.687483531 L23.5132329,4.86310935 L24.6929655,4.86310935 L25.0273096,4.02695937 L26.9710103,4.02695937 L27.3036219,4.86310935 L28.5093399,4.86310935 L26.6990307,0.687483531 L25.3252743,0.687483531 Z M25.9956952,1.65927785 L26.58816,3.12040736 L25.401498,3.12040736 L25.9956952,1.65927785 Z" id="path3058" fill="#016FD0" fill-rule="nonzero"></path>
                        <polygon id="path3060" fill="#016FD0" points="28.632337 4.86240786 28.632337 0.686778478 29.9714461 0.686778478 31.681279 3.3102838 31.681279 0.686778478 32.7345499 0.686778478 32.7345499 4.86240786 31.4387497 4.86240786 29.6856079 2.17022754 29.6856079 4.86240786"></polygon>
                        <polygon id="path3062" fill="#016FD0" points="7.67779042 12.1697575 7.67779042 7.99412812 11.1147794 7.99412812 11.1147794 8.92815226 8.74214838 8.92815226 8.74214838 9.64240288 11.0593441 9.64240288 11.0593441 10.5214827 8.74214838 10.5214827 8.74214838 11.2632055 11.1147794 11.2632055 11.1147794 12.1697575"></polygon>
                        <polygon id="path3064" fill="#016FD0" points="24.519037 12.1697575 24.519037 7.99412812 27.9560263 7.99412812 27.9560263 8.92815226 25.583395 8.92815226 25.583395 9.64240288 27.889504 9.64240288 27.889504 10.5214827 25.583395 10.5214827 25.583395 11.2632055 27.9560263 11.2632055 27.9560263 12.1697575"></polygon>
                        <polygon id="path3066" fill="#016FD0" points="11.2481705 12.1697575 12.9216241 10.107695 11.2083266 7.99412812 12.5353092 7.99412812 13.5556653 9.30072642 14.5794862 7.99412812 15.8544984 7.99412812 14.1637214 10.0819428 15.8402554 12.1697575 14.5134826 12.1697575 13.5227508 10.8837553 12.5560976 12.1697575"></polygon>
                        <path d="M15.9653691,7.99483317 L15.9653691,12.170459 L17.0463575,12.170459 L17.0463575,10.8518392 L18.1550637,10.8518392 C19.093186,10.8518392 19.804264,10.3585728 19.804264,9.39929851 C19.804264,8.60463982 19.2465618,7.99483317 18.2919198,7.99483317 L15.9653691,7.99483317 L15.9653691,7.99483317 Z M17.0463575,8.93915536 L18.2139636,8.93915536 C18.517034,8.93915536 18.7336696,9.12325606 18.7336696,9.41990172 C18.7336696,9.69858277 18.5181277,9.90064808 18.210499,9.90064808 L17.0463575,9.90064808 L17.0463575,8.93915536 Z" id="path3068" fill="#016FD0" fill-rule="nonzero"></path>
                        <path d="M20.2616055,7.99412812 L20.2616055,12.1697575 L21.3148764,12.1697575 L21.3148764,10.6863084 L21.7583587,10.6863084 L23.0212444,12.1697575 L24.3083831,12.1697575 L22.9225002,10.6313677 C23.4912747,10.5837909 24.0779799,10.099968 24.0779799,9.34880177 C24.0779799,8.47010647 23.3821139,7.99412812 22.6054796,7.99412812 L20.2616055,7.99412812 L20.2616055,7.99412812 Z M21.3148764,8.92815226 L22.5188619,8.92815226 C22.8076814,8.92815226 23.0177795,9.15206353 23.0177795,9.36768864 C23.0177795,9.64510202 22.7455617,9.80722857 22.5344529,9.80722857 L21.3148764,9.80722857 L21.3148764,8.92815226 L21.3148764,8.92815226 Z" id="path3072" fill="#016FD0" fill-rule="nonzero"></path>
                        <path d="M28.4438569,12.1697575 L28.4438569,11.2632055 L30.5517848,11.2632055 C30.8636824,11.2632055 30.998732,11.0961578 30.998732,10.9129473 C30.998732,10.7374105 30.8641081,10.5599437 30.5517848,10.5599437 L29.5992363,10.5599437 C28.7712467,10.5599437 28.3101194,10.0599651 28.3101194,9.30931524 C28.3101194,8.6397892 28.7324001,7.99412812 29.9627846,7.99412812 L32.013891,7.99412812 L31.5704084,8.93364313 L29.7964786,8.93364313 C29.4573812,8.93364313 29.3529959,9.10999893 29.3529959,9.27841043 C29.3529959,9.45151159 29.4819909,9.64240288 29.7410432,9.64240288 L30.7388788,9.64240288 C31.6618832,9.64240288 32.0623969,10.1613076 32.0623969,10.8408361 C32.0623969,11.5713955 31.6160932,12.1697575 30.6886319,12.1697575 L28.4438569,12.1697575 Z" id="path3074" fill="#016FD0"></path>
                        <path d="M32.3096041,12.1697575 L32.3096041,11.2632055 L34.4175305,11.2632055 C34.7294299,11.2632055 34.8644802,11.0961578 34.8644802,10.9129473 C34.8644802,10.7374105 34.7298539,10.5599437 34.4175305,10.5599437 L33.4649835,10.5599437 C32.6369939,10.5599437 32.1758662,10.0599651 32.1758662,9.30931524 C32.1758662,8.6397892 32.5981469,7.99412812 33.8285314,7.99412812 L35.8796371,7.99412812 L35.4361545,8.93364313 L33.6622254,8.93364313 C33.3231284,8.93364313 33.2187431,9.10999893 33.2187431,9.27841043 C33.2187431,9.45151159 33.3477377,9.64240288 33.6067901,9.64240288 L34.6046263,9.64240288 C35.5276311,9.64240288 35.9281437,10.1613076 35.9281437,10.8408361 C35.9281437,11.5713955 35.4818407,12.1697575 34.5543772,12.1697575 L32.3096041,12.1697575 Z" id="path3076" fill="#016FD0"></path>
                    </g>
                </g>
            </g>
        </g>
    </g>
</svg>