<svg xmlns="http://www.w3.org/2000/svg" width="120.377" height="51.065" viewBox="0 0 120.377 51.065">
  <g id="Group_3" data-name="Group 3" transform="translate(-22.435 -29.055)">
    <g id="Group_1" data-name="Group 1">
      <path id="Path_1" data-name="Path 1" d="M45.186,35.64a9.238,9.238,0,0,0,2.125-6.585A9.16,9.16,0,0,0,41.239,32.2a8.648,8.648,0,0,0-2.177,6.329,7.643,7.643,0,0,0,6.124-2.887" fill="#fff"/>
      <path id="Path_2" data-name="Path 2" d="M47.285,38.982c-3.382-.2-6.258,1.92-7.873,1.92s-4.089-1.818-6.764-1.769a9.974,9.974,0,0,0-8.479,5.151c-3.634,6.264-.959,15.555,2.575,20.656,1.716,2.524,3.784,5.3,6.51,5.2,2.575-.1,3.584-1.667,6.714-1.667S44,70.143,46.73,70.092c2.827-.051,4.594-2.525,6.31-5.051a22.419,22.419,0,0,0,2.825-5.807,9.172,9.172,0,0,1-5.5-8.334,9.349,9.349,0,0,1,4.441-7.828,9.669,9.669,0,0,0-7.521-4.089" fill="#fff"/>
    </g>
    <g id="Group_2" data-name="Group 2">
      <path id="Path_3" data-name="Path 3" d="M76.734,31.944c7.351,0,12.47,5.067,12.47,12.444,0,7.4-5.224,12.5-12.654,12.5H68.411V69.828H62.53V31.944h14.2ZM68.411,51.949h6.747c5.12,0,8.034-2.756,8.034-7.535s-2.914-7.508-8.007-7.508H68.411Z" fill="#fff"/>
      <path id="Path_4" data-name="Path 4" d="M90.74,61.979c0-4.831,3.7-7.8,10.266-8.165l7.561-.446V51.241c0-3.072-2.074-4.91-5.539-4.91-3.283,0-5.33,1.575-5.829,4.043H91.843c.315-4.989,4.568-8.664,11.394-8.664,6.695,0,10.974,3.544,10.974,9.084V69.828h-5.435V65.286h-.131A9.868,9.868,0,0,1,99.929,70.3C94.521,70.3,90.74,66.94,90.74,61.979Zm17.826-2.494V57.306l-6.8.42c-3.387.236-5.3,1.733-5.3,4.1,0,2.415,2,3.99,5.041,3.99C105.468,65.812,108.566,63.081,108.566,59.485Z" fill="#fff"/>
      <path id="Path_5" data-name="Path 5" d="M119.342,79.989V75.394a10.5,10.5,0,0,0,1.837.1c2.625,0,4.043-1.1,4.909-3.938,0-.053.5-1.68.5-1.707l-9.976-27.646h6.143l6.984,22.474h.1l6.984-22.474h5.986L132.468,71.272c-2.362,6.7-5.092,8.848-10.816,8.848A21.909,21.909,0,0,1,119.342,79.989Z" fill="#fff"/>
    </g>
  </g>
</svg>
