<svg xmlns="http://www.w3.org/2000/svg" width="14.885" height="13.541" viewBox="0 0 14.885 13.541">
  <g id="checkwhite" transform="translate(-587.568 -201.181)">
    <path id="Path_1" data-name="Path 1" d="M594.419,214.132a6.424,6.424,0,0,0,3.386-1.062,5.783,5.783,0,0,0,2.256-2.651,5.851,5.851,0,0,0,.436-1.6c.01-.075.018-.149.032-.223a.316.316,0,0,1,.343-.285.3.3,0,0,1,.273.373c-.061.366-.119.735-.215,1.092a6.613,6.613,0,0,1-1.274,2.451,6.718,6.718,0,0,1-3.3,2.209,6.78,6.78,0,0,1-4.446-.19,6.269,6.269,0,0,1-2.354-1.526,6.865,6.865,0,0,1-1.737-2.938,6.642,6.642,0,0,1,1.063-5.794,6.577,6.577,0,0,1,3.278-2.426,7,7,0,0,1,1.752-.359,6.681,6.681,0,0,1,3.066.5,5.087,5.087,0,0,1,.491.219.306.306,0,1,1-.277.545c-.16-.07-.315-.151-.477-.217a6.218,6.218,0,0,0-6.79,1.426,5.809,5.809,0,0,0-1.668,3.419,6.034,6.034,0,0,0,2.33,5.715,5.56,5.56,0,0,0,2.708,1.2C593.668,214.07,594.045,214.092,594.419,214.132Z" transform="translate(0 0)" fill="#fff"/>
    <path id="Path_2" data-name="Path 2" d="M766.13,253.276a1.179,1.179,0,0,1-.23-.143c-.317-.329-.629-.664-.939-1-.4-.436-.806-.873-1.2-1.315-.275-.3-.541-.617-.809-.927a2.038,2.038,0,0,1-.131-.183.229.229,0,0,1,.053-.316.288.288,0,0,1,.35-.034,1.9,1.9,0,0,1,.2.2q1.151,1.248,2.3,2.5c.1.108.2.215.286.332s.152.094.239.006c.312-.315.627-.628.941-.941l6.342-6.329a1.991,1.991,0,0,1,.19-.169.248.248,0,0,1,.346.013.252.252,0,0,1,.047.333,1.046,1.046,0,0,1-.156.182c-.61.611-1.223,1.219-1.83,1.833q-2.334,2.36-4.664,4.723-.512.519-1.035,1.027A2.465,2.465,0,0,1,766.13,253.276Z" transform="translate(-171.704 -42.832)" fill="#fff"/>
  </g>
</svg>
