<?xml version="1.0" encoding="UTF-8"?>
<svg width="24px" height="25px" viewBox="0 0 24 25" version="1.1" xmlns="http://www.w3.org/2000/svg" xmlns:xlink="http://www.w3.org/1999/xlink">
    <title>307A294A-5C7B-47F9-921C-9F1F637C0A32</title>
    <g id="Page-1" stroke="none" stroke-width="1" fill="none" fill-rule="evenodd">
        <g id="04" transform="translate(-103.000000, -153.000000)">
            <g id="24px" transform="translate(103.000000, 153.000000)">
                <polygon id="Path" points="0 0 24 0 24 25 0 25"></polygon>
                <path d="M12,2.08333333 C6.48,2.08333333 2,6.75 2,12.5 C2,18.25 6.48,22.9166667 12,22.9166667 C17.52,22.9166667 22,18.25 22,12.5 C22,6.75 17.52,2.08333333 12,2.08333333 Z M12,20.8333333 C7.59,20.8333333 4,17.09375 4,12.5 C4,7.90625 7.59,4.16666667 12,4.16666667 C16.41,4.16666667 20,7.90625 20,12.5 C20,17.09375 16.41,20.8333333 12,20.8333333 Z M15.88,8.63541667 L10,14.7604167 L8.12,12.8020833 C7.73,12.3958333 7.1,12.3958333 6.71,12.8020833 C6.32,13.2083333 6.32,13.8645833 6.71,14.2708333 L9.3,16.96875 C9.69,17.375 10.32,17.375 10.71,16.96875 L17.3,10.1041667 C17.69,9.69791667 17.69,9.04166667 17.3,8.63541667 C16.91,8.22916667 16.27,8.22916667 15.88,8.63541667 Z" id="Shape" fill="#59AF2C" fill-rule="nonzero"></path>
            </g>
        </g>
    </g>
</svg>