<?xml version="1.0" encoding="UTF-8"?>
<svg width="16px" height="16px" viewBox="0 0 16 16" version="1.1" xmlns="http://www.w3.org/2000/svg" xmlns:xlink="http://www.w3.org/1999/xlink">
    <title>7DB8719F-326A-4459-A8F5-34F7EBC02D26</title>
    <g id="OB_Desktop_Checkout" stroke="none" stroke-width="1" fill="none" fill-rule="evenodd">
        <g id="01_GC_V1C" transform="translate(-1095.000000, -222.000000)">
            <g id="Applied_Offer" transform="translate(1043.000000, 217.000000)">
                <g id="clear_black_24dp" transform="translate(52.000000, 5.000000)">
                    <polygon id="Path" points="0 0 16 0 16 16 0 16"></polygon>
                    <path d="M12.2,3.80666667 C11.94,3.54666667 11.52,3.54666667 11.26,3.80666667 L8,7.06 L4.74,3.8 C4.48,3.54 4.06,3.54 3.8,3.8 C3.54,4.06 3.54,4.48 3.8,4.74 L7.06,8 L3.8,11.26 C3.54,11.52 3.54,11.94 3.8,12.2 C4.06,12.46 4.48,12.46 4.74,12.2 L8,8.94 L11.26,12.2 C11.52,12.46 11.94,12.46 12.2,12.2 C12.46,11.94 12.46,11.52 12.2,11.26 L8.94,8 L12.2,4.74 C12.4533333,4.48666667 12.4533333,4.06 12.2,3.80666667 Z" id="Path" fill="#3AAB4A" fill-rule="nonzero"></path>
                </g>
            </g>
        </g>
    </g>
</svg>