<?xml version="1.0" encoding="UTF-8"?>
<svg width="20px" height="20px" viewBox="0 0 20 20" version="1.1" xmlns="http://www.w3.org/2000/svg" xmlns:xlink="http://www.w3.org/1999/xlink">
    <title>615A56BB-99D8-409D-B64B-0C2F6FDFAC65</title>
    <g id="Initial_Explorations" stroke="none" stroke-width="1" fill="none" fill-rule="evenodd">
        <g id="M01" transform="translate(-335.000000, -107.000000)">
            <g id="Group-6" transform="translate(10.000000, 100.000000)">
                <g id="search_black_24dp" transform="translate(325.000000, 7.000000)">
                    <polygon id="Path" points="0 0 20 0 20 20 0 20"></polygon>
                    <path d="M12.9166667,11.6666667 L12.2583333,11.6666667 L12.025,11.4416667 C13.025,10.275 13.5416667,8.68333333 13.2583333,6.99166667 C12.8666667,4.675 10.9333333,2.825 8.6,2.54166667 C5.075,2.10833333 2.10833333,5.075 2.54166667,8.6 C2.825,10.9333333 4.675,12.8666667 6.99166667,13.2583333 C8.68333333,13.5416667 10.275,13.025 11.4416667,12.025 L11.6666667,12.2583333 L11.6666667,12.9166667 L15.2083333,16.4583333 C15.55,16.8 16.1083333,16.8 16.45,16.4583333 C16.7916667,16.1166667 16.7916667,15.5583333 16.45,15.2166667 L12.9166667,11.6666667 Z M7.91666667,11.6666667 C5.84166667,11.6666667 4.16666667,9.99166667 4.16666667,7.91666667 C4.16666667,5.84166667 5.84166667,4.16666667 7.91666667,4.16666667 C9.99166667,4.16666667 11.6666667,5.84166667 11.6666667,7.91666667 C11.6666667,9.99166667 9.99166667,11.6666667 7.91666667,11.6666667 Z" id="Shape" fill="#000000" fill-rule="nonzero"></path>
                </g>
            </g>
        </g>
    </g>
</svg>