<?xml version="1.0" encoding="UTF-8"?>
<svg width="11px" height="6px" viewBox="0 0 11 6" version="1.1" xmlns="http://www.w3.org/2000/svg" xmlns:xlink="http://www.w3.org/1999/xlink">
    <title>BC61A1AB-F4D9-40BD-90B0-137F3983E927</title>
    <g id="Movado_Desktop_V01_Mod" stroke="none" stroke-width="1" fill="none" fill-rule="evenodd">
        <g id="M02" transform="translate(-95.000000, -675.000000)">
            <g id="Group-3" transform="translate(0.000000, 50.000000)">
                <g id="Stacked-Group" transform="translate(20.000000, 616.000000)">
                    <g id="Layer_1" transform="translate(81.000000, 12.000000) scale(1, -1) rotate(90.000000) translate(-81.000000, -12.000000) translate(71.000000, 2.000000)">
                        <rect id="Rectangle" fill-opacity="0" fill="#FFFFFF" x="0" y="0" width="20" height="20"></rect>
                        <path d="M8.0452325,15.0423477 C7.41606858,15.0420003 7.18902332,14.9009442 7.0452325,15.0423477 C6.99627145,14.4682605 7.04954524,14.2192395 7.0452325,14.0423477 L11.0452325,10.0423477 L7.0452325,6.04234765 C6.98483481,5.80417059 6.98501025,5.43787559 7.0452325,5.04234765 C7.47102654,4.98596571 7.86496644,4.98580258 8.0452325,5.04234765 L13.0452325,10.0423477 C13.1060443,9.8587156 13.1060443,10.2252725 13.0452325,10.0423477 L8.0452325,15.0423477 C7.9915401,14.9811722 7.83308735,15.0421958 8.0452325,15.0423477 Z" id="Shape" fill="#2F4053" fill-rule="nonzero"></path>
                    </g>
                </g>
            </g>
        </g>
    </g>
</svg>