<?xml version="1.0" encoding="UTF-8"?>
<svg width="9px" height="5px" viewBox="0 0 9 5" version="1.1" xmlns="http://www.w3.org/2000/svg" xmlns:xlink="http://www.w3.org/1999/xlink">
    <title>8DE5D32A-1340-4957-8487-5837E3A7526B</title>
    <g id="Movado_Desktop_V01_Mod" stroke="none" stroke-width="1" fill="none" fill-rule="evenodd">
        <g id="M01" transform="translate(-98.000000, -96.000000)">
            <g id="Movado/Component/Mobile/HeaderSummary" transform="translate(0.000000, 50.000000)">
                <g id="Stacked-Group" transform="translate(20.000000, 37.000000)">
                    <g id="Layer_1" transform="translate(82.500000, 11.500000) rotate(90.000000) translate(-82.500000, -11.500000) translate(75.000000, 4.000000)">
                        <rect id="Rectangle" fill-opacity="0" fill="#FFFFFF" x="0" y="0" width="15" height="15"></rect>
                        <path d="M6.03392437,11.2817607 C5.56205143,11.2815002 5.39176749,11.1757081 5.28392437,11.2817607 C5.24720359,10.8511954 5.28715893,10.6644296 5.28392437,10.5317607 L8.28392437,7.53176074 L5.28392437,4.53176074 C5.23862611,4.35312794 5.23875769,4.07840669 5.28392437,3.78176074 C5.6032699,3.73947428 5.89872483,3.73935193 6.03392437,3.78176074 L9.78392437,7.53176074 C9.8295332,7.3940367 9.8295332,7.6689544 9.78392437,7.53176074 L6.03392437,11.2817607 C5.99365507,11.2358792 5.87481551,11.2816468 6.03392437,11.2817607 Z" id="Shape" fill="#2F4053" fill-rule="nonzero"></path>
                    </g>
                </g>
            </g>
        </g>
    </g>
</svg>