<?xml version="1.0" encoding="UTF-8"?>
<svg width="11px" height="15px" viewBox="0 0 11 15" version="1.1" xmlns="http://www.w3.org/2000/svg" xmlns:xlink="http://www.w3.org/1999/xlink">
    <title>EAF43673-1950-4306-BCAD-7F19EE7B3A93</title>
    <g id="MVMT_Desktop" stroke="none" stroke-width="1" fill="none" fill-rule="evenodd" opacity="0.4">
        <g id="05_MOD_A" transform="translate(-721.000000, -48.000000)" fill="#000000" fill-rule="nonzero">
            <g id="Movado/Component/Desktop/SecureCheckout" transform="translate(720.000000, 45.000000)">
                <g transform="translate(1.000000, 0.000000)" id="noun_Lock_4015898">
                    <g transform="translate(0.000000, 3.000000)">
                        <path d="M9.78924485,6.19081106 L9.78924485,6.19081106 L9.78924485,3.99437412 C9.78924485,1.78834221 7.86888452,0 5.5,0 C3.13111548,0 1.21075515,1.78834221 1.21075515,3.99437412 L1.21075515,6.19081106 L1.21075515,6.19081106 C0.474391624,6.50150781 0.000988016353,7.18433477 0,7.93717768 L0,13.0778247 C0.00138695367,14.1388773 0.924692051,14.9987084 2.06407323,15 L8.93592677,15 C10.0753079,14.9987084 10.998613,14.1388773 11,13.0778247 L11,7.9395218 C11,7.18582962 10.5264382,6.50185863 9.78924485,6.19081106 Z M6.4187643,12.0862635 C6.42253509,12.1480525 6.39991381,12.208723 6.35583524,12.2550398 C6.30936075,12.2992063 6.24602888,12.3244826 6.17963387,12.3253633 L4.83798627,12.3253633 C4.77159126,12.3244826 4.70825938,12.2992063 4.6617849,12.2550398 C4.61770633,12.208723 4.59508504,12.1480525 4.59885584,12.0862635 L4.72471396,10.6563526 C4.34299454,10.3509399 4.20570911,9.8565571 4.38058624,9.41710353 C4.55546336,8.97764997 5.00555407,8.68597573 5.50881007,8.68597573 C6.01206607,8.68597573 6.46215678,8.97764997 6.6370339,9.41710353 C6.81191102,9.8565571 6.6746256,10.3509399 6.29290618,10.6563526 L6.4187643,12.0862635 Z M8.57345538,6.01734646 L2.44668192,6.01734646 L2.44668192,3.98265354 C2.44668192,2.40710141 3.81820688,1.12986404 5.51006865,1.12986404 C7.20193042,1.12986404 8.57345538,2.40710141 8.57345538,3.98265354 L8.57345538,6.01734646 Z" id="Shape"></path>
                    </g>
                </g>
            </g>
        </g>
    </g>
</svg>