<?xml version="1.0" encoding="UTF-8"?>
<svg width="22px" height="20px" viewBox="0 0 16 15" version="1.1" xmlns="http://www.w3.org/2000/svg" xmlns:xlink="http://www.w3.org/1999/xlink">
    <title>F886FD07-203A-4B37-B337-D0C28C0DC262</title>
    <g id="Movado_Desktop_V01_Mod" stroke="none" stroke-width="1" fill="none" fill-rule="evenodd">
        <g id="03-Error_Option2" transform="translate(-409.000000, -325.000000)" fill="#C82727" fill-rule="nonzero">
            <g id="warning_black_24dp-copy" transform="translate(409.000000, 325.000000)">
                <path d="M1.67981807,15 L14.3201819,15 C15.6127557,15 16.4185159,13.5271204 15.772229,12.3541085 L9.45204711,0.87975893 C8.80576025,-0.293252977 7.19423975,-0.293252977 6.54795289,0.87975893 L0.227770965,12.3541085 C-0.418515899,13.5271204 0.387244347,15 1.67981807,15 Z M8,8.82625312 C7.53836653,8.82625312 7.16066641,8.4293694 7.16066641,7.94428928 L7.16066641,6.18036161 C7.16066641,5.69528149 7.53836653,5.29839777 8,5.29839777 C8.46163347,5.29839777 8.83933359,5.69528149 8.83933359,6.18036161 L8.83933359,7.94428928 C8.83933359,8.4293694 8.46163347,8.82625312 8,8.82625312 Z M8.83933359,12.3541085 L7.16066641,12.3541085 L7.16066641,10.5901808 L8.83933359,10.5901808 L8.83933359,12.3541085 Z" id="Shape"></path>
            </g>
        </g>
    </g>
</svg>