<?xml version="1.0" encoding="UTF-8"?>
<svg width="36px" height="25px" viewBox="0 0 36 25" version="1.1" xmlns="http://www.w3.org/2000/svg" xmlns:xlink="http://www.w3.org/1999/xlink">
    <title>AF12CC18-8A82-4A4D-BDDC-194C2225A354</title>
    <g id="Movado_Desktop_V01_Mod" stroke="none" stroke-width="1" fill="none" fill-rule="evenodd">
        <g id="05_MOD_B" transform="translate(-397.000000, -502.000000)">
            <g id="Stacked-Group-3" transform="translate(351.000000, 502.000000)">
                <g id="Mastercard" transform="translate(46.000000, 0.000000)">
                    <path d="M0,1.64031982 C0,0.734396201 0.73542691,0 1.64039183,0 L34.3596082,0 C35.2655716,0 36,0.721240044 36,1.64031982 L36,23.3596802 C36,24.2656038 35.2645731,25 34.3596082,25 L1.64039183,25 C0.734428437,25 0,24.27876 0,23.3596802 L0,1.64031982 Z" id="Rectangle-Copy-4" fill="#262626"></path>
                    <g id="mc_symbol" transform="translate(7.090909, 5.434783)">
                        <g id="Group" opacity="0" fill="#FFFFFF">
                            <rect id="Rectangle" x="0" y="0" width="21.7173554" height="14.1141929"></rect>
                        </g>
                        <rect id="Rectangle" fill="#FF5F00" x="7.99504132" y="2.45902049" width="5.72892562" height="9.19452774"></rect>
                        <path d="M8.58512397,7.05709645 C8.58368551,5.26318115 9.42175351,3.56823992 10.8578512,2.46064468 C8.41814716,0.576595117 4.91463427,0.851023228 2.80948725,3.09106831 C0.704340243,5.33111339 0.704340243,8.7847037 2.80948725,11.0247488 C4.91463427,13.2647939 8.41814716,13.539222 10.8578512,11.6551724 C9.4212965,10.5472254 8.5831773,8.85158172 8.58512397,7.05709645 Z" id="Path" fill="#EB001B"></path>
                        <path d="M19.9287603,10.9144064 L19.9287603,10.5323247 L20.0196694,10.5323247 L20.0196694,10.4532734 L19.8033058,10.4532734 L19.8033058,10.5323247 L19.8887603,10.5323247 L19.8887603,10.9144064 L19.9287603,10.9144064 Z M20.3487603,10.9144064 L20.3487603,10.4532734 L20.2833058,10.4532734 L20.2069421,10.7826541 L20.1305785,10.4532734 L20.065124,10.4532734 L20.065124,10.9144064 L20.1123967,10.9144064 L20.1123967,10.5652628 L20.1833058,10.8649993 L20.2323967,10.8649993 L20.3033058,10.5652628 L20.3033058,10.9144064 L20.3487603,10.9144064 Z" id="Shape" fill="#F79E1B" fill-rule="nonzero"></path>
                        <path d="M20.4859504,7.05709645 C20.4859504,9.29577642 19.1850282,11.3379117 17.1358273,12.3161997 C15.0866264,13.2944876 12.6488578,13.0371768 10.8578512,11.6535482 C12.2933224,10.5450127 13.1314534,8.85029678 13.1314534,7.05628436 C13.1314534,5.26227193 12.2933224,3.56755605 10.8578512,2.45902049 C12.6488578,1.07539189 15.0866264,0.818081128 17.1358273,1.79636906 C19.1850282,2.77465699 20.4859504,4.81679229 20.4859504,7.05547226 L20.4859504,7.05709645 Z" id="Path" fill="#F79E1B"></path>
                    </g>
                </g>
            </g>
        </g>
    </g>
</svg>