<?xml version="1.0" encoding="UTF-8"?>
<svg width="18px" height="18px" viewBox="0 0 18 18" version="1.1" xmlns="http://www.w3.org/2000/svg" xmlns:xlink="http://www.w3.org/1999/xlink">
    <!-- Generator: Sketch 58 (84663) - https://sketch.com -->
    <title>ubiquitous/icon/gift-box</title>
    <desc>Created with Sketch.</desc>
    <g id="Value-Prop" stroke="none" stroke-width="1" fill="none" fill-rule="evenodd">
        <g id="desktop-1-pdp-1" transform="translate(-922.000000, -618.000000)" fill="#000000">
            <g id="all">
                <g id="smartgift-button">
                    <g transform="translate(902.000000, 608.000000)">
                        <g id="btn">
                            <g id="content" transform="translate(20.000000, 10.000000)">
                                <g id="ubiquitous/icon/gift-box">
                                    <g id="smgt/logo/ribbon/solid">
                                        <g id="logo" fill-rule="nonzero">
                                            <path d="M10.3645254,1.08180358 C11.2045263,0.209485464 12.1124133,0.101968045 12.7452598,0.467342138 C13.3848387,0.836603189 13.6522083,1.58424526 13.2027501,2.64662426 C12.9807938,3.17125977 12.4768933,3.55903632 11.6910486,3.80995389 L17.9037904,3.81068897 L17.9037904,7.07943078 L17.458,7.07899999 L17.4580528,18 L0.817185452,18 L0.817,7.07899999 L0,7.07943078 L0,3.81068897 L6.48479903,3.81057752 C5.69783527,3.55967904 5.19328324,3.17169462 4.97114295,2.64662426 C4.52168474,1.58424526 4.78905441,0.836603189 5.42863331,0.467342138 C6.06147981,0.101968045 6.96936676,0.209485464 7.8093677,1.08180358 L7.83615277,1.10990353 C8.19988148,1.4953669 8.70722305,2.07238886 9.08767297,2.81036924 C9.46667002,2.07238886 9.97401159,1.4953669 10.3377403,1.10990353 L10.3377403,1.10990353 Z M7.354,7.67299999 L1.81718545,7.673747 L1.81718545,17 L7.354,17 L7.354,7.67299999 Z M10.054,7.67299999 L8.054,7.67299999 L8.054,17 L10.054,17 L10.054,7.67299999 Z M16.4179985,7.673747 L10.697,7.67299999 L10.697,17 L16.4179985,17 L16.4179985,7.673747 Z M7.354,4.80999999 L1,4.81068897 L1,6.56068897 L7.354,6.55999999 L7.354,4.80999999 Z M10.054669,5.03355773 L8.054669,5.03355773 L8.054,6.55999999 L10.054,6.55999999 L10.054669,5.03355773 Z M16.863736,4.81068897 L10.697,4.80999999 L10.697,6.55999999 L16.863736,6.56068897 L16.863736,4.81068897 Z M5.96193853,1.29503788 C5.64709485,1.47681296 5.56938229,1.84589542 5.82375272,2.43343867 C6.04999277,2.95600655 6.85649731,3.30125172 8.27702331,3.39480554 L8.32025753,3.39756338 C8.31689259,3.37217269 8.3126246,3.3537466 8.30837791,3.34272589 C8.08673208,2.76752611 7.74336291,2.28108028 7.25413672,1.7463847 C6.7796826,1.22783415 6.29880842,1.10054595 5.96193853,1.29503788 Z M12.2119545,1.29503788 C11.8750846,1.10054595 11.3942105,1.22783415 10.9197563,1.7463847 C10.4305302,2.28108028 10.087161,2.76752611 9.86551515,3.34272589 C9.86126847,3.3537466 9.85700047,3.37217269 9.85363553,3.39756338 L9.85363553,3.39756338 L9.89686975,3.39480554 C11.3173958,3.30125172 12.1239003,2.95600655 12.3501403,2.43343867 C12.6045108,1.84589542 12.5267982,1.47681296 12.2119545,1.29503788 Z" id="Combined-Shape"></path>
                                        </g>
                                    </g>
                                </g>
                            </g>
                        </g>
                    </g>
                </g>
            </g>
        </g>
    </g>
</svg>