<svg width="128" height="25" viewBox="0 0 128 25" fill="none" xmlns="http://www.w3.org/2000/svg">
<path fill-rule="evenodd" clip-rule="evenodd" d="M0 1.63068C0 0.730079 0.735427 0 1.64039 0H34.3596C35.2656 0 36 0.734663 36 1.63068V23.3693C36 24.2699 35.2646 25 34.3596 25H1.64039C0.734428 25 0 24.2653 0 23.3693V1.63068Z" fill="#0742A6"/>
<path fill-rule="evenodd" clip-rule="evenodd" d="M16.3758 16.1652H14.4451L15.6527 8.91951H17.5833L16.3758 16.1652Z" fill="white"/>
<path fill-rule="evenodd" clip-rule="evenodd" d="M23.375 9.09664C22.9941 8.95003 22.3901 8.78816 21.6432 8.78816C19.7366 8.78816 18.3939 9.77476 18.3857 11.1853C18.3698 12.226 19.347 12.804 20.0778 13.151C20.8248 13.5056 21.0787 13.737 21.0787 14.0531C21.0711 14.5385 20.4751 14.7623 19.9192 14.7623C19.1484 14.7623 18.7353 14.6469 18.1077 14.3768L17.8534 14.2611L17.5833 15.8876C18.0361 16.0878 18.8704 16.2654 19.7366 16.2732C21.7624 16.2732 23.0813 15.3019 23.097 13.7987C23.1047 12.9739 22.5887 12.3419 21.4763 11.8254C20.801 11.4939 20.3875 11.2703 20.3875 10.9311C20.3954 10.6227 20.7372 10.3069 21.4995 10.3069C22.1272 10.2914 22.5884 10.4378 22.9377 10.5843L23.1124 10.6613L23.375 9.09664Z" fill="white"/>
<path d="M25.9411 13.5983C26.1001 13.1821 26.7119 11.571 26.7119 11.571C26.7039 11.5865 26.8706 11.1471 26.9659 10.8773L27.1009 11.5017C27.1009 11.5017 27.4665 13.2361 27.5459 13.5983C27.2441 13.5983 26.3224 13.5983 25.9411 13.5983ZM28.3243 8.91951H26.8309C26.3704 8.91951 26.0205 9.05044 25.8218 9.52069L22.9539 16.1651H24.9798C24.9798 16.1651 25.3133 15.2708 25.385 15.0782C25.6072 15.0782 27.578 15.0782 27.8639 15.0782C27.9193 15.3326 28.0943 16.1651 28.0943 16.1651H29.8819L28.3243 8.91951Z" fill="white"/>
<path fill-rule="evenodd" clip-rule="evenodd" d="M12.8324 8.91951L10.9416 13.8604L10.735 12.8583C10.3854 11.7021 9.28907 10.4458 8.06561 9.82118L9.79755 16.1575H11.8393L14.874 8.91951H12.8324Z" fill="white"/>
<path fill-rule="evenodd" clip-rule="evenodd" d="M9.18582 8.91951H6.07945L6.04767 9.06591C8.47084 9.66719 10.0757 11.1166 10.735 12.8586L10.0597 9.52858C9.94854 9.06581 9.60688 8.93478 9.18582 8.91951Z" fill="white"/>
<path fill-rule="evenodd" clip-rule="evenodd" d="M46 1.64032C46 0.734396 46.7354 0 47.6404 0H80.3596C81.2656 0 82 0.72124 82 1.64032V23.3597C82 24.2656 81.2646 25 80.3596 25H47.6404C46.7344 25 46 24.2788 46 23.3597V1.64032Z" fill="#262626"/>
<path d="M66.8149 7.8938H61.086V17.0883H66.8149V7.8938Z" fill="#FF5F00"/>
<path fill-rule="evenodd" clip-rule="evenodd" d="M61.676 12.4919C61.6746 10.698 62.5127 9.00302 63.9488 7.89543C61.5091 6.01138 58.0055 6.28581 55.9004 8.52585C53.7952 10.7659 53.7952 14.2195 55.9004 16.4595C58.0055 18.6996 61.5091 18.974 63.9488 17.09C62.5122 15.982 61.6741 14.2864 61.676 12.4919Z" fill="#EB001B"/>
<path d="M73.0197 16.3492V15.9671H73.1106V15.8881H72.8942V15.9671H72.9797V16.3492H73.0197ZM73.4397 16.3492V15.8881H73.3742L73.2979 16.2174L73.2215 15.8881H73.156V16.3492H73.2033V16.0001L73.2742 16.2998H73.3233L73.3942 16.0001V16.3492H73.4397Z" fill="#F79E1B"/>
<path fill-rule="evenodd" clip-rule="evenodd" d="M73.5769 12.4919C73.5769 14.7306 72.2759 16.7727 70.2267 17.751C68.1775 18.7293 65.7398 18.472 63.9488 17.0883C65.3842 15.9798 66.2224 14.2851 66.2224 12.4911C66.2224 10.6971 65.3842 9.00234 63.9488 7.8938C65.7398 6.51017 68.1775 6.25286 70.2267 7.23115C72.2759 8.20944 73.5769 10.2516 73.5769 12.4903V12.4919Z" fill="#F79E1B"/>
<path fill-rule="evenodd" clip-rule="evenodd" d="M92 1.64032C92 0.734396 92.7354 0 93.6404 0H126.36C127.266 0 128 0.72124 128 1.64032V23.3597C128 24.2656 127.265 25 126.36 25H93.6404C92.7344 25 92 24.2788 92 23.3597V1.64032Z" fill="#016FD0"/>
<path fill-rule="evenodd" clip-rule="evenodd" d="M98.9931 18.9077V13.3311H104.951L105.59 14.1569L106.25 13.3311H127.875V18.5232C127.875 18.5232 127.309 18.9022 126.655 18.9077H114.681L113.961 18.0287V18.9077H111.599V17.4071C111.599 17.4071 111.276 17.6166 110.579 17.6166H109.775V18.9077H106.2L105.561 18.0642L104.913 18.9077H98.9931Z" fill="white"/>
<path fill-rule="evenodd" clip-rule="evenodd" d="M92.0359 9.12799L93.3794 6.02374H95.7028L96.4652 7.76262V6.02374H99.3534L99.8073 7.28055L100.247 6.02374H113.212V6.65558C113.212 6.65558 113.894 6.02374 115.014 6.02374L119.221 6.03831L119.97 7.75443V6.02374H122.387L123.052 7.00951V6.02374H125.491V11.6004H123.052L122.414 10.6114V11.6004H118.863L118.506 10.7213H117.552L117.2 11.6004H114.792C113.828 11.6004 113.212 10.9815 113.212 10.9815V11.6004H109.581L108.861 10.7213V11.6004H95.3586L95.0017 10.7213H94.0501L93.6958 11.6004H92.0359V9.12799Z" fill="white"/>
<path d="M93.8549 6.71123L92.0429 10.8869H93.2226L93.5569 10.0507H95.5006L95.8333 10.8869H97.039L95.2287 6.71123H93.8549ZM94.5253 7.68302L95.1178 9.14415H93.9311L94.5253 7.68302Z" fill="#016FD0"/>
<path fill-rule="evenodd" clip-rule="evenodd" d="M97.1637 10.8862V6.71053L98.8402 6.7167L99.8153 9.40888L100.767 6.71053H102.43V10.8862H101.377V7.80938L100.26 10.8862H99.3366L98.217 7.80938V10.8862H97.1637Z" fill="#016FD0"/>
<path fill-rule="evenodd" clip-rule="evenodd" d="M103.151 10.8862V6.71053H106.588V7.64455H104.215V8.3588H106.532V9.23788H104.215V9.9796H106.588V10.8862H103.151Z" fill="#016FD0"/>
<path d="M107.197 6.71123V10.8869H108.251V9.40341H108.694L109.957 10.8869H111.244L109.858 9.34847C110.427 9.3009 111.014 8.81707 111.014 8.0659C111.014 7.18721 110.318 6.71123 109.541 6.71123H107.197ZM108.251 7.64525H109.455C109.744 7.64525 109.954 7.86916 109.954 8.08479C109.954 8.3622 109.681 8.52433 109.47 8.52433H108.251V7.64525Z" fill="#016FD0"/>
<path fill-rule="evenodd" clip-rule="evenodd" d="M112.519 10.8862H111.444V6.71053H112.519V10.8862Z" fill="#016FD0"/>
<path fill-rule="evenodd" clip-rule="evenodd" d="M115.069 10.8862H114.837C113.714 10.8862 113.032 10.0091 113.032 8.81551C113.032 7.59239 113.706 6.71053 115.125 6.71053H116.289V7.69949H115.082C114.506 7.69949 114.099 8.14484 114.099 8.82581C114.099 9.63447 114.565 9.97411 115.236 9.97411H115.513L115.069 10.8862Z" fill="#016FD0"/>
<path d="M117.361 6.71123L115.549 10.8869H116.729L117.063 10.0507H119.007L119.34 10.8869H120.545L118.735 6.71123H117.361ZM118.032 7.68302L118.624 9.14415H117.437L118.032 7.68302Z" fill="#016FD0"/>
<path fill-rule="evenodd" clip-rule="evenodd" d="M120.668 10.8862V6.71053H122.007L123.717 9.33403V6.71053H124.77V10.8862H123.475L121.722 8.19397V10.8862H120.668Z" fill="#016FD0"/>
<path fill-rule="evenodd" clip-rule="evenodd" d="M99.7137 18.1935V14.0179H103.151V14.9519H100.778V15.6661H103.095V16.5452H100.778V17.2869H103.151V18.1935H99.7137Z" fill="#016FD0"/>
<path fill-rule="evenodd" clip-rule="evenodd" d="M116.555 18.1935V14.0179H119.992V14.9519H117.619V15.6661H119.925V16.5452H117.619V17.2869H119.992V18.1935H116.555Z" fill="#016FD0"/>
<path fill-rule="evenodd" clip-rule="evenodd" d="M103.284 18.1935L104.958 16.1314L103.244 14.0179H104.571L105.592 15.3245L106.615 14.0179H107.89L106.2 16.1057L107.876 18.1935H106.549L105.559 16.9075L104.592 18.1935H103.284Z" fill="#016FD0"/>
<path d="M108.001 14.0186V18.1942H109.082V16.8756H110.191C111.129 16.8756 111.84 16.3823 111.84 15.423C111.84 14.6284 111.282 14.0186 110.328 14.0186H108.001ZM109.082 14.9629H110.25C110.553 14.9629 110.77 15.147 110.77 15.4436C110.77 15.7223 110.554 15.9244 110.246 15.9244H109.082V14.9629Z" fill="#016FD0"/>
<path d="M112.298 14.0179V18.1935H113.351V16.71H113.794L115.057 18.1935H116.344L114.958 16.6551C115.527 16.6075 116.114 16.1237 116.114 15.3725C116.114 14.4938 115.418 14.0179 114.641 14.0179H112.298ZM113.351 14.9519H114.555C114.844 14.9519 115.054 15.1758 115.054 15.3914C115.054 15.6688 114.782 15.831 114.57 15.831H113.351V14.9519Z" fill="#016FD0"/>
<path fill-rule="evenodd" clip-rule="evenodd" d="M120.48 18.1935V17.2869H122.588C122.9 17.2869 123.035 17.1199 123.035 16.9367C123.035 16.7612 122.9 16.5837 122.588 16.5837H121.635C120.807 16.5837 120.346 16.0837 120.346 15.3331C120.346 14.6635 120.768 14.0179 121.999 14.0179H124.05L123.606 14.9574H121.832C121.493 14.9574 121.389 15.1337 121.389 15.3021C121.389 15.4753 121.518 15.6661 121.777 15.6661H122.775C123.698 15.6661 124.098 16.185 124.098 16.8646C124.098 17.5951 123.652 18.1935 122.725 18.1935H120.48Z" fill="#016FD0"/>
<path fill-rule="evenodd" clip-rule="evenodd" d="M124.346 18.1935V17.2869H126.453C126.765 17.2869 126.9 17.1199 126.9 16.9367C126.9 16.7612 126.766 16.5837 126.453 16.5837H125.501C124.673 16.5837 124.212 16.0837 124.212 15.3331C124.212 14.6635 124.634 14.0179 125.864 14.0179H127.916L127.472 14.9574H125.698C125.359 14.9574 125.255 15.1337 125.255 15.3021C125.255 15.4753 125.384 15.6661 125.643 15.6661H126.641C127.564 15.6661 127.964 16.185 127.964 16.8646C127.964 17.5951 127.518 18.1935 126.59 18.1935H124.346Z" fill="#016FD0"/>
</svg>
