<?xml version="1.0" encoding="UTF-8"?>
<svg width="43px" height="30px" viewBox="0 0 43 30" version="1.1" xmlns="http://www.w3.org/2000/svg" xmlns:xlink="http://www.w3.org/1999/xlink">
    <!-- Generator: sketchtool 63.1 (101010) - https://sketch.com -->
    <title>CD9B8389-59BE-4D69-8DD3-5BDD83A8181D</title>
    <desc>Created with sketchtool.</desc>
    <g id="Full_Experience_Phase2" stroke="none" stroke-width="1" fill="none" fill-rule="evenodd">
        <g id="01" transform="translate(-1083.000000, -4816.000000)">
            <g id="Footer/Desktop" transform="translate(0.000000, 4349.000000)">
                <g id="Stacked-Group-2" transform="translate(1083.000000, 467.000000)">
                    <g id="color/Visa">
                        <g id="Visa">
                            <path d="M0,1.95681141 C0,0.876094308 0.878426587,0 1.9593569,0 L41.0406431,0 C42.122766,0 43,0.881596003 43,1.95681141 L43,28.0431886 C43,29.1239057 42.1215734,30 41.0406431,30 L1.9593569,30 C0.877233967,30 0,29.118404 0,28.0431886 L0,1.95681141 Z" id="Rectangle-Copy-4" fill="#0742A6"></path>
                            <g id="Visa_Inc._logo" transform="translate(7.166667, 10.434783)" fill="#FFFFFF">
                                <polygon id="polygon9" points="12.3933453 8.96347293 10.0871807 8.96347293 11.5296213 0.268615107 13.8356598 0.268615107"></polygon>
                                <path d="M20.7533969,0.481179571 C20.2985199,0.305251434 19.5770474,0.111005134 18.6849487,0.111005134 C16.4075371,0.111005134 14.8038025,1.29492404 14.7939659,2.98757155 C14.7750495,4.23640315 15.942193,4.93003456 16.815123,5.3464347 C17.7073478,5.77193245 18.0106412,6.04965548 18.0106412,6.42892753 C18.0015613,7.01142055 17.2896731,7.27992303 16.6257065,7.27992303 C15.704981,7.27992303 15.2116406,7.14149181 14.4619196,6.81742013 L14.1582479,6.67849715 L13.8355337,8.63030364 C14.3764173,8.87052976 15.3729347,9.08370893 16.4075371,9.09305243 C18.8273264,9.09305243 20.4026863,7.92745168 20.4213505,6.12366578 C20.4305565,5.13387023 19.8142594,4.37544908 18.4855696,3.75570502 C17.6789732,3.35786893 17.1850022,3.08961233 17.1850022,2.68255568 C17.1944604,2.31250419 17.602803,1.93347802 18.5133137,1.93347802 C19.2630347,1.91491397 19.813881,2.09059623 20.2311774,2.26640143 L20.4397625,2.35872989 L20.7533969,0.481179571 L20.7533969,0.481179571 L20.7533969,0.481179571 Z" id="path11"></path>
                                <path d="M23.8184885,5.88319378 C24.0084094,5.38368573 24.739214,3.45044327 24.739214,3.45044327 C24.7296297,3.46900732 24.9287566,2.94171467 25.0426335,2.61801182 L25.2038015,3.36721242 C25.2038015,3.36721242 25.6405187,5.44847548 25.735353,5.88319378 C25.3749321,5.88319378 24.273996,5.88319378 23.8184885,5.88319378 L23.8184885,5.88319378 Z M26.6651584,0.268615107 L24.8813394,0.268615107 C24.3312498,0.268615107 23.9133228,0.425733317 23.6759848,0.990031114 L20.2504722,8.96334999 L22.6702614,8.96334999 C22.6702614,8.96334999 23.0686414,7.89020065 23.1542697,7.65907214 C23.4197302,7.65907214 25.7736903,7.65907214 26.1151949,7.65907214 C26.1814024,7.96433389 26.3903658,8.96334999 26.3903658,8.96334999 L28.525652,8.96334999 L26.6651584,0.268615107 L26.6651584,0.268615107 L26.6651584,0.268615107 Z" id="path13" fill-rule="nonzero"></path>
                                <path d="M8.16098408,0.268615107 L5.90248889,6.19767608 L5.65569258,4.99519313 C5.23814399,3.60768443 3.92862285,2.1001856 2.46726586,1.35061618 L4.53596625,8.95425238 L6.97467193,8.95425238 L10.5995637,0.268615107 L8.16098408,0.268615107 L8.16098408,0.268615107 L8.16098408,0.268615107 Z" id="path15"></path>
                                <path d="M3.80528775,0.268615107 L0.0948937781,0.268615107 L0.0569348159,0.444297362 C2.95127416,1.16583631 4.86813869,2.90507834 5.65569258,4.99556195 L4.84909616,0.999497548 C4.71630284,0.444174422 4.30821247,0.286933271 3.80528775,0.268615107 L3.80528775,0.268615107 Z" id="path17"></path>
                            </g>
                        </g>
                    </g>
                </g>
            </g>
        </g>
    </g>
</svg>