<svg width="16" height="16" viewBox="0 0 16 16" fill="none" xmlns="http://www.w3.org/2000/svg">
<path fill-rule="evenodd" clip-rule="evenodd" d="M14.4303 14.5476C14.1565 13.5556 13.4936 12.6017 12.523 11.8057C11.2245 10.7406 9.53509 10.101 7.99992 10.101C6.46475 10.101 4.77543 10.7406 3.4769 11.8057C2.50633 12.6017 1.84352 13.5556 1.56973 14.5476H14.4303ZM6.12194 8.88838C2.94397 9.68477 0 12.3736 0 15.5676C0 15.8057 0.194197 16 0.42522 16H15.5748C15.8092 16 16 15.8041 16 15.5676C16 12.3737 13.056 9.68488 9.8781 8.88843C9.25428 8.73209 8.62144 8.64866 8.00008 8.64865C8.00003 8.64865 7.99997 8.64865 7.99992 8.64865C7.37857 8.64865 6.74575 8.73206 6.12194 8.88838ZM6.26663 7.36924C6.7878 7.63439 7.37665 7.78376 7.99992 7.78378C7.99997 7.78378 8.00003 7.78378 8.00008 7.78378C8.62338 7.78378 9.21225 7.63443 9.73344 7.36928C10.9929 6.72856 11.8572 5.41164 11.8572 3.89189C11.8572 1.74322 10.1295 0 8.00008 0C5.87062 0 4.14299 1.74322 4.14299 3.89189C4.14299 5.41161 5.00723 6.7285 6.26663 7.36924ZM5.57156 3.89189C5.57156 5.22812 6.64941 6.3314 8.00008 6.3314C9.35075 6.3314 10.4286 5.22812 10.4286 3.89189C10.4286 2.55567 9.35075 1.45238 8.00008 1.45238C6.64941 1.45238 5.57156 2.55567 5.57156 3.89189Z" fill="black"/>
</svg>
