<?xml version="1.0" encoding="UTF-8"?>
<svg width="28px" height="24px" viewBox="0 0 28 24" version="1.1" xmlns="http://www.w3.org/2000/svg" xmlns:xlink="http://www.w3.org/1999/xlink">
    <!-- Generator: sketchtool 58 (101010) - https://sketch.com -->
    <title>1515FF75-709B-4B7D-9471-5E4A847E630A</title>
    <desc>Created with sketchtool.</desc>
    <g id="PDP" stroke="none" stroke-width="1" fill="none" fill-rule="evenodd">
        <g id="D04" transform="translate(-1230.000000, -779.000000)">
            <g id="Stacked-Group-2" transform="translate(869.000000, 274.000000)">
                <g id="Stacked-Group-3" transform="translate(0.000000, 258.000000)">
                    <g id="Group-4" transform="translate(0.000000, 236.000000)">
                        <g id="Icons/FavoriteFilled" transform="translate(360.000000, 8.000000)">
                            <g id="round-favorite-24px" transform="translate(1.800000, 3.000000)">
                                <polygon id="Path" points="6 4.8 20.4 4.8 20.4 19.2 6 19.2"></polygon>
                                <path d="M15.3214294,23.2978849 C14.2958238,24.2362928 12.7169309,24.2362928 11.6913253,23.2842848 L11.5428824,23.1482837 C4.45810667,16.6882295 -0.170613469,12.4585941 0.00481907233,7.18174985 C0.0857879377,4.86973047 1.25983648,2.65291189 3.16260482,1.34730094 C6.72523489,-1.10071958 11.1245432,0.0416899968 13.49963,2.84331348 C15.8747167,0.0416899968 20.274025,-1.11431969 23.8366551,1.34730094 C25.7394234,2.65291189 26.913472,4.86973047 26.9944408,7.18174985 C27.1833682,12.4585941 22.5411533,16.6882295 15.4563775,23.1754839 L15.3214294,23.2978849 Z" id="Path" fill="#000000" fill-rule="nonzero"></path>
                            </g>
                        </g>
                    </g>
                </g>
            </g>
        </g>
    </g>
</svg>