<?xml version="1.0" encoding="UTF-8"?>
<svg width="27px" height="25px" viewBox="0 0 27 25" version="1.1" xmlns="http://www.w3.org/2000/svg" xmlns:xlink="http://www.w3.org/1999/xlink">
    <!-- Generator: sketchtool 57.1 (101010) - https://sketch.com -->
    <title>88443521-80F9-4F44-AF52-9CB29EF365AD</title>
    <desc>Created with sketchtool.</desc>
    <g id="PDP" stroke="none" stroke-width="1" fill="none" fill-rule="evenodd">
        <g id="M03" transform="translate(-337.000000, -1102.000000)">
            <g id="Group-9" transform="translate(0.000000, 831.000000)">
                <g id="Stacked-Group-4" transform="translate(10.000000, 30.000000)">
                    <g id="Stacked-Group" transform="translate(0.000000, 230.000000)">
                        <g id="Icons/Favorite" transform="translate(326.000000, 8.000000)">
                            <g id="outline-favorite_border-24px">
                                <polygon id="Path" points="0 0 29 0 29 30 0 30"></polygon>
                                <path d="M20.6625,3 C18.3918,3 16.21245,4.08588556 14.79,5.80185286 C13.36755,4.08588556 11.1882,3 8.9175,3 C4.8981,3 1.74,6.24425068 1.74,10.373297 C1.74,15.4407629 6.177,19.5698093 12.89775,25.8438147 L14.79,27.6 L16.68225,25.8304087 C23.403,19.5698093 27.84,15.4407629 27.84,10.373297 C27.84,6.24425068 24.6819,3 20.6625,3 Z M14.9205,23.8463217 L14.79,23.9803817 L14.6595,23.8463217 C8.4477,18.068338 4.35,14.2476295 4.35,10.373297 C4.35,7.69209801 6.3075,5.68119879 8.9175,5.68119879 C10.9272,5.68119879 12.8847,7.00839227 13.57635,8.84501356 L16.0167,8.84501356 C16.6953,7.00839227 18.6528,5.68119879 20.6625,5.68119879 C23.2725,5.68119879 25.23,7.69209801 25.23,10.373297 C25.23,14.2476295 21.1323,18.068338 14.9205,23.8463217 Z" id="Shape" fill="#000000" fill-rule="nonzero"></path>
                            </g>
                        </g>
                    </g>
                </g>
            </g>
        </g>
    </g>
</svg>