<?xml version="1.0" encoding="utf-8"?>
<!-- Generator: Adobe Illustrator 24.0.1, SVG Export Plug-In . SVG Version: 6.00 Build 0)  -->
<svg version="1.1" id="Layer_1" xmlns="http://www.w3.org/2000/svg" xmlns:xlink="http://www.w3.org/1999/xlink" x="0px" y="0px"
	 viewBox="0 0 43 43" style="enable-background:new 0 0 43 43;" xml:space="preserve">
<style type="text/css">
	.st0{fill:#68696B;}
</style>
<g>
	<g>
		<g>
			<path class="st0" d="M21.38,41.46c-0.1,0-0.2-0.02-0.29-0.07L3.03,31.61c-0.2-0.11-0.32-0.31-0.32-0.54V11.74
				c0-0.21,0.11-0.41,0.3-0.52c0.18-0.11,0.41-0.12,0.6-0.01l18.06,9.78c0.2,0.11,0.32,0.31,0.32,0.54v19.34
				c0,0.21-0.11,0.41-0.3,0.52C21.6,41.43,21.49,41.46,21.38,41.46z M3.93,30.71l16.84,9.12V21.88L3.93,12.76V30.71z"/>
		</g>
		<g>
			<path class="st0" d="M21.38,41.46c-0.11,0-0.22-0.03-0.31-0.09c-0.18-0.11-0.3-0.31-0.3-0.52V21.51c0-0.22,0.12-0.43,0.32-0.54
				l18.06-9.78c0.19-0.1,0.42-0.1,0.6,0.01c0.18,0.11,0.3,0.31,0.3,0.52v19.34c0,0.22-0.12,0.43-0.32,0.54l-18.06,9.78
				C21.58,41.43,21.48,41.46,21.38,41.46z M21.99,21.88v17.95l16.84-9.12V12.76L21.99,21.88z"/>
		</g>
	</g>
	<g>
		<path class="st0" d="M21.38,22.12c-0.1,0-0.2-0.02-0.29-0.07L3.03,12.27c-0.2-0.11-0.32-0.31-0.32-0.54
			c0-0.22,0.13-0.43,0.32-0.54L21.3,1.53c0.18-0.1,0.4-0.09,0.58,0l17.85,9.67c0.2,0.11,0.32,0.31,0.32,0.54
			c0,0.22-0.12,0.43-0.32,0.54l-18.05,9.78C21.58,22.1,21.48,22.12,21.38,22.12z M4.62,11.74l16.76,9.08l16.78-9.09L21.58,2.76
			L4.62,11.74z"/>
	</g>
	<g>
		<g>
			<polygon class="st0" points="14.04,23.09 10.83,21.37 10.83,15.7 28.61,5.57 31.96,7.39 14.04,17.57 			"/>
		</g>
	</g>
</g>
</svg>
