<?xml version="1.0" encoding="UTF-8"?>
<svg width="16px" height="20px" viewBox="0 0 16 20" version="1.1" xmlns="http://www.w3.org/2000/svg" xmlns:xlink="http://www.w3.org/1999/xlink">
    <!-- Generator: sketchtool 56.3 (101010) - https://sketch.com -->
    <title>B2199D21-FA27-4A9C-A6A3-49FFDCADE7F3</title>
    <desc>Created with sketchtool.</desc>
    <g id="Navigation_New_Taxonomy" stroke="none" stroke-width="1" fill="none" fill-rule="evenodd">
        <g id="07A" transform="translate(-1397.000000, -59.000000)">
            <g id="Group" transform="translate(-0.444444, 39.000000)">
                <g id="Header/Desktop">
                    <g id="Stacked-Group-2">
                        <g transform="translate(1305.000000, 20.000000)">
                            <g id="Icons/ShoppingBag/White" transform="translate(90.000000, 0.000000)">
                                <g id="Shopping_Bag_Icon" transform="translate(1.200000, 0.800000)">
                                    <rect id="Rectangle" fill-opacity="0" fill="#D8D8D8" x="0" y="0.4" width="18" height="18"></rect>
                                    <g id="Group-13-Copy-2" transform="translate(1.400000, 0.000000)" fill="#FFFFFF" fill-rule="nonzero">
                                        <path d="M0.595000029,4.8 L14.405,4.8 C14.7336094,4.8 15,5.06639059 15,5.39500003 L15,17.705 C15,18.0336094 14.7336094,18.3 14.405,18.3 L0.595000029,18.3 C0.266390587,18.3 0,18.0336094 0,17.705 L0,5.39500003 C0,5.06639059 0.266390587,4.8 0.595000029,4.8 Z M1.6,6.4 L1.6,16.7 L13.4,16.7 L13.4,6.4 L1.6,6.4 Z" id="Rectangle"></path>
                                        <path d="M4.86554463,8.43613479 C5.0770427,3.75847936 6.06357525,1.60000001 7.53993963,1.60000001 C9.0150676,1.60000001 9.99623248,3.7573181 10.1972158,8.43434633 C10.2161848,8.87576675 10.5894041,9.21823136 11.0308245,9.19926244 C11.4722449,9.18029353 11.8147095,8.80707422 11.7957405,8.3656538 C11.5612697,2.90934862 10.2380756,0 7.53993963,0 C4.84304011,0 3.51385366,2.90818736 3.26717765,8.36386535 C3.247221,8.80524221 3.58884957,9.17922693 4.03022642,9.19918358 C4.47160327,9.21914024 4.84558797,8.87751166 4.86554463,8.43613479 Z" id="Path-7"></path>
                                    </g>
                                </g>
                            </g>
                        </g>
                    </g>
                </g>
            </g>
        </g>
    </g>
</svg>