<svg width="20" height="20" viewBox="0 0 20 20" fill="none" xmlns="http://www.w3.org/2000/svg">
<g id="Enter Icon">
<g id="Vector">
<path fill-rule="evenodd" clip-rule="evenodd" d="M12.6793 9.35049L10.4027 7.03432L11.1158 6.33333L14.5729 9.85049L11.1158 13.3677L10.4027 12.6667L12.6793 10.3505H5.33333V9.35049H12.6793Z" fill="white"/>
<path fill-rule="evenodd" clip-rule="evenodd" d="M10 19C14.9706 19 19 14.9706 19 10C19 5.02944 14.9706 1 10 1C5.02944 1 1 5.02944 1 10C1 14.9706 5.02944 19 10 19ZM10 20C15.5228 20 20 15.5228 20 10C20 4.47715 15.5228 0 10 0C4.47715 0 0 4.47715 0 10C0 15.5228 4.47715 20 10 20Z" fill="white"/>
</g>
</g>
</svg>
