<?xml version="1.0" encoding="UTF-8"?>
<svg width="19px" height="17px" viewBox="0 0 19 17" version="1.1" xmlns="http://www.w3.org/2000/svg" xmlns:xlink="http://www.w3.org/1999/xlink">
    <!-- Generator: sketchtool 56.3 (101010) - https://sketch.com -->
    <title>A5CF7B5B-B1A8-4074-B8EF-938E6197A4FB</title>
    <desc>Created with sketchtool.</desc>
    <g id="Navigation_New_Taxonomy" stroke="none" stroke-width="1" fill="none" fill-rule="evenodd">
        <g id="03" transform="translate(-26.000000, -472.000000)">
            <g id="Group-6" transform="translate(0.000000, -5.000000)">
                <g id="Stacked-Group" transform="translate(25.000000, 393.000000)">
                    <g id="Group-9" transform="translate(0.000000, 82.000000)">
                        <g id="Icons/Favorite">
                            <g id="outline-favorite_border-24px">
                                <polygon id="Path" points="0 0 20 0 20 20 0 20"></polygon>
                                <path d="M14.25,2 C12.684,2 11.181,2.72392371 10.2,3.86790191 C9.219,2.72392371 7.716,2 6.15,2 C3.378,2 1.2,4.16283379 1.2,6.91553134 C1.2,10.293842 4.26,13.0465395 8.895,17.2292098 L10.2,18.4 L11.505,17.2202725 C16.14,13.0465395 19.2,10.293842 19.2,6.91553134 C19.2,4.16283379 17.022,2 14.25,2 Z M10.29,15.8975478 L10.2,15.9869211 L10.11,15.8975478 C5.826,12.0455587 3,9.49841964 3,6.91553131 C3,5.12806534 4.35,3.78746586 6.15,3.78746586 C7.536,3.78746586 8.886,4.67226151 9.363,5.89667571 L11.046,5.89667571 C11.514,4.67226151 12.864,3.78746586 14.25,3.78746586 C16.05,3.78746586 17.4,5.12806534 17.4,6.91553131 C17.4,9.49841964 14.574,12.0455587 10.29,15.8975478 Z" id="Shape" fill="#000000" fill-rule="nonzero"></path>
                            </g>
                        </g>
                    </g>
                </g>
            </g>
        </g>
    </g>
</svg>