<svg width="24" height="24" viewBox="0 0 24 24" fill="none" xmlns="http://www.w3.org/2000/svg">
<g id="Symbols/lock">
<g id="Vector">
<path fill-rule="evenodd" clip-rule="evenodd" d="M4.42883 9.81818H18.9743V20H4.42883V9.81818ZM5.88338 11.2727V18.5455H17.5197V11.2727H5.88338Z" fill="black"/>
<path fill-rule="evenodd" clip-rule="evenodd" d="M11.7016 5.45455C11.1491 5.45455 10.6016 5.69771 10.1851 6.16052C9.7663 6.62585 9.51974 7.27193 9.51974 7.9596V11.2727H8.0652V7.9596C8.0652 6.93273 8.43162 5.9345 9.10395 5.18748C9.77854 4.43793 10.7109 4 11.7016 4C12.6922 4 13.6246 4.43793 14.2992 5.18748C14.9715 5.9345 15.3379 6.93273 15.3379 7.9596V11.2727H13.8834V7.9596C13.8834 7.27193 13.6368 6.62585 13.218 6.16052C12.8015 5.69771 12.254 5.45455 11.7016 5.45455Z" fill="black"/>
</g>
</g>
</svg>
