<?xml version="1.0" encoding="UTF-8"?>
<svg width="19px" height="12px" viewBox="0 0 19 12" version="1.1" xmlns="http://www.w3.org/2000/svg" xmlns:xlink="http://www.w3.org/1999/xlink">
    <!-- Generator: sketchtool 56.3 (101010) - https://sketch.com -->
    <title>240B6A97-BDB8-47EF-8A6A-0B63BEB806D5</title>
    <desc>Created with sketchtool.</desc>
    <g id="Navigation_New_Taxonomy" stroke="none" stroke-width="1" fill="none" fill-rule="evenodd">
        <g id="02" transform="translate(-11.000000, -17.000000)">
            <g id="Header/Mobile/White">
                <g id="Stacked-Group">
                    <g transform="translate(10.000000, 13.000000)">
                        <g id="Icons/Menu/Black">
                            <g id="round-menu-24px">
                                <polygon id="Path" points="0 0 20 0 20 20 0 20"></polygon>
                                <path d="M2.2,16 L18.2,16 C18.75,16 19.2,15.55 19.2,15 C19.2,14.45 18.75,14 18.2,14 L2.2,14 C1.65,14 1.2,14.45 1.2,15 C1.2,15.55 1.65,16 2.2,16 Z M2.2,11 L18.2,11 C18.75,11 19.2,10.55 19.2,10 C19.2,9.45 18.75,9 18.2,9 L2.2,9 C1.65,9 1.2,9.45 1.2,10 C1.2,10.55 1.65,11 2.2,11 Z M1.2,5 C1.2,5.55 1.65,6 2.2,6 L18.2,6 C18.75,6 19.2,5.55 19.2,5 C19.2,4.45 18.75,4 18.2,4 L2.2,4 C1.65,4 1.2,4.45 1.2,5 Z" id="Shape" fill="#000000" fill-rule="nonzero"></path>
                            </g>
                        </g>
                    </g>
                </g>
            </g>
        </g>
    </g>
</svg>