<svg width="16" height="16" viewBox="0 0 16 16" fill="none" xmlns="http://www.w3.org/2000/svg">
<path fill-rule="evenodd" clip-rule="evenodd" d="M11.4647 12.6013C10.2565 13.5764 8.72157 14.1598 7.0509 14.1598C3.1568 14.1598 0 10.99 0 7.07991C0 3.16978 3.1568 0 7.0509 0C10.945 0 14.1018 3.16978 14.1018 7.07991C14.1018 8.72379 13.5438 10.2368 12.6077 11.4385L15.7617 14.6054C16.0794 14.9245 16.0794 15.4417 15.7617 15.7607C15.444 16.0798 14.9289 16.0798 14.6112 15.7607L11.4647 12.6013ZM12.4747 7.07991C12.4747 10.0877 10.0464 12.526 7.0509 12.526C4.05544 12.526 1.62713 10.0877 1.62713 7.07991C1.62713 4.07212 4.05544 1.63383 7.0509 1.63383C10.0464 1.63383 12.4747 4.07212 12.4747 7.07991Z" fill="black"/>
</svg>
