<?xml version="1.0" encoding="UTF-8"?>
<svg width="19px" height="19px" viewBox="0 0 19 19" version="1.1" xmlns="http://www.w3.org/2000/svg" xmlns:xlink="http://www.w3.org/1999/xlink">
    <!-- Generator: sketchtool 56.3 (101010) - https://sketch.com -->
    <title>41650787-3B99-4D5C-B641-6F9ACF5747F1</title>
    <desc>Created with sketchtool.</desc>
    <g id="Navigation_New_Taxonomy" stroke="none" stroke-width="1" fill="none" fill-rule="evenodd">
        <g id="08-(1)" transform="translate(-1306.000000, -21.000000)">
            <g id="Header/Desktop">
                <g id="Stacked-Group-2">
                    <g transform="translate(1305.000000, 20.000000)">
                        <g id="Icons/Search/Black">
                            <g id="round-search-24px">
                                <polygon id="Path" points="0 0 20 0 20 20 0 20"></polygon>
                                <path d="M14.3985924,12.8080316 L13.5644831,12.8080316 L13.2688494,12.5231234 C14.5358509,11.0458216 15.1904683,9.03035979 14.8314846,6.88827215 C14.3352423,3.95477282 11.8857062,1.61219421 8.92936942,1.25342091 C4.46318928,0.70470881 0.704418285,4.4612763 1.25345225,8.92483823 C1.612436,11.8794419 3.9563887,14.327542 6.89160874,14.8234934 C9.03495288,15.1822667 11.0515969,14.528033 12.5297652,13.2617743 L12.8148406,13.5572347 L12.8148406,14.390855 L17.3021374,18.8755212 C17.7350296,19.3081596 18.4424387,19.3081596 18.8753309,18.8755212 C19.308223,18.4428828 19.308223,17.7358884 18.8753309,17.30325 L14.3985924,12.8080316 Z M8.06358509,12.8080318 C5.43455709,12.8080318 3.31232967,10.6870484 3.31232967,8.05956154 C3.31232967,5.43207464 5.43455709,3.31109123 8.06358509,3.31109123 C10.6926131,3.31109123 12.8148405,5.43207464 12.8148405,8.05956154 C12.8148405,10.6870484 10.6926131,12.8080318 8.06358509,12.8080318 Z" id="Shape" fill="#000000" fill-rule="nonzero"></path>
                            </g>
                        </g>
                    </g>
                </g>
            </g>
        </g>
    </g>
</svg>