<?xml version="1.0" encoding="UTF-8"?>
<svg width="19px" height="19px" viewBox="0 0 19 19" version="1.1" xmlns="http://www.w3.org/2000/svg" xmlns:xlink="http://www.w3.org/1999/xlink">
    <!-- Generator: sketchtool 56.3 (101010) - https://sketch.com -->
    <title>711B3012-6192-4B9A-9E28-D7EE7107698E</title>
    <desc>Created with sketchtool.</desc>
    <g id="Navigation_New_Taxonomy" stroke="none" stroke-width="1" fill="none" fill-rule="evenodd">
        <g id="07A" transform="translate(-1305.000000, -59.000000)">
            <g id="Group" transform="translate(-0.444444, 39.000000)">
                <g id="Header/Desktop">
                    <g id="Stacked-Group-2">
                        <g transform="translate(1305.000000, 20.000000)">
                            <g id="Icons/Search/White">
                                <g id="round-search-24px">
                                    <polygon id="Path" points="0 0 20 0 20 20 0 20"></polygon>
                                    <path d="M13.9985924,12.4080316 L13.1644831,12.4080316 L12.8688494,12.1231234 C14.1358509,10.6458216 14.7904683,8.63035979 14.4314846,6.48827215 C13.9352423,3.55477282 11.4857062,1.21219421 8.52936942,0.853420915 C4.06318928,0.30470881 0.304418285,4.0612763 0.85345225,8.52483823 C1.212436,11.4794419 3.5563887,13.927542 6.49160874,14.4234934 C8.63495288,14.7822667 10.6515969,14.128033 12.1297652,12.8617743 L12.4148406,13.1572347 L12.4148406,13.990855 L16.9021374,18.4755212 C17.3350296,18.9081596 18.0424387,18.9081596 18.4753309,18.4755212 C18.908223,18.0428828 18.908223,17.3358884 18.4753309,16.90325 L13.9985924,12.4080316 Z M7.66358509,12.4080318 C5.03455709,12.4080318 2.91232967,10.2870484 2.91232967,7.65956154 C2.91232967,5.03207464 5.03455709,2.91109123 7.66358509,2.91109123 C10.2926131,2.91109123 12.4148405,5.03207464 12.4148405,7.65956154 C12.4148405,10.2870484 10.2926131,12.4080318 7.66358509,12.4080318 Z" id="Shape" fill="#FFFFFF" fill-rule="nonzero"></path>
                                </g>
                            </g>
                        </g>
                    </g>
                </g>
            </g>
        </g>
    </g>
</svg>