<svg width="23" height="23" viewBox="0 0 23 23" fill="none" xmlns="http://www.w3.org/2000/svg">
<path d="M13.1284 1.20504C14.1924 0.125028 15.3424 -0.00808839 16.144 0.44428C16.9541 0.90146 17.2928 1.82711 16.7235 3.14244C16.4423 3.79199 15.8041 4.27209 14.8087 4.58275L22.6781 4.58366V8.63068L22.1135 8.63014L22.1135 22.1514H1.0351L1.03487 8.63014L0 8.63068V4.58366L8.21408 4.58352C7.21726 4.27289 6.57816 3.79253 6.29678 3.14244C5.72747 1.82711 6.06614 0.90146 6.87627 0.44428C7.67787 -0.00808839 8.82786 0.125028 9.89186 1.20504L9.92579 1.23983C10.3865 1.71707 11.0291 2.43148 11.5111 3.34517C11.9911 2.43148 12.6337 1.71707 13.0945 1.23983L13.1284 1.20504ZM9.31507 9.36557L2.30177 9.3665V20.9133H9.31507V9.36557ZM12.7351 9.36557H10.2017V20.9133H12.7351V9.36557ZM20.7961 9.3665L13.5495 9.36557V20.9133H20.7961V9.3665ZM9.31507 5.8209L1.26667 5.82176V7.98842L9.31507 7.98757V5.8209ZM12.7359 6.09769H10.2026L10.2017 7.98757H12.7351L12.7359 6.09769ZM21.3607 5.82176L13.5495 5.8209V7.98757L21.3607 7.98842V5.82176ZM7.55179 1.46905C7.15299 1.6941 7.05455 2.15106 7.37675 2.87849C7.66332 3.52548 8.6849 3.95293 10.4842 4.06876L10.539 4.07217C10.5347 4.04074 10.5293 4.01792 10.5239 4.00428C10.2432 3.29213 9.80826 2.68986 9.18857 2.02786C8.5876 1.38584 7.97849 1.22825 7.55179 1.46905ZM15.4685 1.46905C15.0418 1.22825 14.4327 1.38584 13.8317 2.02786C13.212 2.68986 12.7771 3.29213 12.4963 4.00428C12.4909 4.01792 12.4855 4.04074 12.4813 4.07217L12.536 4.06876C14.3354 3.95293 15.3569 3.52548 15.6435 2.87849C15.9657 2.15106 15.8673 1.6941 15.4685 1.46905Z" fill="black"/>
</svg>
