<?xml version="1.0" encoding="utf-8"?>
<!-- Generator: Adobe Illustrator 24.0.1, SVG Export Plug-In . SVG Version: 6.00 Build 0)  -->
<svg version="1.1" id="Layer_1" xmlns="http://www.w3.org/2000/svg" xmlns:xlink="http://www.w3.org/1999/xlink" x="0px" y="0px"
	 viewBox="0 0 43 43" style="enable-background:new 0 0 43 43;" xml:space="preserve">
<style type="text/css">
	.st0{fill:#68696B;}
</style>
<g>
	<g>
		<path class="st0" d="M21.5,41.5c-4.27,0-8.32-1.32-11.75-3.82l-5.29,2.5c-0.23,0.11-0.51,0.07-0.7-0.1
			c-0.19-0.17-0.27-0.44-0.18-0.69l1.97-5.85C2.9,30.05,1.5,25.9,1.5,21.5c0-11.03,8.97-20,20-20s20,8.97,20,20
			C41.5,32.53,32.53,41.5,21.5,41.5z M9.82,36.29c0.14,0,0.28,0.04,0.39,0.13c3.27,2.48,7.18,3.79,11.29,3.79
			c10.32,0,18.71-8.39,18.71-18.71c0-10.32-8.39-18.71-18.71-18.71S2.79,11.18,2.79,21.5c0,4.22,1.38,8.21,3.98,11.53
			c0.13,0.17,0.17,0.4,0.1,0.6l-1.6,4.73l4.26-2.02C9.63,36.31,9.73,36.29,9.82,36.29z"/>
	</g>
	<g>
		<g>
			<g>
				<path class="st0" d="M12.31,27.43L12.31,27.43c-0.91,0.07-1.71-0.55-1.79-1.39l-0.68-7.17c-0.08-0.84,0.59-1.58,1.5-1.66h0
					c0.91-0.07,1.71,0.55,1.79,1.39l0.68,7.17C13.9,26.61,13.22,27.35,12.31,27.43z"/>
			</g>
			<g>
				<path class="st0" d="M30.69,27.43L30.69,27.43c-0.91-0.07-1.58-0.82-1.5-1.66l0.68-7.17c0.08-0.84,0.88-1.46,1.79-1.39h0
					c0.91,0.07,1.58,0.82,1.5,1.66l-0.68,7.17C32.4,26.88,31.6,27.5,30.69,27.43z"/>
			</g>
		</g>
		<g>
			<path class="st0" d="M19.65,31.7c-5.65,0-8.76-3.33-8.76-9.38c0-2.87,1.12-5.86,3.08-8.21c2.08-2.5,4.75-3.87,7.52-3.87
				c2.77,0,5.44,1.38,7.52,3.87c1.96,2.35,3.08,5.34,3.08,8.21h-0.86c0-5.19-4.26-11.22-9.74-11.22s-9.74,6.03-9.74,11.22
				c0,5.58,2.73,8.52,7.9,8.52V31.7z"/>
		</g>
		<g>
			<circle class="st0" cx="19.67" cy="31.3" r="1.04"/>
		</g>
	</g>
</g>
</svg>
