<?xml version="1.0" encoding="UTF-8"?>
<svg width="19px" height="19px" viewBox="0 0 19 19" version="1.1" xmlns="http://www.w3.org/2000/svg" xmlns:xlink="http://www.w3.org/1999/xlink">
    <!-- Generator: sketchtool 57.1 (101010) - https://sketch.com -->
    <title>3C295A70-B01F-4A2E-A741-46C5B729FB1D</title>
    <desc>Created with sketchtool.</desc>
    <g id="Navigation_New_Taxonomy" stroke="none" stroke-width="1" fill="none" fill-rule="evenodd">
        <g id="08-(1)" transform="translate(-1351.000000, -21.000000)">
            <g id="Header/Desktop">
                <g id="Stacked-Group-2">
                    <g transform="translate(1305.000000, 20.000000)">
                        <g id="Icons/Account/White" transform="translate(45.000000, 0.000000)">
                            <g id="round-person-24px-copy">
                                <polygon id="Path" points="0 0 20 0 20 20 0 20"></polygon>
                                <path d="M10.2,10.2 C12.68625,10.2 14.7,8.18625 14.7,5.7 C14.7,3.21375 12.68625,1.2 10.2,1.2 C7.71375,1.2 5.7,3.21375 5.7,5.7 C5.7,8.18625 7.71375,10.2 10.2,10.2 Z M10.2,12.45 C7.19625,12.45 1.2,13.9575 1.2,16.95 L1.2,18.075 C1.2,18.69375 1.70625,19.2 2.325,19.2 L18.075,19.2 C18.69375,19.2 19.2,18.69375 19.2,18.075 L19.2,16.95 C19.2,13.9575 13.20375,12.45 10.2,12.45 Z" id="Shape" fill="#000000" fill-rule="nonzero"></path>
                            </g>
                        </g>
                    </g>
                </g>
            </g>
        </g>
    </g>
</svg>