<?xml version="1.0" encoding="UTF-8"?>
<svg width="19px" height="20px" viewBox="0 0 19 20" version="1.1" xmlns="http://www.w3.org/2000/svg" xmlns:xlink="http://www.w3.org/1999/xlink">
    <title>icons8-gift-box@1x</title>
    <g id="Cart_July2022" stroke="none" stroke-width="1" fill="none" fill-rule="evenodd">
        <g id="03OB_Mobile" transform="translate(-136.000000, -431.000000)" fill="#000000" fill-rule="nonzero">
            <g id="Stacked-Group" transform="translate(136.000000, 429.000000)">
                <g id="icons8-gift-box" transform="translate(0.000000, 2.000000)">
                    <path d="M13.7028556,6.06936392e-05 C13.5842078,0.00211095811 13.467505,0.0497009035 13.3819229,0.14500488 C12.806189,0.764480728 10.9856251,1.98767248 9.02501776,2.97248024 C8.77605176,2.21004843 8.30911897,1.55868053 7.6555832,1.09804465 C5.77277777,-0.22032703 3.9678349,0.160764775 2.97197087,0.891428611 C2.00722759,1.60620847 1.61833989,2.7342203 1.9295474,3.84610002 C2.14739265,4.60853184 2.69200579,5.13251755 3.48558494,5.3231255 C4.68373385,5.62492143 6.44187391,5.1485877 8.20019634,4.40203989 C8.12239446,5.03739973 7.84242923,5.70440351 7.39117834,6.33976336 L0.466811264,6.33976336 C0.202284881,6.33976336 0,6.54625531 0,6.81628324 L0,9.99308246 C0,10.2631104 0.202284881,10.4696023 0.466811264,10.4696023 L6.06854643,10.4696023 C6.33307281,10.4696023 6.53535769,10.2631104 6.53535769,9.99308246 C6.53535769,9.72305453 6.33307281,9.51656258 6.06854643,9.51656258 L0.933622527,9.51656258 L0.933622527,7.29280312 L7.62458397,7.29280312 C7.76462735,7.29280312 7.90479226,7.22932925 7.98259413,7.11814127 C8.76061291,6.11744952 9.16518267,5.00544558 9.14962229,3.97298583 C11.3591956,2.8928741 13.3820444,1.49508244 14.0511406,0.796186677 C14.2223047,0.605578724 14.2220616,0.303906884 14.0353371,0.129182927 C13.9419749,0.0418209484 13.8215035,-0.00186004091 13.7028556,6.06936392e-05 Z M5.07262156,1.19328658 C5.69503657,1.19328658 6.39543584,1.38395658 7.12677348,1.89224445 C7.64026587,2.25757636 7.99809382,2.78187229 8.15369758,3.36958014 C6.45761665,4.14789595 4.74603604,4.65618383 3.70349088,4.40203989 C3.23667962,4.29085192 2.95634981,4.02063782 2.83186681,3.57588593 C2.62958192,2.84522211 2.87860862,2.13044229 3.51658401,1.6698064 C3.89003302,1.39977853 4.43464616,1.19328658 5.07262156,1.19328658 Z M18.0293698,2.67496553 C17.4976422,2.67645465 16.9723582,2.7183363 16.4471955,2.81364028 C16.1982295,2.86129227 16.0270653,3.0993041 16.0581861,3.35344804 C16.0737465,3.59170798 16.276092,3.75054794 16.5094977,3.75054794 L16.5872995,3.75054794 C17.2097146,3.63935997 17.8633717,3.60771603 18.5013471,3.63948402 C18.7658735,3.65536802 18.9835974,3.44875201 18.9991577,3.19460808 C19.0147181,2.92458014 18.8126153,2.70232825 18.5636493,2.68644426 C18.384705,2.67850226 18.2066118,2.67446915 18.0293698,2.67496553 Z M14.2225479,3.48485333 C14.1610357,3.4864765 14.0975786,3.50062311 14.0353371,3.5284201 C12.4792996,4.24319993 11.0946085,5.37096365 10.3321501,6.54637936 C10.2387879,6.68933533 10.2388486,6.87988133 10.3166505,7.03872129 C10.3944523,7.19756125 10.5654949,7.29280312 10.7366591,7.29280312 L17.2720168,7.29280312 L17.2720168,9.51656258 L10.7366591,9.51656258 C9.61631203,9.51656258 8.71381025,10.4378344 8.71381025,11.5814821 L8.71381025,17.1408807 C8.71381025,17.4109086 8.91609513,17.6174006 9.18062152,17.6174006 C9.4451479,17.6174006 9.64743278,17.4109086 9.64743278,17.1408807 L9.64743278,11.5814821 C9.64743278,10.9620062 10.1298044,10.4696023 10.7366591,10.4696023 L17.738828,10.4696023 C18.0033544,10.4696023 18.2056393,10.2631104 18.2056393,9.99308246 L18.2056393,6.81628324 C18.2056393,6.54625531 18.0033544,6.33976336 17.738828,6.33976336 L11.7012808,6.33976336 C12.3236958,5.67263552 13.241758,4.94209576 14.4243465,4.40203989 C14.6577521,4.29085192 14.7666748,4.02082398 14.6577521,3.76668004 C14.5760602,3.58798509 14.4070841,3.48052001 14.2225479,3.48485333 Z M16.9608092,12.058002 C16.6962829,12.058002 16.493998,12.2644939 16.493998,12.5345218 L16.493998,19.0469602 L1.86724505,19.0469602 L1.86724505,14.1229214 C1.86724505,13.8528935 1.66496017,13.6464016 1.40043379,13.6464016 C1.13590741,13.6464016 0.933622527,13.8528935 0.933622527,14.1229214 L0.933622527,19.5234801 C0.933622527,19.7935081 1.13590741,20 1.40043379,20 L16.9608092,20 C17.2253356,20 17.4276205,19.7935081 17.4276205,19.5234801 L17.4276205,12.5345218 C17.4276205,12.2644939 17.2253356,12.058002 16.9608092,12.058002 Z" id="Shape"></path>
                </g>
            </g>
        </g>
    </g>
</svg>