<?xml version="1.0" encoding="UTF-8"?>
<svg width="14px" height="6px" viewBox="0 0 14 6" version="1.1" xmlns="http://www.w3.org/2000/svg" xmlns:xlink="http://www.w3.org/1999/xlink">
    <!-- Generator: sketchtool 63.1 (101010) - https://sketch.com -->
    <title>7A88BAE1-8B4A-4D85-AA84-530DCE8D55A2</title>
    <desc>Created with sketchtool.</desc>
    <g id="Full_Experience_Phase2" stroke="none" stroke-width="1" fill="none" fill-rule="evenodd">
        <g id="M03" transform="translate(-69.000000, -742.000000)">
            <g id="Stacked-Group" transform="translate(20.000000, 735.000000)">
                <g id="round-arrow_right_alt-24px" transform="translate(46.000000, 0.000000)">
                    <polygon id="Path" points="0 0 20 0 20 20 0 20"></polygon>
                    <path d="M13.3416667,9.16666667 L4.16666667,9.16666667 C3.70833333,9.16666667 3.33333333,9.54166667 3.33333333,10 C3.33333333,10.4583333 3.70833333,10.8333333 4.16666667,10.8333333 L13.3416667,10.8333333 L13.3416667,12.325 C13.3416667,12.7 13.7916667,12.8833333 14.05,12.6166667 L16.3666667,10.2916667 C16.525,10.125 16.525,9.86666667 16.3666667,9.7 L14.05,7.375 C13.7916667,7.10833333 13.3416667,7.3 13.3416667,7.66666667 L13.3416667,9.16666667 L13.3416667,9.16666667 Z" id="Path" fill="#333333" fill-rule="nonzero"></path>
                </g>
            </g>
        </g>
    </g>
</svg>