<?xml version="1.0" encoding="UTF-8"?>
<svg width="19px" height="19px" viewBox="0 0 19 19" version="1.1" xmlns="http://www.w3.org/2000/svg" xmlns:xlink="http://www.w3.org/1999/xlink">
    <!-- Generator: sketchtool 56.3 (101010) - https://sketch.com -->
    <title>2341871C-88EB-481B-B65F-00A3E3B5C54C</title>
    <desc>Created with sketchtool.</desc>
    <g id="Navigation_New_Taxonomy" stroke="none" stroke-width="1" fill="none" fill-rule="evenodd">
        <g id="07A" transform="translate(-1350.000000, -60.000000)">
            <g id="Group" transform="translate(-0.444444, 39.000000)">
                <g id="Header/Desktop">
                    <g id="Stacked-Group-2">
                        <g transform="translate(1305.000000, 20.000000)">
                            <g id="Icons/Account/White" transform="translate(45.000000, 0.000000)">
                                <g id="round-person_outline-24px">
                                    <polygon id="Path" points="0 0 20 0 20 20 0 20"></polygon>
                                    <path d="M10.2,3.3375 C11.505,3.3375 12.5625,4.395 12.5625,5.7 C12.5625,7.005 11.505,8.0625 10.2,8.0625 C8.895,8.0625 7.8375,7.005 7.8375,5.7 C7.8375,4.395 8.895,3.3375 10.2,3.3375 L10.2,3.3375 Z M10.2,13.4625 C13.54125,13.4625 17.0625,15.105 17.0625,15.825 L17.0625,17.0625 L3.3375,17.0625 L3.3375,15.825 C3.3375,15.105 6.85875,13.4625 10.2,13.4625 L10.2,13.4625 Z M10.2,1.2 C7.71375,1.2 5.7,3.21375 5.7,5.7 C5.7,8.18625 7.71375,10.2 10.2,10.2 C12.68625,10.2 14.7,8.18625 14.7,5.7 C14.7,3.21375 12.68625,1.2 10.2,1.2 Z M10.2,11.325 C7.19625,11.325 1.2,12.8325 1.2,15.825 L1.2,18.075 C1.2,18.69375 1.70625,19.2 2.325,19.2 L18.075,19.2 C18.69375,19.2 19.2,18.69375 19.2,18.075 L19.2,15.825 C19.2,12.8325 13.20375,11.325 10.2,11.325 Z" id="Shape" fill="#FFFFFF" fill-rule="nonzero"></path>
                                </g>
                            </g>
                        </g>
                    </g>
                </g>
            </g>
        </g>
    </g>
</svg>