<?xml version="1.0" encoding="UTF-8"?>
<svg width="50px" height="50px" viewBox="0 0 50 50" version="1.1" xmlns="http://www.w3.org/2000/svg" xmlns:xlink="http://www.w3.org/1999/xlink">
    <title>302CFB39-767A-45E1-9202-9A51DDF35301</title>
    <defs>
        <path d="M20,0 C31.045695,-2.02906125e-15 40,8.954305 40,20 C40,31.045695 31.045695,40 20,40 C8.954305,40 1.3527075e-15,31.045695 0,20 C-1.3527075e-15,8.954305 8.954305,2.02906125e-15 20,0 Z" id="path-1"></path>
        <filter x="-22.5%" y="-15.0%" width="145.0%" height="145.0%" filterUnits="objectBoundingBox" id="filter-2">
            <feOffset dx="0" dy="3" in="SourceAlpha" result="shadowOffsetOuter1"></feOffset>
            <feGaussianBlur stdDeviation="2.5" in="shadowOffsetOuter1" result="shadowBlurOuter1"></feGaussianBlur>
            <feComposite in="shadowBlurOuter1" in2="SourceAlpha" operator="out" result="shadowBlurOuter1"></feComposite>
            <feColorMatrix values="0 0 0 0 0.785184556   0 0 0 0 0.785184556   0 0 0 0 0.785184556  0 0 0 0.5 0" type="matrix" in="shadowBlurOuter1"></feColorMatrix>
        </filter>
    </defs>
    <g id="Full_Experience_Update_April2021" stroke="none" stroke-width="1" fill="none" fill-rule="evenodd">
        <g id="05_Mod_April2021" transform="translate(-175.000000, -763.000000)">
            <g id="zoom_in-24px" transform="translate(180.000000, 765.000000)">
                <g id="Path">
                    <use fill="black" fill-opacity="1" filter="url(#filter-2)" xlink:href="#path-1"></use>
                    <use fill-opacity="0.2" fill="#FFFFFF" fill-rule="evenodd" xlink:href="#path-1"></use>
                </g>
                <path d="M23.4989202,22.0006256 L22.7089202,22.0006256 L22.4289202,21.7306256 C23.6289202,20.3306256 24.2489202,18.4206256 23.9089202,16.3906256 C23.4389202,13.6106256 21.1189202,11.3906256 18.3189202,11.0506256 C14.0889202,10.5306256 10.5389202,14.0906256 11.0489202,18.3206256 C11.3889202,21.1206256 13.6089202,23.4406256 16.3889202,23.9106256 C18.4189202,24.2506256 20.3289202,23.6306256 21.7289202,22.4306256 L21.9989202,22.7106256 L21.9989202,23.5006256 L26.2589202,27.7506256 C26.6689202,28.1606256 27.3289202,28.1606256 27.7389202,27.7506256 L27.7489202,27.7406256 C28.1589202,27.3306256 28.1589202,26.6706256 27.7489202,26.2606256 L23.4989202,22.0006256 Z M17.4989202,22.0006256 C15.0089202,22.0006256 12.9989202,19.9906256 12.9989202,17.5006256 C12.9989202,15.0106256 15.0089202,13.0006256 17.4989202,13.0006256 C19.9889202,13.0006256 21.9989202,15.0106256 21.9989202,17.5006256 C21.9989202,19.9906256 19.9889202,22.0006256 17.4989202,22.0006256 Z M17.4989202,15.0006256 C17.2189202,15.0006256 16.9989202,15.2206256 16.9989202,15.5006256 L16.9989202,17.0006256 L15.4989202,17.0006256 C15.2189202,17.0006256 14.9989202,17.2206256 14.9989202,17.5006256 C14.9989202,17.7806256 15.2189202,18.0006256 15.4989202,18.0006256 L16.9989202,18.0006256 L16.9989202,19.5006256 C16.9989202,19.7806256 17.2189202,20.0006256 17.4989202,20.0006256 C17.7789202,20.0006256 17.9989202,19.7806256 17.9989202,19.5006256 L17.9989202,18.0006256 L19.4989202,18.0006256 C19.7789202,18.0006256 19.9989202,17.7806256 19.9989202,17.5006256 C19.9989202,17.2206256 19.7789202,17.0006256 19.4989202,17.0006256 L17.9989202,17.0006256 L17.9989202,15.5006256 C17.9989202,15.2206256 17.7789202,15.0006256 17.4989202,15.0006256 Z" id="Shape" fill="#000000" fill-rule="nonzero"></path>
            </g>
        </g>
    </g>
</svg>