<?xml version="1.0" encoding="UTF-8"?>
<svg width="25px" height="25px" viewBox="0 0 25 25" version="1.1" xmlns="http://www.w3.org/2000/svg" xmlns:xlink="http://www.w3.org/1999/xlink">
    <title>174219AC-F8A7-4960-973D-A9DE4414B898</title>
    <g id="Initial_Explorations" stroke="none" stroke-width="1" fill="none" fill-rule="evenodd">
        <g id="D05" transform="translate(-858.000000, -470.000000)" fill="#DC3545" fill-rule="nonzero">
            <g id="Stacked-Group-2" transform="translate(858.000000, 470.000000)">
                <g id="noun_Coupon_1487791" transform="translate(12.500000, 12.500000) scale(-1, 1) translate(-12.500000, -12.500000) ">
                    <path d="M22.1026973,0 L15.2009691,0.1025 C13.8634571,0.122777778 12.6059459,0.654722222 11.6601041,1.60055556 L0.848896468,12.4119444 C0.30139158,12.9588889 0,13.6866667 0,14.4611111 C0,15.2355556 0.30139158,15.9630556 0.848896468,16.5102778 L8.48979802,24.1513889 C9.03730291,24.6986111 9.76508719,25 10.538983,25 C11.3128788,25 12.0409408,24.6986111 12.5881679,24.1511111 L14.2954054,22.4438889 L14.2954054,22.4438889 C14.2954054,22.4438889 14.2954054,22.4438889 14.2954054,22.4438889 L23.3993756,13.34 C24.3452174,12.3941667 24.8771666,11.1366667 24.8971667,9.79944444 L24.9996676,2.94166667 C25.0113344,2.15972222 24.7154984,1.42166667 24.1663269,0.864444444 C23.6174331,0.306666667 22.8846488,0 22.1026973,0 Z M23.7863235,9.78277778 C23.7707678,10.8297222 23.3543752,11.8138889 22.6140908,12.5544444 L13.9029019,21.2655556 L6.59644778,13.9588889 C6.3795014,13.7419444 6.02755382,13.7419444 5.81088521,13.9588889 C5.59393883,14.1758333 5.59393883,14.5275 5.81088521,14.7444444 L13.1173393,22.0511111 L11.8028832,23.3655556 C11.4651024,23.7030556 11.0164872,23.8888889 10.538983,23.8888889 C10.0614787,23.8888889 9.6128636,23.7030556 9.27536059,23.3655556 L1.63445904,15.7244444 C1.29695602,15.3872222 1.11112103,14.9383333 1.11112103,14.4611111 C1.11112103,13.9838889 1.29695602,13.535 1.63445904,13.1975 L2.94891522,11.8830556 L4.35226108,13.2866667 C4.46059538,13.3952778 4.60281887,13.4494444 4.74504236,13.4494444 C4.88726586,13.4494444 5.02921157,13.3952778 5.13782365,13.2866667 C5.35477003,13.07 5.35477003,12.7180556 5.13782365,12.5011111 L3.73447779,11.0975 L12.4456667,2.38638889 C13.1859511,1.64611111 14.1704043,1.22972222 15.2176359,1.21388889 L22.1026973,1.11111111 C22.5846461,1.11111111 23.0363168,1.30055556 23.3749309,1.64388889 C23.7135451,1.9875 23.8957689,2.4425 23.8890158,2.92472222 L23.7863235,9.78277778 Z" id="Shape"></path>
                    <path d="M17.415711,3.97333333 C17.1340419,4.095 17.0043185,4.42194444 17.1259862,4.70361111 C17.247654,4.98555556 17.5746014,5.11444444 17.8562705,4.99333333 C18.4759983,4.72583333 19.1846157,4.86138889 19.6618422,5.33833333 C20.2993479,5.97583333 20.2993479,7.01333333 19.6618422,7.65083333 C19.3532283,7.95944444 18.9426691,8.12972222 18.5057208,8.12972222 C18.0687724,8.12972222 17.6582132,7.95972222 17.3493216,7.65083333 C16.9457069,7.24722222 16.7832054,6.67416667 16.9143177,6.1175 C16.9845961,5.81888889 16.7995944,5.52 16.5009807,5.44972222 C16.2018113,5.37777778 15.9031975,5.56444444 15.8329191,5.86305556 C15.6129172,6.79666667 15.8862529,7.75861111 16.563759,8.43638889 C17.0823747,8.955 17.7721031,9.24083333 18.5057208,9.24083333 C19.2393384,9.24083333 19.9290668,8.95527778 20.4474048,8.43638889 C21.5182477,7.36583333 21.5182477,5.62333333 20.4474048,4.55277778 C19.6460087,3.75138889 18.4559981,3.52388889 17.415711,3.97333333 Z" id="Path"></path>
                </g>
            </g>
        </g>
    </g>
</svg>