<?xml version="1.0" encoding="UTF-8"?>
<svg width="16px" height="15px" viewBox="0 0 16 15" version="1.1" xmlns="http://www.w3.org/2000/svg" xmlns:xlink="http://www.w3.org/1999/xlink">
    <title>A845BDE7-AD9F-4853-8E7C-A2DBFDF75175</title>
    <g id="Store-Locator-No_Map_Dec2022" stroke="none" stroke-width="1" fill="none" fill-rule="evenodd">
        <g id="01" transform="translate(-1299.000000, -289.000000)">
            <g id="Group-2" transform="translate(1085.000000, 124.000000)">
                <g id="Stacked-Group-2" transform="translate(16.000000, 165.000000)">
                    <g id="carbon:location-copy-2" transform="translate(198.000000, 0.000000)">
                        <rect id="ViewBox" x="0" y="0" width="16" height="15"></rect>
                        <path d="M8,8.4375 C6.61928813,8.4375 5.5,7.38816738 5.5,6.09375 C5.5,4.79933262 6.61928813,3.75 8,3.75 C9.38071187,3.75 10.5,4.79933262 10.5,6.09375 C10.4983469,7.38752491 9.38002658,8.43595026 8,8.4375 Z M8,4.6875 C7.17157288,4.6875 6.5,5.31709957 6.5,6.09375 C6.5,6.87040043 7.17157288,7.5 8,7.5 C8.82842712,7.5 9.5,6.87040043 9.5,6.09375 C9.49917316,5.31742088 8.82808439,4.68827517 8,4.6875 Z" id="Shape" fill="#000000" fill-rule="nonzero"></path>
                        <path d="M7.99999415,14.0625 L3.782,9.39890625 C3.72339057,9.32888021 3.66538866,9.25840914 3.608,9.1875 C2.88749022,8.29771025 2.49825355,7.21088631 2.49999415,6.09375 C2.49999415,3.24603176 4.96243388,0.9375 7.99999415,0.9375 C11.0375661,0.9375 13.5000059,3.24603176 13.5000059,6.09375 C13.5017465,7.2103792 13.1126852,8.29670971 12.3925,9.18609375 L12.392,9.1875 C12.392,9.1875 12.242,9.3721875 12.2195,9.39703125 L7.99999415,14.0625 Z M4.406,8.62265625 C4.407,8.62265625 4.523,8.76703125 4.5495,8.79796875 L7.99999742,12.613125 L11.455,8.7928125 C11.477,8.76703125 11.594,8.62171875 11.5945,8.62125 C12.1830752,7.89427187 12.501156,7.00642045 12.4999974,6.09375 C12.4999974,3.76379871 10.4852814,1.875 7.99999742,1.875 C5.51471863,1.875 3.49999742,3.76379871 3.49999742,6.09375 C3.49895088,7.00698728 3.81738863,7.89534824 4.4065,8.62265625 L4.406,8.62265625 Z" id="Shape" fill="#000000" fill-rule="nonzero"></path>
                    </g>
                </g>
            </g>
        </g>
    </g>
</svg>