<?xml version="1.0" encoding="UTF-8"?>
<svg width="14px" height="15px" viewBox="0 0 14 15" version="1.1" xmlns="http://www.w3.org/2000/svg" xmlns:xlink="http://www.w3.org/1999/xlink">
    <title>F229D25B-45DB-45F6-B827-286CCC4649B9</title>
    <g id="Store-Locator-No_Map_Dec2022" stroke="none" stroke-width="1" fill="none" fill-rule="evenodd">
        <g id="01" transform="translate(-1197.000000, -289.000000)">
            <g id="Group-2" transform="translate(1085.000000, 124.000000)">
                <g id="Stacked-Group-2" transform="translate(16.000000, 165.000000)">
                    <g id="carbon:time" transform="translate(96.000000, 0.000000)">
                        <rect id="ViewBox" x="0" y="0" width="14" height="15"></rect>
                        <path d="M7,14.0625 C3.61725591,14.0625 0.875,11.1243687 0.875,7.5 C0.875,3.87563133 3.61725591,0.9375 7,0.9375 C10.3827441,0.9375 13.125,3.87563133 13.125,7.5 C13.125,11.1243687 10.3827441,14.0625 7,14.0625 L7,14.0625 Z M7,1.875 C4.10050506,1.875 1.75,4.39339828 1.75,7.5 C1.75,10.6066017 4.10050506,13.125 7,13.125 C9.89949494,13.125 12.25,10.6066017 12.25,7.5 C12.25,4.39339828 9.89949494,1.875 7,1.875 Z" id="Shape" fill="#000000" fill-rule="nonzero"></path>
                        <polygon id="Path" fill="#000000" fill-rule="nonzero" points="9.008125 10.3125 6.5625 7.6921875 6.5625 3.28125 7.4375 3.28125 7.4375 7.303125 9.625 9.6515625"></polygon>
                    </g>
                </g>
            </g>
        </g>
    </g>
</svg>