<?xml version="1.0" encoding="UTF-8"?>
<svg width="20px" height="20px" viewBox="0 0 20 20" version="1.1" xmlns="http://www.w3.org/2000/svg" xmlns:xlink="http://www.w3.org/1999/xlink">
    <title>E6AB3D11-51F0-47A8-942B-37F25386C9C1</title>
    <defs>
        <rect id="path-1" x="0" y="0" width="20" height="20"></rect>
    </defs>
    <g id="Movado_Desktop_V01_Mod" stroke="none" stroke-width="1" fill="none" fill-rule="evenodd">
        <g id="11" transform="translate(-1329.000000, -49.000000)">
            <g id="Movado/Component/RightSummary" transform="translate(940.000000, 0.000000)">
                <g id="Movado/Component/LoginCart" transform="translate(306.000000, 40.000000)">
                    <g id="Shopping-Cart-Icon" transform="translate(83.000000, 0.000000)">
                        <g id="Icons/ShoppingBag/Black" transform="translate(0.000000, 9.000000)">
                            <mask id="mask-2" fill="white">
                                <use xlink:href="#path-1"></use>
                            </mask>
                            <g id="Background"></g>
                            <g id="Shopping_Bag_Icon" mask="url(#mask-2)">
                                <g transform="translate(1.200000, 0.800000)">
                                    <rect id="Rectangle" fill-opacity="0" fill="#D8D8D8" x="0" y="0.4" width="18" height="18"></rect>
                                    <g id="Group-13-Copy-2" stroke-width="1" fill="none" transform="translate(1.400000, 0.000000)">
                                        <path d="M0.595000029,4.8 L14.405,4.8 C14.7336094,4.8 15,5.06639059 15,5.39500003 L15,17.705 C15,18.0336094 14.7336094,18.3 14.405,18.3 L0.595000029,18.3 C0.266390587,18.3 0,18.0336094 0,17.705 L0,5.39500003 C0,5.06639059 0.266390587,4.8 0.595000029,4.8 Z M1.6,6.4 L1.6,16.7 L13.4,16.7 L13.4,6.4 L1.6,6.4 Z" id="Rectangle" fill="#000000" fill-rule="nonzero"></path>
                                        <path d="M4.86554453,8.43613472 C5.07704261,3.75847933 6.06357519,1.6 7.53993961,1.6 C9.01506762,1.6 9.99623254,3.75731807 10.1972159,8.43434626 C10.2161848,8.87576668 10.5894041,9.21823129 11.0308245,9.19926237 C11.472245,9.18029345 11.8147096,8.80707415 11.7957406,8.36565374 C11.5612698,2.90934859 10.2380756,0 7.53993961,0 C4.84304001,0 3.51385353,2.90818734 3.26717751,8.36386528 C3.24722086,8.80524214 3.58884944,9.17922685 4.0302263,9.19918351 C4.47160317,9.21914017 4.84558788,8.87751159 4.86554453,8.43613472 Z" id="Path-7" fill="#000000" fill-rule="nonzero"></path>
                                    </g>
                                </g>
                            </g>
                        </g>
                    </g>
                </g>
            </g>
        </g>
    </g>
</svg>