<?xml version="1.0" encoding="UTF-8"?>
<svg width="15px" height="15px" viewBox="0 0 15 15" version="1.1" xmlns="http://www.w3.org/2000/svg" xmlns:xlink="http://www.w3.org/1999/xlink">
    <title>552AD480-EBA5-49FD-9203-3D989AFB829E</title>
    <g id="Store-Locator-No_Map_Dec2022" stroke="none" stroke-width="1" fill="none" fill-rule="evenodd">
        <g id="04" transform="translate(-1101.000000, -344.000000)">
            <g id="Group-2" transform="translate(1085.000000, 179.000000)">
                <g id="check_circle_black_24dp" transform="translate(16.000000, 165.000000)">
                    <polygon id="Path" points="0 0 15 0 15 15 0 15"></polygon>
                    <path d="M7.5,1.25 C4.05,1.25 1.25,4.05 1.25,7.5 C1.25,10.95 4.05,13.75 7.5,13.75 C10.95,13.75 13.75,10.95 13.75,7.5 C13.75,4.05 10.95,1.25 7.5,1.25 Z M5.80625,10.18125 L3.5625,7.9375 C3.31875,7.69375 3.31875,7.3 3.5625,7.05625 C3.80625,6.8125 4.2,6.8125 4.44375,7.05625 L6.25,8.85625 L10.55,4.55625 C10.79375,4.3125 11.1875,4.3125 11.43125,4.55625 C11.675,4.8 11.675,5.19375 11.43125,5.4375 L6.6875,10.18125 C6.45,10.425 6.05,10.425 5.80625,10.18125 Z" id="Shape" fill-opacity="0.885216346" fill="#000000" fill-rule="nonzero"></path>
                </g>
            </g>
        </g>
    </g>
</svg>