<?xml version="1.0" encoding="UTF-8"?>
<svg width="40px" height="40px" viewBox="0 0 40 40" version="1.1" xmlns="http://www.w3.org/2000/svg" xmlns:xlink="http://www.w3.org/1999/xlink">
    <title>9EF3C787-B4C5-4E87-BDE4-CA7F77421BF9</title>
    <g id="Initial_Explorations" stroke="none" stroke-width="1" fill="none" fill-rule="evenodd">
        <g id="D05C" transform="translate(-758.000000, -571.000000)">
            <g id="chevron_left_black_24dp-copy-4" transform="translate(778.000000, 591.000000) scale(-1, 1) translate(-778.000000, -591.000000) translate(758.000000, 571.000000)">
                <circle id="Oval" fill-opacity="0.69" fill="#FFFFFF" cx="20" cy="20" r="20"></circle>
                <g id="noun_left-chevron_4017320" transform="translate(15.000000, 12.000000)" fill="#000000" fill-rule="nonzero">
                    <path d="M8.73171865,14.4832215 C8.90073745,14.6500058 8.99570704,14.8763254 8.99570704,15.1123254 C8.99570704,15.3483253 8.90073745,15.5746449 8.73171865,15.7414292 C8.38064453,16.0861903 7.81364667,16.0861903 7.46257255,15.7414292 L0.261743559,8.62788718 C-0.0872478531,8.2810687 -0.0872478531,7.72094387 0.261743559,7.37412539 L0.261743559,7.37412539 L7.46257255,0.260583333 C7.81428035,-0.0868611206 8.38451135,-0.0868611095 8.73621915,0.260583358 C9.08792694,0.608027825 9.08792695,1.1713466 8.73621917,1.51879108 L2.1609622,7.9876684 L8.73171865,14.4832215 Z" id="Path"></path>
                </g>
            </g>
        </g>
    </g>
</svg>