<?xml version="1.0" encoding="UTF-8"?>
<svg width="15px" height="15px" viewBox="0 0 15 15" version="1.1" xmlns="http://www.w3.org/2000/svg" xmlns:xlink="http://www.w3.org/1999/xlink">
    <title>5222B241-7931-4112-9186-B605982A38C6</title>
    <g id="Store-Locator-No_Map_Dec2022" stroke="none" stroke-width="1" fill="none" fill-rule="evenodd">
        <g id="01" transform="translate(-1101.000000, -289.000000)">
            <g id="Group-2" transform="translate(1085.000000, 124.000000)">
                <g id="clarity:store-line" transform="translate(16.000000, 165.000000)">
                    <rect id="ViewBox" x="0" y="0" width="15" height="15"></rect>
                    <path d="M11.6666667,12.5 L6.66666667,12.5 L6.66666667,9.16666667 L5.83333333,9.16666667 L5.83333333,12.5 L3.33333333,12.5 L3.33333333,9.16666667 L2.5,9.16666667 L2.5,12.5 C2.5,12.9602373 2.87309604,13.3333333 3.33333333,13.3333333 L11.6666667,13.3333333 C12.126904,13.3333333 12.5,12.9602373 12.5,12.5 L12.5,9.16666667 L11.6666667,9.16666667 L11.6666667,12.5 Z" id="Path" fill="#000000" fill-rule="nonzero"></path>
                    <path d="M14.0791667,5.52916667 L12.3791667,2.12916667 C12.2384458,1.84597597 11.94956,1.66683447 11.6333333,1.66666667 L3.36666667,1.66666667 C3.05044001,1.66683447 2.76155417,1.84597597 2.62083333,2.12916667 L0.920833333,5.52916667 C0.862790113,5.64562124 0.832823472,5.77404971 0.833326935,5.90416667 L0.833326935,7.1875 C0.832952906,7.38221013 0.900765705,7.57090662 1.025,7.72083333 C1.39652149,8.14671373 1.93484873,8.39002548 2.5,8.3875 C2.95573764,8.38820987 3.39757589,8.2306209 3.75,7.94166667 C4.47670845,8.53783467 5.52329155,8.53783467 6.25,7.94166667 C6.97670845,8.53783467 8.02329155,8.53783467 8.75,7.94166667 C9.47670845,8.53783467 10.5232916,8.53783467 11.25,7.94166667 C12.0676041,8.61298626 13.2697772,8.51725425 13.9708333,7.725 C14.0965695,7.57565034 14.1658779,7.38689547 14.1666731,7.19166667 L14.1666731,5.90416667 C14.1671765,5.77404971 14.1372099,5.64562124 14.0791667,5.52916667 L14.0791667,5.52916667 Z M12.5,7.55416667 C12.1389048,7.55331735 11.8005086,7.37791012 11.5916667,7.08333333 L11.25,6.61666667 L10.9125,7.08333333 C10.6997809,7.37326912 10.3616833,7.54454876 10.0020833,7.54454876 C9.64248334,7.54454876 9.30438572,7.37326912 9.09166667,7.08333333 L8.75,6.61666667 L8.4125,7.08333333 C8.19978095,7.37326912 7.86168333,7.54454876 7.50208333,7.54454876 C7.14248334,7.54454876 6.80438572,7.37326912 6.59166667,7.08333333 L6.25,6.61666667 L5.9125,7.08333333 C5.69978095,7.37326912 5.36168333,7.54454876 5.00208333,7.54454876 C4.64248334,7.54454876 4.30438572,7.37326912 4.09166667,7.08333333 L3.75,6.61666667 L3.40833333,7.08333333 C3.1994914,7.37791012 2.86109516,7.55331735 2.5,7.55416667 C2.18230435,7.55802813 1.87845595,7.42433484 1.66666667,7.1875 L1.66666667,5.90416667 L3.36666667,2.5 L11.6333333,2.5 L13.3333333,5.9 L13.3333333,7.175 C13.1228449,7.41512814 12.8193212,7.55323145 12.5,7.55416667 Z" id="Shape" fill="#000000" fill-rule="nonzero"></path>
                    <polygon id="Path" points="0 0 15 0 15 15 0 15"></polygon>
                </g>
            </g>
        </g>
    </g>
</svg>