<?xml version="1.0" encoding="UTF-8"?>
<svg width="51px" height="48px" viewBox="0 0 51 48" version="1.1" xmlns="http://www.w3.org/2000/svg" xmlns:xlink="http://www.w3.org/1999/xlink">
    <title>D31FDADC-ACE1-424D-B44E-C680537C279D</title>
    <g id="Store-Locator-No_Map_Dec2022" stroke="none" stroke-width="1" fill="none" fill-rule="evenodd" opacity="0.499924433">
        <g id="05A" transform="translate(-1228.000000, -384.000000)">
            <g id="Group-2" transform="translate(1065.000000, 0.000000)">
                <g id="Stacked-Group" transform="translate(43.000000, 384.000000)">
                    <g id="clarity:store-line" transform="translate(120.000000, 0.000000)">
                        <rect id="ViewBox" x="0" y="0" width="51" height="48"></rect>
                        <polygon id="Path" fill-opacity="0.885216346" fill="#000000" fill-rule="nonzero" points="47 15 42.9827214 10.378882 46.762419 6 44.9049676 6 41.9892009 9.42857143 39.0950324 6 37.2159827 6 40.9956803 10.378882 37 15 38.8574514 15 41.9892009 11.310559 45.1425486 15"></polygon>
                        <path d="M30.75,41.8 L17.25,41.8 L17.25,33 L15,33 L15,41.8 L8.25,41.8 L8.25,33 L6,33 L6,41.8 C6,43.0150264 7.00735931,44 8.25,44 L30.75,44 C31.9926407,44 33,43.0150264 33,41.8 L33,33 L30.75,33 L30.75,41.8 Z" id="Path" fill="#000000" fill-rule="nonzero"></path>
                        <path d="M37.7637163,22.34271 L33.173725,13.2384475 C32.7937795,12.4801409 32.0137892,12.0004493 31.1599788,12 L8.84002116,12 C7.9862108,12.0004493 7.20622052,12.4801409 6.82627498,13.2384475 L2.23628368,22.34271 C2.07956728,22.6545433 1.9986575,22.9984393 2.00001685,23.3468566 L2.00001685,26.7832695 C1.99900697,27.3046495 2.18210119,27.8099267 2.51753314,28.2113891 C3.52063927,29.3517794 4.97412007,30.0033011 6.50001685,29.9965386 C7.73051488,29.9984394 8.92347591,29.5764596 9.8750192,28.8027198 C11.8371283,30.3990934 14.6628973,30.3990934 16.6250064,28.8027198 C18.5871155,30.3990934 21.4128845,30.3990934 23.3749936,28.8027198 C25.3371027,30.3990934 28.1628717,30.3990934 30.1249808,28.8027198 C32.3325076,30.6003286 35.578369,30.3439847 37.4712169,28.2225463 C37.8107039,27.822629 37.9978363,27.3171955 37.9999832,26.7944266 L37.9999832,23.3468566 C38.0013425,22.9984393 37.9204327,22.6545433 37.7637163,22.34271 L37.7637163,22.34271 Z M33.4999744,27.7651017 C32.5250193,27.7628275 31.6113512,27.2931353 31.0474791,26.5043398 L30.1249808,25.2547352 L29.2137325,26.5043398 C28.6393922,27.2807079 27.7265303,27.7393476 26.7556122,27.7393476 C25.784694,27.7393476 24.8718322,27.2807079 24.2974919,26.5043398 L23.3749936,25.2547352 L22.4637453,26.5043398 C21.889405,27.2807079 20.9765431,27.7393476 20.005625,27.7393476 C19.0347068,27.7393476 18.121845,27.2807079 17.5475046,26.5043398 L16.6250064,25.2547352 L15.7137581,26.5043398 C15.1394178,27.2807079 14.2265559,27.7393476 13.2556378,27.7393476 C12.2847196,27.7393476 11.3718578,27.2807079 10.7975174,26.5043398 L9.8750192,25.2547352 L8.95252094,26.5043398 C8.3886488,27.2931353 7.47498069,27.7628275 6.50002559,27.7651017 C5.64224895,27.7754416 4.82185983,27.4174478 4.25002986,26.7832695 L4.25002986,23.3468566 L8.84002116,14.2314369 L31.1599788,14.2314369 L35.7499701,23.3356994 L35.7499701,26.7497979 C35.1816525,27.3927949 34.36214,27.7625974 33.4999744,27.7651017 Z" id="Shape" fill="#000000" fill-rule="nonzero"></path>
                        <polygon id="Path" points="0 8 40 8 40 48 0 48"></polygon>
                    </g>
                </g>
            </g>
        </g>
    </g>
</svg>