<svg xmlns="http://www.w3.org/2000/svg" width="14" height="14" viewBox="0 0 14 14">
  <g id="filter-icon" transform="translate(-1402 -78)">
    <path id="Shape" d="M17.167,24H14.833a1.167,1.167,0,0,1-1.167-1.167V18.406L9.344,14.083A1.167,1.167,0,0,1,9,13.261V11.167A1.167,1.167,0,0,1,10.167,10H21.833A1.167,1.167,0,0,1,23,11.167v2.094a1.167,1.167,0,0,1-.344.822l-2.788,2.788-1.535,1.535v4.427A1.167,1.167,0,0,1,17.167,24ZM10,11v2.154l4.8,4.8V23h2.4V17.954l4.8-4.8V11H10Z" transform="translate(1393 68)" fill="#fff"/>
  </g>
</svg>
