<?xml version="1.0" encoding="UTF-8"?>
<svg width="30px" height="25px" viewBox="0 0 30 25" version="1.1" xmlns="http://www.w3.org/2000/svg" xmlns:xlink="http://www.w3.org/1999/xlink">
    <title>C48D9BAA-C3C4-458A-AE39-F9A37D775A97</title>
    <g id="Initial_Explorations" stroke="none" stroke-width="1" fill="none" fill-rule="evenodd">
        <g id="M01" transform="translate(-10.000000, -58.000000)" fill="#000000" fill-rule="nonzero">
            <g id="noun_menu_346759" transform="translate(25.000000, 70.500000) scale(-1, 1) translate(-25.000000, -70.500000) translate(10.000000, 58.000000)">
                <g id="Group" transform="translate(3.000000, 6.088825)">
                    <path d="M22.0481928,0.716332378 C22.0481928,0.32234957 21.7228916,0 21.3253012,0 L0.722891566,0 C0.325301205,0 0,0.32234957 0,0.716332378 C0,1.11031519 0.325301205,1.43266476 0.722891566,1.43266476 L21.3253012,1.43266476 C21.7228916,1.43266476 22.0481928,1.11031519 22.0481928,0.716332378 Z" id="Path"></path>
                    <path d="M21.3253012,5.44412607 L4.3373494,5.44412607 C3.93975904,5.44412607 3.61445783,5.76647564 3.61445783,6.16045845 C3.61445783,6.55444126 3.93975904,6.87679083 4.3373494,6.87679083 L21.3253012,6.87679083 C21.7228916,6.87679083 22.0481928,6.55444126 22.0481928,6.16045845 C22.0481928,5.76647564 21.7228916,5.44412607 21.3253012,5.44412607 Z" id="Path"></path>
                    <path d="M21.3253012,11.3180516 L7.95180723,11.3180516 C7.55421687,11.3180516 7.22891566,11.6404011 7.22891566,12.034384 C7.22891566,12.4283668 7.55421687,12.7507163 7.95180723,12.7507163 L21.3253012,12.7507163 C21.7228916,12.7507163 22.0481928,12.4283668 22.0481928,12.034384 C22.0481928,11.6404011 21.7228916,11.3180516 21.3253012,11.3180516 Z" id="Path"></path>
                </g>
            </g>
        </g>
    </g>
</svg>