<?xml version="1.0" encoding="UTF-8"?>
<svg width="25px" height="25px" viewBox="0 0 25 25" version="1.1" xmlns="http://www.w3.org/2000/svg" xmlns:xlink="http://www.w3.org/1999/xlink">
    <title>D9EAF1E0-C7FC-49C1-8DEA-DD96367224F3</title>
    <g id="Initial_Explorations" stroke="none" stroke-width="1" fill="none" fill-rule="evenodd">
        <g id="D00" transform="translate(-138.000000, -352.000000)">
            <g id="Group-8" transform="translate(0.000000, 286.000000)">
                <g id="place_black_24dp" transform="translate(138.000000, 66.000000)">
                    <polygon id="Path" points="0 0 25 0 25 25 0 25"></polygon>
                    <path d="M12.5,12.5 C11.3541667,12.5 10.4166667,11.5625 10.4166667,10.4166667 C10.4166667,9.27083333 11.3541667,8.33333333 12.5,8.33333333 C13.6458333,8.33333333 14.5833333,9.27083333 14.5833333,10.4166667 C14.5833333,11.5625 13.6458333,12.5 12.5,12.5 Z M18.75,10.625 C18.75,6.84375 15.9895833,4.16666667 12.5,4.16666667 C9.01041667,4.16666667 6.25,6.84375 6.25,10.625 C6.25,13.0625 8.28125,16.2916667 12.5,20.1458333 C16.71875,16.2916667 18.75,13.0625 18.75,10.625 Z M12.5,2.08333333 C16.875,2.08333333 20.8333333,5.4375 20.8333333,10.625 C20.8333333,14.0833333 18.0520833,18.1770833 12.5,22.9166667 C6.94791667,18.1770833 4.16666667,14.0833333 4.16666667,10.625 C4.16666667,5.4375 8.125,2.08333333 12.5,2.08333333 Z" id="Shape" fill="#000000" fill-rule="nonzero"></path>
                </g>
            </g>
        </g>
    </g>
</svg>