<?xml version="1.0" encoding="UTF-8"?>
<svg width="13px" height="13px" viewBox="0 0 13 13" version="1.1" xmlns="http://www.w3.org/2000/svg" xmlns:xlink="http://www.w3.org/1999/xlink">
    <title>8B10B881-387A-493A-831F-380B39FF0470</title>
    <defs>
        <rect id="path-1" x="0" y="0" width="13" height="13"></rect>
    </defs>
    <g id="Fourth-Iteration" stroke="none" stroke-width="1" fill="none" fill-rule="evenodd">
        <g id="19" transform="translate(-556.000000, -652.000000)">
            <g id="Stacked-Group-3" transform="translate(49.000000, 621.000000)">
                <g id="Stacked-Group" transform="translate(507.000000, 0.000000)">
                    <g id="Frame-18" transform="translate(0.000000, 29.000000)">
                        <g id="map-pin" transform="translate(0.000000, 2.000000)">
                            <mask id="mask-2" fill="white">
                                <use xlink:href="#path-1"></use>
                            </mask>
                            <g id="map-pin-(Background/Mask)"></g>
                            <path d="M3.43591124,2.35253706 C2.62325357,3.16519448 2.16670742,4.26739527 2.16670742,5.41666663 C2.16670742,7.09478175 3.25856519,8.72313534 4.45576523,9.98684686 C5.04328894,10.60701 5.63265269,11.1147109 6.07574087,11.467541 C6.2406446,11.598853 6.38467824,11.7082312 6.50004049,11.7934814 C6.61540275,11.7082312 6.75943742,11.598853 6.92434115,11.467541 C7.36742959,11.1147109 7.95679308,10.60701 8.54431653,9.98684686 C9.7415167,8.72313534 10.8333746,7.09478175 10.8333746,5.41666663 C10.8333746,4.26739527 10.3768279,3.16519474 9.56417026,2.35253706 C8.75151266,1.53987945 7.64931244,1.08333333 6.50004101,1.08333333 C5.35076957,1.08333333 4.24856871,1.53987945 3.43591124,2.35253706 Z M6.19928513,12.9088319 L6.19773696,12.9077967 L6.19412714,12.9053729 L6.18171336,12.8969776 C6.17116648,12.8898137 6.15612386,12.8795277 6.13688459,12.8662032 C6.09841122,12.8395573 6.04312544,12.8007348 5.97342778,12.7503967 C5.83408644,12.649762 5.63681963,12.5028702 5.40090356,12.3150109 C4.92992918,11.9399765 4.30054286,11.3981982 3.6693165,10.731903 C2.4290164,9.42269788 1.08337402,7.53021816 1.08337402,5.41666663 C1.08337402,3.9800773 1.65405686,2.60232686 2.66987892,1.5865048 C3.68570106,0.570682795 5.06345158,0 6.50004101,0 C7.93663017,0 9.31438057,0.570682795 10.330203,1.5865048 C11.3460243,2.60232673 11.916708,3.9800773 11.916708,5.41666663 C11.916708,7.53021816 10.5710657,9.42269788 9.33076577,10.731903 C8.69953915,11.3981982 8.07015257,11.9399765 7.59917846,12.3150109 C7.36326239,12.5028702 7.16599532,12.649762 7.02665423,12.7503967 C6.95695657,12.8007348 6.9016708,12.8395573 6.86319743,12.8662032 C6.84395816,12.8795277 6.82891554,12.8898137 6.81836865,12.8969776 L6.80595487,12.9053729 L6.80234506,12.9077967 L6.80120136,12.9085612 C6.80104536,12.9086645 6.80050347,12.9090272 6.50004101,12.4583333 C6.19957855,12.9090272 6.19944114,12.9089352 6.19928513,12.9088319 Z M6.80050347,12.9090272 C6.61855798,13.0303238 6.38123063,13.0301286 6.19928513,12.9088319 L6.50004101,12.4583333 L6.80050347,12.9090272 Z" id="Vector-(Stroke)" fill="#000000" mask="url(#mask-2)"></path>
                            <path d="M5.4167074,5.41666651 C5.4167074,6.01497491 5.90173224,6.49999976 6.50004077,6.49999976 C7.09834924,6.49999976 7.58337414,6.01497491 7.58337414,5.41666651 C7.58337414,4.81835804 7.09834924,4.33333325 6.50004077,4.33333325 C5.90173224,4.33333325 5.4167074,4.81835804 5.4167074,5.41666651 Z M6.50004077,3.25 C7.6966577,3.25 8.66670752,4.22004958 8.66670752,5.41666651 C8.66670752,6.61328331 7.6966577,7.58333302 6.50004077,7.58333302 C5.30342371,7.58333302 4.33337402,6.61328331 4.33337402,5.41666651 C4.33337402,4.22004958 5.30342371,3.25 6.50004077,3.25 Z" id="Vector-(Stroke)" fill="#000000" mask="url(#mask-2)"></path>
                        </g>
                    </g>
                </g>
            </g>
        </g>
    </g>
</svg>