<?xml version="1.0" encoding="UTF-8"?>
<svg width="20px" height="21px" viewBox="0 0 20 21" version="1.1" xmlns="http://www.w3.org/2000/svg" xmlns:xlink="http://www.w3.org/1999/xlink">
    <title>EE3CA9B8-54A1-43CF-A62F-8E0FE02366DF</title>
    <g id="Initial_Explorations" stroke="none" stroke-width="1" fill="none" fill-rule="evenodd">
        <g id="D04" transform="translate(-450.000000, -1121.000000)">
            <g id="Left-Filter" transform="translate(165.000000, 591.000000)">
                <g id="Group" transform="translate(0.000000, 130.000000)">
                    <g id="Component/Desktop/Filter-Copy" transform="translate(0.000000, 379.000000)">
                        <g id="add_black_24dp" transform="translate(285.000000, 21.500000)">
                            <polygon id="Path" points="0 0 20 0 20 20 0 20"></polygon>
                            <path d="M15,10.8333333 L10.8333333,10.8333333 L10.8333333,15 C10.8333333,15.4583333 10.4583333,15.8333333 10,15.8333333 C9.54166667,15.8333333 9.16666667,15.4583333 9.16666667,15 L9.16666667,10.8333333 L5,10.8333333 C4.54166667,10.8333333 4.16666667,10.4583333 4.16666667,10 C4.16666667,9.54166667 4.54166667,9.16666667 5,9.16666667 L9.16666667,9.16666667 L9.16666667,5 C9.16666667,4.54166667 9.54166667,4.16666667 10,4.16666667 C10.4583333,4.16666667 10.8333333,4.54166667 10.8333333,5 L10.8333333,9.16666667 L15,9.16666667 C15.4583333,9.16666667 15.8333333,9.54166667 15.8333333,10 C15.8333333,10.4583333 15.4583333,10.8333333 15,10.8333333 Z" id="Path" fill="#000000" fill-rule="nonzero"></path>
                        </g>
                    </g>
                </g>
            </g>
        </g>
    </g>
</svg>