<?xml version="1.0" encoding="UTF-8"?>
<svg width="24px" height="30px" viewBox="0 0 24 30" version="1.1" xmlns="http://www.w3.org/2000/svg" xmlns:xlink="http://www.w3.org/1999/xlink">
    <title>0C5A4984-9811-4748-8F41-C82F0B35B8B0</title>
    <g id="Initial_Explorations" stroke="none" stroke-width="1" fill="none" fill-rule="evenodd">
        <g id="D01A" transform="translate(-1386.000000, -66.000000)" fill="#000000" fill-rule="nonzero">
            <g id="Group-7" transform="translate(0.000000, 1.000000)">
                <g id="noun_shop-bag_3690114" transform="translate(1386.000000, 65.000000)">
                    <path d="M23.3419375,10.0116724 L18.5060797,10.0116724 L18.5060797,6.62471623 C18.5060796,2.96598647 15.5932085,0 12,0 C8.40679146,0 5.49392039,2.96598647 5.49392034,6.62471623 L5.49392034,10.0116724 L0.658062522,10.0116724 C0.483519047,10.0116244 0.316110882,10.0822046 0.192690003,10.207876 C0.0692691238,10.3335475 0,10.5040083 0,10.6817345 L0,29.3299379 C0,29.5076641 0.0692691238,29.6781249 0.192690003,29.8037963 C0.316110882,29.9294678 0.483519047,30 0.658062522,30 L23.3419375,30 C23.516481,30 23.6838891,29.9294678 23.80731,29.8037963 C23.9307309,29.6781249 24,29.5076641 24,29.3299379 L24,10.6817345 C24,10.5040083 23.9307309,10.3335475 23.80731,10.207876 C23.6838891,10.0822046 23.516481,10.0116244 23.3419375,10.0116724 Z M6.81004533,6.62471623 C6.81004533,3.70611658 9.13366719,1.34012409 12,1.34012409 C14.8663328,1.34012409 17.1899547,3.70611658 17.1899547,6.62471623 L17.1899547,10.0116724 L6.81004533,10.0116724 L6.81004533,6.62471623 Z M5.49392034,11.3517966 L5.49392034,16.0471361 C5.49392034,16.4172012 5.78854495,16.7171982 6.15198284,16.7171982 C6.51542072,16.7171982 6.81004533,16.4172012 6.81004533,16.0471361 L6.81004533,11.3517966 L17.1899547,11.3517966 L17.1899547,16.0471361 C17.1899547,16.4172012 17.4845793,16.7171982 17.8480172,16.7171982 C18.211455,16.7171982 18.5060796,16.4172012 18.5060797,16.0471361 L18.5060797,11.3517966 L22.683875,11.3517966 L22.683875,25.164336 L1.31612502,25.164336 L1.31612502,11.3517966 L5.49392034,11.3517966 Z M1.31612502,28.6598758 L1.31612502,26.5044602 L22.683875,26.5044602 L22.683875,28.6599093 L1.31612502,28.6598758 Z" id="Shape"></path>
                </g>
            </g>
        </g>
    </g>
</svg>