<?xml version="1.0" encoding="UTF-8"?>
<svg width="25px" height="25px" viewBox="0 0 25 25" version="1.1" xmlns="http://www.w3.org/2000/svg" xmlns:xlink="http://www.w3.org/1999/xlink">
    <title>A663F687-C4BB-491A-AC59-B7A5EE706EA5</title>
    <g id="Initial_Explorations" stroke="none" stroke-width="1" fill="none" fill-rule="evenodd">
        <g id="D01" transform="translate(-30.000000, -67.000000)">
            <g id="Group-7" transform="translate(0.000000, 1.000000)">
                <g id="perm_identity_black_24dp" transform="translate(30.000000, 66.000000)">
                    <polygon id="Path" points="0 0 25 0 25 25 0 25"></polygon>
                    <path d="M12.5,12.5 C14.8020833,12.5 16.6666667,10.6354167 16.6666667,8.33333333 C16.6666667,6.03125 14.8020833,4.16666667 12.5,4.16666667 C10.1979167,4.16666667 8.33333333,6.03125 8.33333333,8.33333333 C8.33333333,10.6354167 10.1979167,12.5 12.5,12.5 Z M12.5,6.25 C13.6458333,6.25 14.5833333,7.1875 14.5833333,8.33333333 C14.5833333,9.47916667 13.6458333,10.4166667 12.5,10.4166667 C11.3541667,10.4166667 10.4166667,9.47916667 10.4166667,8.33333333 C10.4166667,7.1875 11.3541667,6.25 12.5,6.25 Z M12.5,13.5416667 C9.71875,13.5416667 4.16666667,14.9375 4.16666667,17.7083333 L4.16666667,19.7916667 C4.16666667,20.3645833 4.63541667,20.8333333 5.20833333,20.8333333 L19.7916667,20.8333333 C20.3645833,20.8333333 20.8333333,20.3645833 20.8333333,19.7916667 L20.8333333,17.7083333 C20.8333333,14.9375 15.28125,13.5416667 12.5,13.5416667 Z M18.75,18.75 L6.25,18.75 L6.25,17.71875 C6.45833333,16.96875 9.6875,15.625 12.5,15.625 C15.3125,15.625 18.5416667,16.96875 18.75,17.7083333 L18.75,18.75 Z" id="Shape" fill="#000000" fill-rule="nonzero"></path>
                </g>
            </g>
        </g>
    </g>
</svg>