<?xml version="1.0" encoding="UTF-8"?>
<svg width="49px" height="49px" viewBox="0 0 49 49" version="1.1" xmlns="http://www.w3.org/2000/svg" xmlns:xlink="http://www.w3.org/1999/xlink">
    <title>A3E4863D-AF02-4B07-8D47-EF25269C92A8</title>
    <defs>
        <rect id="path-1" x="0" y="0" width="35" height="35" rx="17.5"></rect>
        <filter x="-32.9%" y="-27.1%" width="165.7%" height="165.7%" filterUnits="objectBoundingBox" id="filter-2">
            <feOffset dx="0" dy="2" in="SourceAlpha" result="shadowOffsetOuter1"></feOffset>
            <feGaussianBlur stdDeviation="3.5" in="shadowOffsetOuter1" result="shadowBlurOuter1"></feGaussianBlur>
            <feColorMatrix values="0 0 0 0 0.802895366   0 0 0 0 0.802895366   0 0 0 0 0.802895366  0 0 0 0.5 0" type="matrix" in="shadowBlurOuter1"></feColorMatrix>
        </filter>
    </defs>
    <g id="Initial_Explorations" stroke="none" stroke-width="1" fill="none" fill-rule="evenodd">
        <g id="D05C" transform="translate(-131.000000, -881.000000)">
            <g id="zoom-icon" transform="translate(138.000000, 886.000000)">
                <g id="Rectangle">
                    <use fill="black" fill-opacity="1" filter="url(#filter-2)" xlink:href="#path-1"></use>
                    <use fill="#FFFFFF" fill-rule="evenodd" xlink:href="#path-1"></use>
                </g>
                <g id="zoom_in_black_24dp" transform="translate(5.833333, 5.833333)">
                    <polygon id="Path" points="0 0 23.3333333 0 23.3333333 23.3333333 0 23.3333333"></polygon>
                    <path d="M15.0694444,13.6111111 L14.3013889,13.6111111 L14.0291667,13.3486111 C15.1958333,11.9875 15.7986111,10.1305556 15.4680556,8.15694444 C15.0111111,5.45416667 12.7555556,3.29583333 10.0333333,2.96527778 C5.92083333,2.45972222 2.46944444,5.92083333 2.96527778,10.0333333 C3.29583333,12.7555556 5.45416667,15.0111111 8.15694444,15.4680556 C10.1305556,15.7986111 11.9875,15.1958333 13.3486111,14.0291667 L13.6111111,14.3013889 L13.6111111,15.0694444 L17.7527778,19.2013889 C18.1513889,19.6 18.7930556,19.6 19.1916667,19.2013889 L19.2013889,19.1916667 C19.6,18.7930556 19.6,18.1513889 19.2013889,17.7527778 L15.0694444,13.6111111 Z M9.23611111,13.6111111 C6.81527778,13.6111111 4.86111111,11.6569444 4.86111111,9.23611111 C4.86111111,6.81527778 6.81527778,4.86111111 9.23611111,4.86111111 C11.6569444,4.86111111 13.6111111,6.81527778 13.6111111,9.23611111 C13.6111111,11.6569444 11.6569444,13.6111111 9.23611111,13.6111111 Z M9.23611111,6.80555556 C8.96388889,6.80555556 8.75,7.01944444 8.75,7.29166667 L8.75,8.75 L7.29166667,8.75 C7.01944444,8.75 6.80555556,8.96388889 6.80555556,9.23611111 C6.80555556,9.50833333 7.01944444,9.72222222 7.29166667,9.72222222 L8.75,9.72222222 L8.75,11.1805556 C8.75,11.4527778 8.96388889,11.6666667 9.23611111,11.6666667 C9.50833333,11.6666667 9.72222222,11.4527778 9.72222222,11.1805556 L9.72222222,9.72222222 L11.1805556,9.72222222 C11.4527778,9.72222222 11.6666667,9.50833333 11.6666667,9.23611111 C11.6666667,8.96388889 11.4527778,8.75 11.1805556,8.75 L9.72222222,8.75 L9.72222222,7.29166667 C9.72222222,7.01944444 9.50833333,6.80555556 9.23611111,6.80555556 Z" id="Shape" fill="#000000" fill-rule="nonzero"></path>
                </g>
            </g>
        </g>
    </g>
</svg>