<?xml version="1.0" encoding="UTF-8"?>
<svg width="12px" height="12px" viewBox="0 0 12 12" version="1.1" xmlns="http://www.w3.org/2000/svg" xmlns:xlink="http://www.w3.org/1999/xlink">
    <title>B7C92EAD-A63E-4053-A15B-B8F32C863DFA</title>
    <defs>
        <rect id="path-1" x="0" y="0" width="12" height="11.4782609"></rect>
    </defs>
    <g id="Fourth-Iteration" stroke="none" stroke-width="1" fill="none" fill-rule="evenodd">
        <g id="03" transform="translate(-1268.000000, -58.000000)">
            <g id="Stacked-Group" transform="translate(937.000000, 54.000000)">
                <g id="Login/Small/Left" transform="translate(331.000000, 3.000000)">
                    <g id="User-Icon/Small" transform="translate(-0.000000, 1.288737)">
                        <mask id="mask-2" fill="white">
                            <use xlink:href="#path-1"></use>
                        </mask>
                        <g id="user-(Background/Mask)"></g>
                        <path d="M4,6.69564156 L8,6.69564156 C8.66304159,6.69564156 9.29892635,6.94758247 9.76776695,7.39603888 C10.236608,7.84449529 10.5,8.45273259 10.5,9.08694643 L10.5,10.0434684 C10.5,10.3076046 10.2761421,10.5217293 10,10.5217293 C9.7238574,10.5217293 9.5,10.3076046 9.5,10.0434684 L9.5,9.08694643 C9.5,8.70641865 9.34196472,8.34147633 9.06065989,8.07240208 C8.77935505,7.80332783 8.39782429,7.65216351 8,7.65216351 L4,7.65216351 C3.60217547,7.65216351 3.22064447,7.80332795 2.93933976,8.07240208 C2.65803516,8.3414761 2.5,8.70641831 2.5,9.08694643 L2.5,10.0434684 C2.5,10.3076046 2.27614239,10.5217293 2,10.5217293 C1.72385761,10.5217293 1.5,10.3076046 1.5,10.0434684 L1.5,9.08694643 C1.5,8.45273293 1.76339203,7.84449552 2.23223293,7.39603888 C2.70107368,6.94758239 3.33695853,6.69564156 4,6.69564156 Z" id="Vector-(Stroke)" fill="#000000" mask="url(#mask-2)"></path>
                        <path d="M4.50002123,3.34781556 C4.50002123,4.14022409 5.17159398,4.78259821 6.00002123,4.78259821 C6.8284482,4.78259821 7.50002123,4.14022409 7.50002123,3.34781556 C7.50002123,2.55540691 6.8284482,1.9130329 6.00002123,1.9130329 C5.17159398,1.9130329 4.50002123,2.55540691 4.50002123,3.34781556 Z M6.00002123,0.956511124 C7.38073313,0.956511124 8.50002123,2.02713455 8.50002123,3.34781556 C8.50002123,4.66849668 7.38073313,5.73911999 6.00002123,5.73911999 C4.61930928,5.73911999 3.50002123,4.66849668 3.50002123,3.34781556 C3.50002123,2.02713455 4.61930928,0.956511124 6.00002123,0.956511124 Z" id="Vector-(Stroke)" fill="#000000" mask="url(#mask-2)"></path>
                    </g>
                </g>
            </g>
        </g>
    </g>
</svg>