<?xml version="1.0" encoding="UTF-8"?>
<svg width="16px" height="15px" viewBox="0 0 16 15" version="1.1" xmlns="http://www.w3.org/2000/svg" xmlns:xlink="http://www.w3.org/1999/xlink">
    <title>82FF5FCA-B883-4FE5-A8A1-E43516AC9120</title>
    <g id="PLP" stroke="none" stroke-width="1" fill="none" fill-rule="evenodd">
        <g id="CLP-Layout-1A1" transform="translate(-44.000000, -523.000000)">
            <g id="Stacked-Group-7" transform="translate(36.000000, 512.000000)">
                <g id="bi:sort-up" transform="translate(8.762722, 11.000000)">
                    <rect id="ViewBox" x="0" y="0" width="14.7132275" height="15"></rect>
                    <path d="M3.21851852,11.71875 C3.21851852,11.9776335 3.01266426,12.1875 2.75873016,12.1875 C2.50479606,12.1875 2.2989418,11.9776335 2.2989418,11.71875 L2.2989418,3.4753125 L1.24510688,4.550625 C1.12880616,4.66919252 0.959294154,4.71549841 0.800424406,4.67209969 C0.641554659,4.62870097 0.517463261,4.50219093 0.474894242,4.34022469 C0.432325223,4.17825844 0.477745831,4.00544252 0.594046561,3.886875 L2.4332,2.0128125 L2.43963704,2.00625 C2.61952497,1.82813127 2.9064741,1.83063877 3.08334074,2.011875 L4.92249418,3.886875 C5.03879491,4.00527505 5.08430315,4.17793623 5.04187639,4.33981874 C4.99944963,4.50170125 4.8755335,4.62821128 4.71680602,4.67169374 C4.55807853,4.7151762 4.38865416,4.66902505 4.27235344,4.550625 L3.21851852,3.4753125 L3.21851852,11.71875 Z M6.43703704,3.28125 C6.43703704,3.02236652 6.6428913,2.8125 6.8968254,2.8125 L13.3338624,2.8125 C13.5877965,2.8125 13.7936508,3.02236652 13.7936508,3.28125 C13.7936508,3.54013348 13.5877965,3.75 13.3338624,3.75 L6.8968254,3.75 C6.6428913,3.75 6.43703704,3.54013348 6.43703704,3.28125 Z M6.8968254,5.625 C6.6428913,5.625 6.43703704,5.83486652 6.43703704,6.09375 C6.43703704,6.35263348 6.6428913,6.5625 6.8968254,6.5625 L11.494709,6.5625 C11.7486431,6.5625 11.9544974,6.35263348 11.9544974,6.09375 C11.9544974,5.83486652 11.7486431,5.625 11.494709,5.625 L6.8968254,5.625 Z M6.8968254,8.4375 C6.6428913,8.4375 6.43703704,8.64736652 6.43703704,8.90625 C6.43703704,9.16513348 6.6428913,9.375 6.8968254,9.375 L9.65555556,9.375 C9.90948965,9.375 10.1153439,9.16513348 10.1153439,8.90625 C10.1153439,8.64736652 9.90948965,8.4375 9.65555556,8.4375 L6.8968254,8.4375 Z M6.8968254,11.25 C6.6428913,11.25 6.43703704,11.4598665 6.43703704,11.71875 C6.43703704,11.9776335 6.6428913,12.1875 6.8968254,12.1875 L7.81640212,12.1875 C8.07033622,12.1875 8.27619048,11.9776335 8.27619048,11.71875 C8.27619048,11.4598665 8.07033622,11.25 7.81640212,11.25 L6.8968254,11.25 Z" id="Shape" fill-opacity="0.885216346" fill="#000000" fill-rule="nonzero"></path>
                </g>
            </g>
        </g>
    </g>
</svg>