<?xml version="1.0" encoding="UTF-8"?>
<svg width="13px" height="12px" viewBox="0 0 13 12" version="1.1" xmlns="http://www.w3.org/2000/svg" xmlns:xlink="http://www.w3.org/1999/xlink">
    <title>A7DF36AE-BB62-4D2C-AEBF-022D525FFB46</title>
    <g id="PLP" stroke="none" stroke-width="1" fill="none" fill-rule="evenodd">
        <g id="Banner-2B" transform="translate(-218.000000, -283.000000)">
            <g id="Group-2" transform="translate(10.000000, 268.000000)">
                <g id="Stacked-Group" transform="translate(208.473134, 13.000000)">
                    <g id="ep:filter" transform="translate(0.000000, 2.000000)">
                        <rect id="ViewBox" x="0" y="0" width="12" height="12"></rect>
                        <path d="M4.41768541,5.74534832 L4.41768541,10.7472733 C4.41769002,10.8844378 4.48874434,11.0118112 4.60545319,11.0838696 C4.72216204,11.155928 4.86786763,11.1623865 4.99049399,11.1009368 L7.36401018,9.91414659 C7.49785312,9.84707611 7.58236865,9.710194 7.58237367,9.56048312 L7.58237367,5.74534832 L11.0532455,1.50376026 C11.1428571,1.39436844 11.1672864,1.24548243 11.1173542,1.11318616 C11.0674221,0.980889878 10.9507056,0.885282283 10.8111706,0.862377828 C10.6716357,0.839473372 10.5304811,0.892751789 10.4408783,1.00214361 L6.88060405,5.35370756 C6.82271851,5.42446813 6.79112719,5.51309396 6.79120161,5.60451589 L6.79120161,9.31600434 L5.20885748,10.1071978 L5.20885748,5.60451589 C5.20893189,5.51309396 5.17734057,5.42446813 5.11945503,5.35370756 L2.08768369,1.64854866 L8.37354573,1.64854866 C8.59202187,1.64854866 8.76913177,1.47143397 8.76913177,1.25295193 C8.76913177,1.0344699 8.59202187,0.857355211 8.37354573,0.857355211 L1.25299716,0.857355211 C1.10002875,0.857253158 0.960710885,0.945355183 0.895227182,1.08360229 C0.829743479,1.2218494 0.84983154,1.38546153 0.946813569,1.50376026 L4.41768541,5.74534832 Z" id="Path" fill-opacity="0.885216346" fill="#000000" fill-rule="nonzero"></path>
                    </g>
                </g>
            </g>
        </g>
    </g>
</svg>