<?xml version="1.0" encoding="UTF-8"?>
<svg width="12px" height="13px" viewBox="0 0 12 13" version="1.1" xmlns="http://www.w3.org/2000/svg" xmlns:xlink="http://www.w3.org/1999/xlink">
    <title>0D6CD317-89ED-42D9-831E-11000417959C</title>
    <defs>
        <rect id="path-1" x="0" y="0" width="12" height="12"></rect>
    </defs>
    <g id="Fourth-Iteration" stroke="none" stroke-width="1" fill="none" fill-rule="evenodd">
        <g id="03" transform="translate(-1147.000000, -58.000000)">
            <rect fill="#FFFFFF" x="0" y="0" width="1440" height="896"></rect>
            <g id="Stacked-Group" transform="translate(937.000000, 54.000000)">
                <g id="Location/Small/Left" transform="translate(210.000000, 3.000000)">
                    <g id="Location-icon/Small" transform="translate(0.000000, 1.288737)">
                        <mask id="mask-2" fill="white">
                            <use xlink:href="#path-1"></use>
                        </mask>
                        <g id="map-pin-(Background/Mask)"></g>
                        <path d="M3.1715516,2.17157269 C2.42140605,2.92171801 1.99997877,3.93913413 1.99997877,5 C1.99997877,6.54902937 3.00784755,8.052125 4.11295529,9.21862796 C4.65528488,9.79108623 5.19931296,10.2597332 5.60831743,10.5854226 C5.76053626,10.7066336 5.89349039,10.8075982 5.99997877,10.8862906 C6.10646686,10.8075982 6.23942194,10.7066336 6.39164077,10.5854226 C6.80064549,10.2597332 7.34467333,9.79108623 7.88700268,9.21862796 C8.99211053,8.052125 9.99997877,6.54902937 9.99997877,5 C9.99997877,3.93913413 9.57855161,2.92171825 8.82840613,2.17157269 C8.07826064,1.4214272 7.06084505,1 5.99997877,1 C4.93911315,1 3.92169697,1.4214272 3.1715516,2.17157269 Z M5.72235829,11.915845 L5.72092921,11.9148894 L5.71759707,11.9126521 L5.7061382,11.9049025 C5.69640261,11.8982897 5.68251711,11.8887949 5.66475779,11.8764954 C5.62924391,11.8518992 5.57821089,11.816063 5.51387458,11.7695971 C5.3852518,11.6767035 5.20315936,11.541111 4.98539068,11.3677025 C4.5506451,11.0215168 3.9696731,10.5214138 3.38700262,9.9063721 C2.24211021,8.69787505 0.99997877,6.95097067 0.99997877,5 C0.99997877,3.67391754 1.52676293,2.4021479 2.46444484,1.46446598 C3.40212682,0.526784124 4.67389655,0 5.99997877,0 C7.32606142,0 8.59783103,0.526784124 9.53551324,1.46446598 C10.4731945,2.40214778 10.9999788,3.67391754 10.9999788,5 C10.9999788,6.95097067 9.75784812,8.69787505 8.61295583,9.9063721 C8.0302851,10.5214138 7.44931287,11.0215168 7.01456753,11.3677025 C6.79679884,11.541111 6.61470616,11.6767035 6.48608362,11.7695971 C6.42174732,11.816063 6.3707143,11.8518992 6.33520041,11.8764954 C6.31744109,11.8887949 6.30355559,11.8982897 6.29382001,11.9049025 L6.28236113,11.9126521 L6.27902899,11.9148894 L6.27797328,11.9155951 C6.27782927,11.9156905 6.27732907,11.9160252 5.99997877,11.5 C5.72262913,11.9160252 5.7225023,11.9159403 5.72235829,11.915845 Z M6.27732907,11.9160252 C6.10937938,12.0279913 5.89030798,12.0278111 5.72235829,11.915845 L5.99997877,11.5 L6.27732907,11.9160252 Z" id="Vector-(Stroke)" fill="#000000" mask="url(#mask-2)"></path>
                        <path d="M4.99997877,5 C4.99997877,5.55228451 5.44769405,6 5.99997877,6 C6.55226359,6 6.99997877,5.55228451 6.99997877,5 C6.99997877,4.4477151 6.55226359,4 5.99997877,4 C5.44769405,4 4.99997877,4.4477151 4.99997877,5 Z M5.99997877,3 C7.10454833,3 7.99997877,3.89543037 7.99997877,5 C7.99997877,6.10456918 7.10454833,7 5.99997877,7 C4.89540925,7 3.99997877,6.10456918 3.99997877,5 C3.99997877,3.89543037 4.89540925,3 5.99997877,3 Z" id="Vector-(Stroke)" fill="#000000" mask="url(#mask-2)"></path>
                    </g>
                </g>
            </g>
        </g>
    </g>
</svg>