<?xml version="1.0" encoding="UTF-8"?>
<svg width="14px" height="14px" viewBox="0 0 14 14" version="1.1" xmlns="http://www.w3.org/2000/svg" xmlns:xlink="http://www.w3.org/1999/xlink">
    <title>D8E14DD1-AEFF-4F8D-9CF2-DD40D8F44907</title>
    <g id="Fourth-Iteration" stroke="none" stroke-width="1" fill="none" fill-rule="evenodd">
        <g id="16" transform="translate(-346.000000, -101.000000)" fill="#000000">
            <g id="Group-13" transform="translate(14.000000, 97.000000)">
                <g id="Group-2" transform="translate(332.000000, 4.000000)">
                    <path d="M13.7071066,1.70710683 L1.70710683,13.7071066 C1.31658256,14.0976315 0.683417499,14.0976315 0.292893231,13.7071066 C-0.0976310968,13.3165827 -0.0976310968,12.6834173 0.292893231,12.2928934 L12.2928934,0.292893231 C12.6834173,-0.0976310968 13.3165827,-0.0976310968 13.7071066,0.292893231 C14.0976315,0.683417499 14.0976315,1.31658256 13.7071066,1.70710683 Z" id="Vector-(Stroke)"></path>
                    <path d="M1.70710683,0.292893231 L13.7071066,12.2928934 C14.0976315,12.6834173 14.0976315,13.3165827 13.7071066,13.7071066 C13.3165827,14.0976315 12.6834173,14.0976315 12.2928934,13.7071066 L0.292893231,1.70710683 C-0.0976310968,1.31658256 -0.0976310968,0.683417499 0.292893231,0.292893231 C0.683417499,-0.0976310968 1.31658256,-0.0976310968 1.70710683,0.292893231 Z" id="Vector-(Stroke)"></path>
                </g>
            </g>
        </g>
    </g>
</svg>