<?xml version="1.0" encoding="UTF-8"?>
<svg width="13px" height="13px" viewBox="0 0 13 13" version="1.1" xmlns="http://www.w3.org/2000/svg" xmlns:xlink="http://www.w3.org/1999/xlink">
    <title>3B90872A-AEBC-4668-B8BA-AAF251FECF40</title>
    <g id="Fourth-Iteration" stroke="none" stroke-width="1" fill="none" fill-rule="evenodd">
        <g id="01" transform="translate(-927.000000, -56.000000)">
            <rect fill="#FFFFFF" x="0" y="0" width="1440" height="896"></rect>
            <g id="Nav-bar" transform="translate(25.000000, 43.000000)" fill="#000000">
                <g id="Stacked-Group" transform="translate(902.000000, 12.000000)">
                    <g id="search-icon" transform="translate(0.000000, 1.025641)">
                        <path d="M1.21008393,5.53846108 C1.21008393,7.91753381 3.10628939,9.84615303 5.4453777,9.84615303 C7.78446601,9.84615303 9.68067147,7.91753381 9.68067147,5.53846108 C9.68067147,3.15938835 7.78446601,1.23076913 5.4453777,1.23076913 C3.10628939,1.23076913 1.21008393,3.15938835 1.21008393,5.53846108 Z M5.4453777,0 C8.45277688,0 10.8907554,2.47965337 10.8907554,5.53846108 C10.8907554,8.59726879 8.45277688,11.0769222 5.4453777,11.0769222 C2.43797853,11.0769222 0,8.59726879 0,5.53846108 C0,2.47965337 2.43797853,0 5.4453777,0 Z" id="Vector-(Stroke)"></path>
                        <path d="M9.29169471,8.58024182 L11.9236275,11.2571652 C12.1599112,11.4974877 12.1599112,11.8871278 11.9236275,12.1274502 C11.6873442,12.3677729 11.3042527,12.3677729 11.0679691,12.1274502 L8.43603608,9.4505271 C8.19975246,9.21020448 8.19975246,8.82056445 8.43603608,8.58024182 C8.67231967,8.33991917 9.05541112,8.33991917 9.29169471,8.58024182 Z" id="Vector-(Stroke)"></path>
                    </g>
                </g>
            </g>
        </g>
    </g>
</svg>