<?xml version="1.0" encoding="UTF-8"?>
<svg width="12px" height="14px" viewBox="0 0 12 14" version="1.1" xmlns="http://www.w3.org/2000/svg" xmlns:xlink="http://www.w3.org/1999/xlink">
    <title>A56A9D6C-E508-40EB-B64F-8404F7E26BF8</title>
    <g id="Fourth-Iteration" stroke="none" stroke-width="1" fill="none" fill-rule="evenodd">
        <g id="03" transform="translate(-1363.000000, -57.000000)" fill="#000000" fill-rule="nonzero" stroke="#000000" stroke-width="0.5">
            <g id="Stacked-Group" transform="translate(937.000000, 54.000000)">
                <g id="Bag/Small/Left" transform="translate(427.000000, 3.000000)">
                    <g id="Bag-Icon/Small" transform="translate(0.000000, 1.000000)">
                        <path d="M5.2988463,0.75 C6.34401487,0.75 7.1912914,1.58946609 7.1912914,2.625 C7.1912914,2.83210678 7.02339818,3 6.8162914,3 L3.78140119,3 C3.57429441,3 3.40640119,2.83210678 3.40640119,2.625 L3.40640119,2.625 L3.40640119,2.625 C3.40640119,1.58946609 4.25367773,0.75 5.2988463,0.75 Z M7.94826945,2.625 L7.94826945,2.625 L7.94826945,2.625 C7.94826945,1.17525253 6.7620823,0 5.2988463,0 C3.8356103,0 2.64942315,1.17525253 2.64942315,2.625 C2.64942315,2.83210678 2.48152993,3 2.27442315,3 L1,3 C0.44771525,3 -6.76353751e-17,3.44771525 0,4 L0,10.5 L0,10.5 C0,11.3284271 0.677821227,12 1.51395608,12 L9.08373651,12 C9.91987137,12 10.5976926,11.3284271 10.5976926,10.5 L10.5976926,4 C10.5976926,3.44771525 10.1499773,3 9.59769259,3 L8.32326945,3 C8.11616266,3 7.94826945,2.83210678 7.94826945,2.625 Z M1.75697804,3.75 L8.84071455,3.75 C9.3929993,3.75 9.84071455,4.19771525 9.84071455,4.75 L9.84071455,10.5 L9.84071455,10.5 C9.84071455,10.9142136 9.50180394,11.25 9.08373651,11.25 L1.51395608,11.25 C1.09588866,11.25 0.756978042,10.9142136 0.756978042,10.5 L0.756978042,4.75 C0.756978042,4.19771525 1.20469329,3.75 1.75697804,3.75 Z" id="Shape"></path>
                    </g>
                </g>
            </g>
        </g>
    </g>
</svg>