<svg width="18" height="18" xmlns="http://www.w3.org/2000/svg">
 <!-- Generator: sketchtool 57.1 (101010) - https://sketch.com -->

 <title>3C295A70-B01F-4A2E-A741-46C5B729FB1D</title>
 <desc>Created with sketchtool.</desc>
 <g>
  <title>background</title>
  <rect fill="none" id="canvas_background" height="20" width="20" y="-1" x="-1"/>
 </g>
 <g>
  <title>Layer 1</title>
  <path stroke="null" fill-rule="nonzero" fill="#ffffff" id="Shape" d="m8.988747,9.535156c2.477149,0 4.48353,-2.532298 4.48353,-5.005764c0,-2.473456 -2.006382,-4.476841 -4.48353,-4.476841c-2.477149,0 -4.483521,2.003385 -4.483521,4.476841c0,2.473467 2.006372,5.005764 4.483521,5.005764zm0,1.709513c-2.992749,0 -8.967051,1.499735 -8.967051,4.476841l0,1.119207c0,0.615568 0.504395,1.119218 1.120878,1.119218l15.692347,0c0.616483,0 1.120887,-0.50365 1.120887,-1.119218l0,-1.119207c0,-2.977106 -5.974302,-4.476841 -8.967061,-4.476841z"/>
 </g>
</svg>