<?xml version="1.0" encoding="UTF-8"?>
<svg width="20px" height="20px" viewBox="0 0 20 20" version="1.1" xmlns="http://www.w3.org/2000/svg" xmlns:xlink="http://www.w3.org/1999/xlink">
    <title>68F66EA4-2773-4D2F-AA44-E2B84DE5C65C</title>
    <g id="March2023" stroke="none" stroke-width="1" fill="none" fill-rule="evenodd">
        <g id="D02" transform="translate(-820.000000, -604.000000)">
            <g id="highlight_off_black_24dp" transform="translate(820.000000, 604.000000)">
                <polygon id="Path" points="0 0 20 0 20 20 0 20"></polygon>
                <path d="M11.575,7.25 L10,8.825 L8.425,7.25 C8.1,6.925 7.575,6.925 7.25,7.25 C6.925,7.575 6.925,8.1 7.25,8.425 L8.825,10 L7.25,11.575 C6.925,11.9 6.925,12.425 7.25,12.75 C7.575,13.075 8.1,13.075 8.425,12.75 L10,11.175 L11.575,12.75 C11.9,13.075 12.425,13.075 12.75,12.75 C13.075,12.425 13.075,11.9 12.75,11.575 L11.175,10 L12.75,8.425 C13.075,8.1 13.075,7.575 12.75,7.25 C12.425,6.93333333 11.8916667,6.93333333 11.575,7.25 Z M10,1.66666667 C5.39166667,1.66666667 1.66666667,5.39166667 1.66666667,10 C1.66666667,14.6083333 5.39166667,18.3333333 10,18.3333333 C14.6083333,18.3333333 18.3333333,14.6083333 18.3333333,10 C18.3333333,5.39166667 14.6083333,1.66666667 10,1.66666667 Z M10,16.6666667 C6.325,16.6666667 3.33333333,13.675 3.33333333,10 C3.33333333,6.325 6.325,3.33333333 10,3.33333333 C13.675,3.33333333 16.6666667,6.325 16.6666667,10 C16.6666667,13.675 13.675,16.6666667 10,16.6666667 Z" id="Shape" fill="#000000" fill-rule="nonzero"></path>
            </g>
        </g>
    </g>
</svg>