<?xml version="1.0" encoding="UTF-8"?>
<svg width="25px" height="16px" viewBox="0 0 25 16" version="1.1" xmlns="http://www.w3.org/2000/svg" xmlns:xlink="http://www.w3.org/1999/xlink">
    <title>1C829658-A9DB-47D8-825D-EAC7CBDA0975</title>
    <g id="Initial_Explorations" stroke="none" stroke-width="1" fill="none" fill-rule="evenodd">
        <g id="D01A" transform="translate(-1382.000000, -1335.000000)" fill="#000000" fill-rule="nonzero">
            <g id="Group-5" transform="translate(1395.000000, 1343.000000) scale(-1, 1) translate(-1395.000000, -1343.000000) translate(1370.000000, 1318.000000)">
                <g id="keyboard_backspace_black_24dp" transform="translate(13.000000, 17.000000)">
                    <path d="M23.5781317,6.56107383 L4.85212569,6.56107383 L8.9471065,2.43758389 C9.50163515,1.87919463 9.50163515,0.977181208 8.9471065,0.418791946 C8.39257785,-0.139597315 7.4968008,-0.139597315 6.94227215,0.418791946 L0.415896488,6.99060403 C-0.138632163,7.54899329 -0.138632163,8.45100671 0.415896488,9.00939597 L6.94227215,15.5812081 C7.4968008,16.1395973 8.39257785,16.1395973 8.9471065,15.5812081 C9.50163515,15.0228188 9.50163515,14.1208054 8.9471065,13.5624161 L4.85212569,9.4246085 L23.5781317,9.4246085 C24.3601592,9.4246085 25,8.7803132 25,7.99284116 C25,7.20536913 24.3601592,6.56107383 23.5781317,6.56107383 Z" id="Path"></path>
                </g>
            </g>
        </g>
    </g>
</svg>