<svg width="15" height="19" viewBox="0 0 15 19" fill="none" xmlns="http://www.w3.org/2000/svg">
<path fill-rule="evenodd" clip-rule="evenodd" d="M5.01318 3.5C5.13979 2.41113 6.1653 1.5 7.5 1.5C8.8347 1.5 9.86021 2.41113 9.98682 3.5H5.01318ZM4 4.5V6C4 6.27614 4.22386 6.5 4.5 6.5C4.77614 6.5 5 6.27614 5 6V4.5H10V6C10 6.27614 10.2239 6.5 10.5 6.5C10.7761 6.5 11 6.27614 11 6V4.5H12.5C13.3284 4.5 14 5.17157 14 6V16C14 16.8284 13.3284 17.5 12.5 17.5H2.5C1.67157 17.5 1 16.8284 1 16V6C1 5.17157 1.67157 4.5 2.5 4.5H4ZM4.0084 3.5C4.13567 1.78615 5.692 0.5 7.5 0.5C9.308 0.5 10.8643 1.78615 10.9916 3.5H12.5C13.8807 3.5 15 4.61929 15 6V16C15 17.3807 13.8807 18.5 12.5 18.5H2.5C1.11929 18.5 0 17.3807 0 16V6C0 4.61929 1.11929 3.5 2.5 3.5H4.0084Z" fill="#1A1818"/>
</svg>
