<svg width="13" height="18" viewBox="0 0 13 18" fill="none" xmlns="http://www.w3.org/2000/svg">
<path d="M12.1505 6.61003H11.1V5.54234C11.1 3.87819 10.2121 2.34044 8.77094 1.50833C7.32968 0.676259 5.55411 0.676259 4.11292 1.50833C2.67179 2.34041 1.78387 3.87816 1.78387 5.54234V6.61003H0.733332C0.538934 6.61003 0.352266 6.68732 0.214861 6.82489C0.0772897 6.96246 0 7.14898 0 7.34351V16.3821C0 16.5766 0.0772897 16.7631 0.214861 16.9007C0.352294 17.0381 0.538948 17.1154 0.733332 17.1154H12.1505C12.3449 17.1154 12.5315 17.0381 12.6689 16.9007C12.8065 16.7631 12.8838 16.5766 12.8838 16.3821V7.34351C12.8838 7.14897 12.8065 6.96244 12.6689 6.82489C12.5315 6.68732 12.3449 6.61003 12.1505 6.61003ZM2.77501 5.54234C2.77501 4.23229 3.47392 3.0218 4.60852 2.36671C5.74312 1.71161 7.14095 1.71161 8.27548 2.36671C9.41008 3.0218 10.109 4.23229 10.109 5.54234V6.61003H2.77508L2.77501 5.54234ZM11.8928 16.1243H0.991081V7.6011H11.8928V16.1243Z" fill="white"/>
</svg>
