<?xml version="1.0" encoding="UTF-8"?>
<svg width="40px" height="40px" viewBox="0 0 40 40" version="1.1" xmlns="http://www.w3.org/2000/svg" xmlns:xlink="http://www.w3.org/1999/xlink">
    <title>78C5FF57-3745-4AE1-9F5D-FC5675A78F99</title>
    <g id="V4_Jan_2022_Desktop" stroke="none" stroke-width="1" fill="none" fill-rule="evenodd">
        <g id="01" transform="translate(-1173.000000, -480.000000)">
            <g id="chevron_left_black_24dp-copy" transform="translate(1193.000000, 500.000000) scale(-1, 1) translate(-1193.000000, -500.000000) translate(1173.000000, 480.000000)">
                <polygon id="Path" fill-opacity="0.1" fill="#FFFFFF" points="0 0 40 0 40 40 0 40"></polygon>
                <path d="M24.5166667,11.1833333 C23.8666667,10.5333333 22.8166667,10.5333333 22.1666667,11.1833333 L14.5166667,18.8333333 C13.8666667,19.4833333 13.8666667,20.5333333 14.5166667,21.1833333 L22.1666667,28.8333333 C22.8166667,29.4833333 23.8666667,29.4833333 24.5166667,28.8333333 C25.1666667,28.1833333 25.1666667,27.1333333 24.5166667,26.4833333 L18.05,20 L24.5166667,13.5333333 C25.1666667,12.8833333 25.15,11.8166667 24.5166667,11.1833333 Z" id="Path" fill="#000000" fill-rule="nonzero"></path>
            </g>
        </g>
    </g>
</svg>