<?xml version="1.0" encoding="UTF-8"?>
<svg width="15px" height="15px" viewBox="0 0 15 15" version="1.1" xmlns="http://www.w3.org/2000/svg" xmlns:xlink="http://www.w3.org/1999/xlink">
    <title>32CAD664-871B-4E2B-A5C2-F02A380707EC</title>
    <g id="Movado_Desktop_V01_Mod" stroke="none" stroke-width="1" fill="none" fill-rule="evenodd">
        <g id="M02" transform="translate(-154.000000, -153.000000)">
            <g id="Group" transform="translate(20.000000, 119.000000)">
                <g id="Padding-Group-2" transform="translate(0.000000, 30.000000)">
                    <g id="Stacked-Group" transform="translate(10.000000, 4.000000)">
                        <g id="clear_black_24dp" transform="translate(124.000000, 0.000000)">
                            <polygon id="Path" points="0 0 15 0 15 15 0 15"></polygon>
                            <path d="M11.4375,3.56875 C11.19375,3.325 10.8,3.325 10.55625,3.56875 L7.5,6.61875 L4.44375,3.5625 C4.2,3.31875 3.80625,3.31875 3.5625,3.5625 C3.31875,3.80625 3.31875,4.2 3.5625,4.44375 L6.61875,7.5 L3.5625,10.55625 C3.31875,10.8 3.31875,11.19375 3.5625,11.4375 C3.80625,11.68125 4.2,11.68125 4.44375,11.4375 L7.5,8.38125 L10.55625,11.4375 C10.8,11.68125 11.19375,11.68125 11.4375,11.4375 C11.68125,11.19375 11.68125,10.8 11.4375,10.55625 L8.38125,7.5 L11.4375,4.44375 C11.675,4.20625 11.675,3.80625 11.4375,3.56875 Z" id="Path" fill="#3AAB4A" fill-rule="nonzero"></path>
                        </g>
                    </g>
                </g>
            </g>
        </g>
    </g>
</svg>