<svg width="17" height="18" viewBox="0 0 17 18" fill="none" xmlns="http://www.w3.org/2000/svg">
<path d="M16.6146 2.50852C16.463 2.48024 16.3285 2.5122 16.09 2.76178C14.2283 4.70674 12.3664 6.6513 10.5043 8.59544C8.85959 10.3166 5.02617 14.3068 5.02617 14.3068C5.02617 14.3068 2.14256 11.0266 0.929559 9.64968C0.87421 9.58475 0.815374 9.52318 0.753336 9.46526C0.671911 9.39101 0.567631 9.34998 0.459631 9.34969C0.361982 9.35053 0.267136 9.3839 0.188843 9.44498C0.137583 9.48065 0.0943473 9.52753 0.0620964 9.5824C0.0298455 9.63727 0.00936664 9.69882 0.00206473 9.76278C-0.0126205 9.9183 0.0513969 10.0867 0.182389 10.2361C1.44532 11.6739 4.54979 15.2 4.54979 15.2C4.66727 15.3346 4.84349 15.4962 5.00268 15.4999C5.16187 15.5036 5.35102 15.345 5.47849 15.2116C9.23086 11.2951 12.983 7.3783 16.735 3.46133L16.7538 3.44227C16.8067 3.38695 16.8566 3.33469 16.8942 3.28613C16.946 3.22125 16.9803 3.14314 16.9937 3.05979C17.0071 2.97645 16.999 2.89088 16.9704 2.81185C16.9438 2.73837 16.6146 2.50852 16.6146 2.50852Z" fill="#1A1818"/>
<path fill-rule="evenodd" clip-rule="evenodd" d="M16.2084 2.54142C16.3199 2.4934 16.4189 2.49308 16.5134 2.51064L16.5421 2.51596L16.5657 2.5324L16.5668 2.53318L16.5698 2.53523L16.5805 2.54282C16.5898 2.54935 16.6029 2.5587 16.6187 2.57012C16.6502 2.59291 16.6928 2.62425 16.7365 2.65812C16.7798 2.69167 16.826 2.72914 16.864 2.76397C16.8829 2.7813 16.9016 2.79964 16.9173 2.81774C16.9305 2.83291 16.9518 2.85902 16.9634 2.89097C16.9989 2.9884 17.0087 3.09354 16.9922 3.19586C16.9758 3.29788 16.9335 3.39439 16.8689 3.47536C16.8278 3.52802 16.7751 3.58298 16.7255 3.6346L16.7211 3.63927L16.7039 3.6566C16.7037 3.65681 16.7035 3.65702 16.7033 3.65723C13.0098 7.4972 9.31615 11.337 5.62231 15.1765C5.55602 15.2456 5.47084 15.3243 5.37829 15.3863C5.28935 15.4458 5.17481 15.5027 5.05389 15.4999C4.93388 15.4971 4.82388 15.4372 4.73894 15.3752C4.65096 15.3109 4.57166 15.2307 4.51045 15.1608C4.5104 15.1608 4.5105 15.1609 4.51045 15.1608L2.82714 13.2564C1.90768 12.216 0.832759 10.9993 0.211061 10.2945C0.0652386 10.1289 -0.0158642 9.9309 0.00259537 9.73621L0.00282307 9.73381C0.0119506 9.65418 0.0376133 9.57711 0.078449 9.50792C0.118681 9.43975 0.172885 9.38056 0.238001 9.3348C0.336984 9.25887 0.457842 9.21645 0.583462 9.21539L0.584982 9.21537C0.726135 9.21575 0.860709 9.26923 0.964329 9.36334L0.965455 9.36437C1.02991 9.4243 1.09101 9.48795 1.14845 9.555C1.74566 10.2301 2.75347 11.3711 3.6121 12.3434L5.08455 14.0111L5.5984 13.4783C5.97749 13.0852 6.49981 12.5435 7.07272 11.9491C8.21859 10.7601 9.56675 9.3604 10.3762 8.51679C12.2093 6.6108 14.0424 4.7043 15.8751 2.79751M5.08018 14.2027L4.97955 14.2853L3.41094 12.5087C2.55197 11.536 1.54377 10.3946 0.946739 9.71966L0.945355 9.7181C0.894203 9.65834 0.839892 9.6017 0.78267 9.54845C0.72627 9.49746 0.65605 9.47067 0.585047 9.47029C0.519856 9.471 0.455359 9.49322 0.400917 9.53551L0.39525 9.53991C0.360756 9.56382 0.330748 9.59564 0.308089 9.63404C0.285624 9.6721 0.271001 9.71527 0.265634 9.76063C0.255616 9.87065 0.300706 10.0025 0.412391 10.1294C1.034 10.8341 2.10879 12.0507 3.02823 13.0911L4.71117 14.9951L4.7121 14.9961C4.76653 15.0582 4.83174 15.1232 4.89851 15.172C4.96841 15.2231 5.0235 15.2442 5.06021 15.2451C5.096 15.2459 5.15293 15.2269 5.22765 15.1768C5.29869 15.1293 5.36932 15.0649 5.4285 15.0033C9.12254 11.1635 12.8165 7.3234 16.5102 3.48323L16.5114 3.48189L16.5285 3.46466C16.5288 3.46443 16.529 3.4642 16.5292 3.46397C16.5823 3.40859 16.6261 3.36277 16.658 3.3217L16.6592 3.32022C16.6961 3.27413 16.7213 3.21775 16.7311 3.15666C16.7405 3.09868 16.7356 3.0393 16.7172 2.98424C16.7165 2.9835 16.7158 2.98265 16.715 2.9817C16.708 2.97368 16.6971 2.9626 16.6819 2.94867C16.6517 2.92098 16.612 2.88861 16.571 2.85682C16.5304 2.82534 16.4903 2.79584 16.4603 2.77413C16.4512 2.76754 16.443 2.76169 16.4361 2.75675C16.394 2.7519 16.3582 2.75606 16.3162 2.77415C16.2591 2.7988 16.1817 2.85328 16.069 2.97066C14.2363 4.8775 12.4032 6.78402 10.5701 8.69005C9.76033 9.53391 8.41205 10.9338 7.26626 12.1226C6.69332 12.7171 6.17098 13.2588 5.79188 13.6519L5.17759 14.2888L5.17694 14.2895L5.08018 14.2027ZM5.08018 14.2027L5.17694 14.2895L5.0758 14.3943L4.97955 14.2853L5.08018 14.2027ZM16.8689 3.47536C16.8687 3.4756 16.8685 3.47585 16.8683 3.47609L16.7637 3.39816L16.8694 3.47462C16.8692 3.47486 16.869 3.47511 16.8689 3.47536ZM16.2084 2.54142C16.1035 2.58667 15.9972 2.67026 15.8751 2.79751L16.2084 2.54142Z" fill="#1A1818"/>
</svg>
