<svg width="19" height="18" viewBox="0 0 19 18" fill="none" xmlns="http://www.w3.org/2000/svg">
<path fill-rule="evenodd" clip-rule="evenodd" d="M13.5492 1.22704C11.884 0.368358 9.98681 0.0644972 8.1359 0.35987C6.28498 0.655245 4.57738 1.53438 3.26363 2.86867C1.94986 4.20299 1.09911 5.92229 0.836469 7.77451C0.573827 9.62674 0.913157 11.5141 1.80457 13.1597C2.69598 14.8053 4.09241 16.1224 5.7888 16.9182C7.48516 17.7139 9.39243 17.9466 11.2309 17.5822C13.0695 17.2178 14.7428 16.2754 16.0055 14.8929C17.2682 13.5103 18.0537 11.7604 18.2465 9.8996C18.2838 9.53991 18.0224 9.21811 17.6627 9.18084C17.303 9.14357 16.9812 9.40495 16.9439 9.76464C16.7801 11.3462 16.1124 12.834 15.0386 14.0098C13.9647 15.1856 12.5411 15.9875 10.9763 16.2977C9.4116 16.6078 7.78841 16.4098 6.34494 15.7326C4.90149 15.0555 3.71389 13.9351 2.95601 12.536C2.19816 11.1369 1.90979 9.53265 2.13302 7.95836C2.35625 6.38407 3.0794 4.92227 4.19676 3.78743C5.31414 2.65257 6.76697 1.90442 8.34227 1.65303C9.91758 1.40164 11.5321 1.6603 12.9491 2.39094C13.2705 2.55667 13.6654 2.43047 13.8311 2.10906C13.9968 1.78766 13.8706 1.39276 13.5492 1.22704Z" fill="#1A1818"/>
</svg>
