<svg width="17" height="19" viewBox="0 0 17 19" fill="none" xmlns="http://www.w3.org/2000/svg">
<path fill-rule="evenodd" clip-rule="evenodd" d="M6.01318 3.5C6.13979 2.41113 7.1653 1.5 8.5 1.5C9.8347 1.5 10.8602 2.41113 10.9868 3.5H6.01318ZM5 4.5V6C5 6.27614 5.22386 6.5 5.5 6.5C5.77614 6.5 6 6.27614 6 6V4.5H11V6C11 6.27614 11.2239 6.5 11.5 6.5C11.7761 6.5 12 6.27614 12 6V4.5H13.5C14.3284 4.5 15 5.17157 15 6V16C15 16.8284 14.3284 17.5 13.5 17.5H3.5C2.67157 17.5 2 16.8284 2 16V6C2 5.17157 2.67157 4.5 3.5 4.5H5ZM5.0084 3.5C5.13567 1.78615 6.692 0.5 8.5 0.5C10.308 0.5 11.8643 1.78615 11.9916 3.5H13.5C14.8807 3.5 16 4.61929 16 6V16C16 17.3807 14.8807 18.5 13.5 18.5H3.5C2.11929 18.5 1 17.3807 1 16V6C1 4.61929 2.11929 3.5 3.5 3.5H5.0084Z" fill="#1A1818"/>
<circle cx="12.7656" cy="4" r="4" fill="#D64308"/>
</svg>
