<?xml version="1.0" encoding="UTF-8"?>
<svg width="20px" height="20px" viewBox="0 0 20 20" version="1.1" xmlns="http://www.w3.org/2000/svg" xmlns:xlink="http://www.w3.org/1999/xlink">
    <title>Icon/ShoppingBag/Full</title>
    <g id="New_Icon_Set" stroke="none" stroke-width="1" fill="none" fill-rule="evenodd">
        <g id="HM07A" transform="translate(-345.000000, -15.000000)">
            <g id="Icon/ShoppingBag/Full" transform="translate(345.000000, 15.000000)">
                <rect id="Rectangle" fill-opacity="0" fill="#D8D8D8" x="0" y="0" width="20" height="19.5555556"></rect>
                <g id="noun_bag_3819962" transform="translate(0.454545, 6.378909)" fill="#000000" fill-rule="nonzero">
                    <path d="M18.6751376,0 L13.675731,0 L5.41519468,0 L0.41578808,0 C0.186154672,0 0,0.180103577 0,0.402272599 L0,13.2188184 C0,13.3255162 0.0437682348,13.4278519 0.121749842,13.5032987 C0.199731449,13.5787455 0.305505438,13.621091 0.41578808,13.621091 L18.675121,13.621091 C18.7854037,13.621091 18.8911776,13.5787455 18.9691592,13.5032987 C19.0471409,13.4278519 19.0909091,13.3255162 19.0909091,13.2188184 L19.0909091,0.402272599 C19.0909091,0.180109861 18.9047646,0 18.6751376,0 Z" id="Shape"></path>
                </g>
                <path d="M6.28539809,4.60113123 C6.56267688,2.05651176 7.80088029,0.784202027 10.0000083,0.784202027 C12.1991363,0.784202027 13.4311303,2.05651176 13.6959902,4.60113123" id="Path-2" stroke="#000000" stroke-width="1.5" stroke-linecap="round"></path>
            </g>
        </g>
    </g>
</svg>