<?xml version="1.0" encoding="UTF-8"?>
<svg width="20px" height="19px" viewBox="0 0 20 19" version="1.1" xmlns="http://www.w3.org/2000/svg" xmlns:xlink="http://www.w3.org/1999/xlink">
    <title>42D9994C-3779-44B8-BB7C-5CBA072DFDE9</title>
    <g id="Polarized_Selector_Sep16_2022" stroke="none" stroke-width="1" fill="none" fill-rule="evenodd">
        <g id="01-Cart" transform="translate(-113.000000, -216.000000)" fill="#000000" fill-rule="nonzero">
            <g id="Group" transform="translate(50.000000, 94.000000)">
                <g id="icons8-gift" transform="translate(63.000000, 122.000000)">
                    <path d="M12.434049,0 C11.7259706,0 11.0478128,0.311770748 10.5734067,0.855274286 C10.2034492,1.2791133 10.0136712,2.17905221 9.81759049,3.40732529 C9.56297938,2.60423623 9.32737145,2.01895926 9.01218918,1.74461938 C8.63133374,1.41321876 8.14761589,1.23069062 7.65018954,1.23069062 C6.51456195,1.23069062 5.61715697,2.17663349 5.72250344,3.33488505 C5.74846251,3.62018875 5.83393274,3.89294682 5.97074845,4.13953073 C5.3628328,3.92025446 4.795579,3.62092605 4.36154012,3.21245268 C4.19745922,3.05802195 3.93918445,3.06564237 3.78461371,3.22948816 C3.63000199,3.39329324 3.63759232,3.65127788 3.80167323,3.80566794 C4.2162024,4.19575961 4.7225283,4.49899138 5.26587282,4.73481526 L3.22458735,4.73481526 C2.34683616,4.73481526 1.63275771,5.44787071 1.63275771,6.32436442 L1.63275771,8.40300562 C1.63275771,8.62811024 1.81549159,8.81058233 2.04091916,8.81058233 L2.85724205,8.81058233 L2.85724205,17.5463365 C2.85724205,18.3479176 3.5102602,19 4.31299135,19 L15.6871435,19 C16.4898746,19 17.1428925,18.3479176 17.1428925,17.5463365 L17.1428925,8.81058233 L17.9592154,8.81058233 C18.1846022,8.81058233 18.3673769,8.62811024 18.3673769,8.40300562 L18.3673769,6.32436442 C18.3673769,5.44787071 17.6532984,4.73481526 16.7755472,4.73481526 L14.7411175,4.73481526 C15.281809,4.49939896 15.7856096,4.19715433 16.198302,3.80869298 C16.3623825,3.65430292 16.3699731,3.39631828 16.2153616,3.2325132 C16.06075,3.06866732 15.8025161,3.0610877 15.6384352,3.21547771 C15.1401108,3.68443547 14.465011,4.00939271 13.7541162,4.23457884 C13.903136,4.14177363 14.0248868,4.04415697 14.1165191,3.93916521 C14.5420274,3.45170347 14.7601048,2.8335287 14.7305947,2.1986057 C14.6716562,0.931408963 13.6502477,0 12.434049,0 Z M19.5917816,0.251471649 C19.4873282,0.251471649 19.3829332,0.291219956 19.3031988,0.370799308 L18.5889163,1.08405854 C18.4295292,1.24321725 18.4295292,1.50127762 18.5889163,1.66047708 L19.014536,2.08556683 L18.5889163,2.51065662 C18.4295292,2.66981532 18.4295292,2.92787569 18.5889163,3.08707516 L19.3031988,3.80033439 C19.4625859,3.9594931 19.7209757,3.9594931 19.8804444,3.80033439 C20.0398315,3.64117569 20.0398315,3.38311524 19.8804444,3.22391577 L19.4548243,2.79882607 L19.8804444,2.37373632 C20.0398315,2.21457761 20.0398723,1.95655609 19.8804444,1.79739738 L19.4547447,1.37230759 L19.8804444,0.947217845 C20.0398315,0.788059141 20.0398315,0.52999877 19.8804444,0.370799308 C19.8007305,0.291219956 19.696235,0.251471649 19.5917816,0.251471649 Z M4.08172626,0.659048356 C3.85630492,0.659048356 3.67356482,0.841526663 3.67356482,1.06662506 C3.67356482,1.29172346 3.85630492,1.47420177 4.08172626,1.47420177 C4.3071476,1.47420177 4.48988771,1.29172346 4.48988771,1.06662506 C4.48988771,0.841526663 4.3071476,0.659048356 4.08172626,0.659048356 Z M12.4354837,0.815310262 C12.7871752,0.815926383 13.1334802,0.934623724 13.4098896,1.17520607 C14.0436827,1.7269019 14.094349,2.72407206 13.5011679,3.40358415 C13.1526797,3.80276436 11.3055532,4.27985083 10.4668223,4.53556446 C10.6153931,3.63282281 10.8448818,1.78485804 11.1887578,1.39093515 C11.5221466,1.00900774 11.983309,0.814523585 12.4354837,0.815310262 Z M1.83683843,1.06662506 C1.27418788,1.06662506 0.816434818,1.52372234 0.816434818,2.08556683 C0.816434818,2.64741132 1.27418788,3.1045086 1.83683843,3.1045086 C2.39948899,3.1045086 2.85724205,2.64741132 2.85724205,2.08556683 C2.85724205,1.52372234 2.39948899,1.06662506 1.83683843,1.06662506 Z M1.83683843,1.88177848 C1.94936854,1.88177848 2.04091916,1.97319793 2.04091916,2.08556683 C2.04091916,2.19793573 1.94936854,2.28935518 1.83683843,2.28935518 C1.72430832,2.28935518 1.63275771,2.19793573 1.63275771,2.08556683 C1.63275771,1.97319793 1.72430832,1.88177848 1.83683843,1.88177848 Z M17.551054,1.88177848 C17.3256326,1.88177848 17.1428925,2.06425678 17.1428925,2.28935518 C17.1428925,2.51445358 17.3256326,2.69693189 17.551054,2.69693189 C17.7764753,2.69693189 17.9592154,2.51445358 17.9592154,2.28935518 C17.9592154,2.06425679 17.7764753,1.88177848 17.551054,1.88177848 L17.551054,1.88177848 Z M7.65026913,2.04584404 C7.95051269,2.04584404 8.2436771,2.15713286 8.47583933,2.35916863 C8.72196068,2.57343171 9.04108293,3.64357224 9.23173514,4.28297858 C9.26585744,4.39742612 9.29940015,4.50989365 9.33242041,4.61851284 C8.66115809,4.51474381 7.25193785,4.33941817 6.96516361,4.08977744 C6.71708309,3.87388405 6.56453724,3.57961041 6.53555777,3.26117073 C6.47478253,2.59307116 6.98092518,2.04584404 7.65026913,2.04584404 Z M3.22458735,5.54996867 L7.95926,5.54996867 L7.95926,7.99542892 L2.4490806,7.99542892 L2.4490806,6.32436442 C2.4490806,5.8973463 2.7969566,5.54996867 3.22458735,5.54996867 Z M8.77558289,5.54996867 C9.91990432,5.55070231 9.81198929,5.55086534 9.93023366,5.54996867 C10.10109,5.55571551 10.3255074,5.55400368 10.4978332,5.54996867 L11.2245516,5.54996867 L11.2245516,14.5166562 L10.2449641,13.7830182 C10.0997811,13.6743174 9.90031257,13.6743582 9.75517036,13.7830182 L8.77558289,14.5166562 L8.77558289,5.54996867 Z M12.0408745,5.54996867 L16.7755472,5.54996867 C17.203178,5.54996867 17.551054,5.8973463 17.551054,6.32436442 L17.551054,7.99542892 L12.0408745,7.99542892 L12.0408745,5.54996867 Z M3.67348523,8.81058233 L7.95918041,8.81058233 L7.95918041,15.3318096 C7.95918041,15.66696 8.34334196,15.8591324 8.61223872,15.657871 L9.99998764,14.6185504 L11.3877366,15.657871 C11.6563884,15.8590509 12.0407949,15.667123 12.0407949,15.3318096 L12.0407949,8.81058233 L16.3265696,8.81058233 L16.3265696,16.1469631 L13.877601,16.1469631 C13.6522142,16.1469631 13.4694395,16.3294759 13.4694395,16.5545398 C13.4694395,16.7796036 13.6522142,16.9621165 13.877601,16.9621165 L16.3265696,16.9621165 L16.3265696,17.5463365 C16.3265696,17.898442 16.0396742,18.1848466 15.6870635,18.1848466 L4.31299135,18.1848466 C3.96038068,18.1848466 3.67348523,17.898442 3.67348523,17.5463365 L3.67348523,16.9621165 L6.93877679,16.9621165 C7.16420436,16.9621165 7.34693824,16.7796036 7.34693824,16.5545398 C7.34693824,16.3294759 7.16420436,16.1469631 6.93877679,16.1469631 L3.67348523,16.1469631 L3.67348523,8.81058233 Z M1.63275771,10.0333124 C1.40733637,10.0333124 1.22459626,10.2157908 1.22459626,10.4408892 C1.22459626,10.6659876 1.40733637,10.8484659 1.63275771,10.8484659 C1.85817905,10.8484659 2.04091916,10.6659876 2.04091916,10.4408892 C2.04091916,10.2157908 1.85817905,10.0333124 1.63275771,10.0333124 Z M4.89804915,10.0333124 C4.67262159,10.0333124 4.48988771,10.2158253 4.48988771,10.4408892 C4.48988771,10.665953 4.67262159,10.8484659 4.89804915,10.8484659 L5.71437205,10.8484659 C5.93979961,10.8484659 6.12253349,10.665953 6.12253349,10.4408892 C6.12253349,10.2158253 5.93979961,10.0333124 5.71437205,10.0333124 L4.89804915,10.0333124 Z M6.93885638,10.0333124 C6.71343504,10.0333124 6.53069494,10.2157908 6.53069494,10.4408892 C6.53069494,10.6659876 6.71343504,10.8484659 6.93885638,10.8484659 C7.16427773,10.8484659 7.34701783,10.6659876 7.34701783,10.4408892 C7.34701783,10.2157908 7.16427773,10.0333124 6.93885638,10.0333124 Z M18.3673769,10.4408892 C18.1419555,10.4408892 17.9592154,10.6233675 17.9592154,10.8484659 C17.9592154,11.0735643 18.1419555,11.2560426 18.3673769,11.2560426 C18.5131989,11.2560426 18.647944,11.1783589 18.720855,11.0522542 C18.7937661,10.9261495 18.7937661,10.7707822 18.720855,10.6446775 C18.647944,10.5185728 18.5131989,10.4408892 18.3673769,10.4408892 L18.3673769,10.4408892 Z M13.0612781,12.071196 C12.8358913,12.071196 12.6531166,12.2537088 12.6531166,12.4787727 C12.6531166,12.7038365 12.8358913,12.8863494 13.0612781,12.8863494 L14.2857624,12.8863494 C14.5111492,12.8863494 14.6939239,12.7038365 14.6939239,12.4787727 C14.6939239,12.2537088 14.5111492,12.071196 14.2857624,12.071196 L13.0612781,12.071196 Z M15.5102467,12.071196 C15.2848254,12.071196 15.1020853,12.2536743 15.1020853,12.4787727 C15.1020853,12.7038711 15.2848254,12.8863494 15.5102467,12.8863494 C15.7356681,12.8863494 15.9184082,12.7038711 15.9184082,12.4787727 C15.9184082,12.2536743 15.7356681,12.071196 15.5102467,12.071196 L15.5102467,12.071196 Z M0.405961505,12.8861871 C0.216108024,12.8869575 0.046682494,13.0208526 0.00800409498,13.2140032 C-0.0361997896,13.434706 0.107136347,13.6494818 0.328155729,13.6936219 L0.940876222,13.8159748 L0.663772886,14.0926016 C0.439733068,14.3163612 0.54607888,14.6995436 0.853424449,14.7761681 L1.94182841,15.0478595 C2.15966418,15.1023933 2.3819878,14.9703633 2.43680388,14.7513316 C2.49149751,14.532952 2.35854337,14.3117193 2.13985047,14.2571448 L1.75082159,14.1599471 L2.05734129,13.8538668 C2.28729945,13.6241566 2.16830508,13.2298277 1.8487963,13.1660012 L0.488311301,12.8942303 C0.460678771,12.8886926 0.433083465,12.8860808 0.405961505,12.8861871 Z M14.2857624,13.7015028 C14.0603757,13.7015028 13.877601,13.8840157 13.877601,14.1090795 C13.877601,14.3341434 14.0603757,14.5166562 14.2857624,14.5166562 L15.1020853,14.5166562 C15.3274721,14.5166562 15.5102467,14.3341434 15.5102467,14.1090795 C15.5102467,13.8840157 15.3274721,13.7015028 15.1020853,13.7015028 L14.2857624,13.7015028 Z M12.6531166,16.1469631 C12.4276953,16.1469631 12.2449552,16.3294414 12.2449552,16.5545398 C12.2449552,16.7796382 12.4276953,16.9621165 12.6531166,16.9621165 C12.7989387,16.9621165 12.9336838,16.8844328 13.0065948,16.7583281 C13.0795058,16.6322234 13.0795058,16.4768561 13.0065948,16.3507514 C12.9336838,16.2246467 12.7989387,16.1469631 12.6531166,16.1469631 L12.6531166,16.1469631 Z" id="Shape"></path>
                </g>
            </g>
        </g>
    </g>
</svg>