<svg width="28" height="15" viewBox="0 0 28 15" fill="none" xmlns="http://www.w3.org/2000/svg">
    <path fill-rule="evenodd" clip-rule="evenodd"
        d="M7.22422 1.53125C6.76206 1.53125 6.38741 1.92932 6.38741 2.42036C6.38741 2.64472 6.21623 2.82661 6.00506 2.82661C5.79389 2.82661 5.62271 2.64472 5.62271 2.42036C5.62271 1.48059 6.33973 0.71875 7.22422 0.71875H17.8961C18.9519 0.71875 19.8078 1.62817 19.8078 2.75V2.76625H23.8984C24.5496 2.76625 25.1561 3.11847 25.5076 3.70089L27.3997 6.83526C27.5972 7.1625 27.7022 7.5431 27.7022 7.93187V10.4688C27.7022 11.5906 26.8463 12.5 25.7904 12.5H25.7325C25.5481 13.6563 24.5901 14.5312 23.4444 14.5312C22.2988 14.5312 21.3407 13.6563 21.1564 12.5H12.1685C11.9842 13.6563 11.0261 14.5312 9.88048 14.5312C8.73484 14.5312 7.77678 13.6563 7.59243 12.5H7.53447C6.47863 12.5 5.62271 11.5906 5.62271 10.4688V9.575C5.62271 9.35063 5.79389 9.16875 6.00506 9.16875C6.21623 9.16875 6.38741 9.35063 6.38741 9.575V10.4688C6.38741 11.1418 6.90097 11.6875 7.53447 11.6875H7.59243C7.77678 10.5312 8.73484 9.65625 9.88048 9.65625C11.0261 9.65625 11.9842 10.5312 12.1685 11.6875H19.0431V2.75C19.0431 2.0769 18.5296 1.53125 17.8961 1.53125H7.22422ZM19.8078 3.57875V11.6875H21.1564C21.3407 10.5312 22.2988 9.65625 23.4444 9.65625C24.5901 9.65625 25.5481 10.5312 25.7325 11.6875H25.7904C26.4239 11.6875 26.9375 11.1418 26.9375 10.4688V7.93187C26.9375 7.69861 26.8745 7.47025 26.756 7.2739L24.864 4.13953C24.653 3.79008 24.2892 3.57875 23.8984 3.57875H19.8078ZM4.65385 4.57812C4.65385 4.35376 4.82504 4.17188 5.0362 4.17188H8.91162C9.12279 4.17188 9.29397 4.35376 9.29397 4.57813C9.29397 4.80249 9.12279 4.98438 8.91162 4.98438L5.0362 4.98437C4.82504 4.98437 4.65385 4.80249 4.65385 4.57812ZM2.81158 6.12187C2.81158 5.89751 2.98277 5.71562 3.19394 5.71562L8.20016 5.71563C8.41133 5.71563 8.58252 5.89751 8.58252 6.12188C8.58252 6.34624 8.41133 6.52813 8.20016 6.52813L3.19394 6.52812C2.98277 6.52812 2.81158 6.34624 2.81158 6.12187ZM0.9375 7.69271C0.9375 7.46834 1.10869 7.28646 1.31985 7.28646L7.06935 7.28646C7.28052 7.28646 7.45171 7.46834 7.45171 7.69271C7.45171 7.91707 7.28052 8.09896 7.06935 8.09896L1.31985 8.09896C1.10869 8.09896 0.9375 7.91707 0.9375 7.69271ZM9.88048 10.4688C9.0166 10.4688 8.32512 11.2014 8.32512 12.0938C8.32512 12.9861 9.0166 13.7188 9.88048 13.7188C10.7444 13.7188 11.4358 12.9861 11.4358 12.0938C11.4358 11.2014 10.7444 10.4688 9.88048 10.4688ZM23.4444 10.4688C22.5806 10.4688 21.8891 11.2014 21.8891 12.0938C21.8891 12.9861 22.5806 13.7188 23.4444 13.7188C24.3083 13.7188 24.9998 12.9861 24.9998 12.0938C24.9998 11.2014 24.3083 10.4688 23.4444 10.4688Z"
        fill="#51C96D" />
</svg>