<?xml version="1.0" encoding="UTF-8"?>
<svg width="20px" height="20px" viewBox="0 0 20 20" version="1.1" xmlns="http://www.w3.org/2000/svg" xmlns:xlink="http://www.w3.org/1999/xlink">
    <title>8B6D4030-A0E3-45D5-ADA8-FB0FCED40FD1</title>
    <g id="Movado_Desktop_V01_Mod" stroke="none" stroke-width="1" fill="none" fill-rule="evenodd">
        <g id="04" transform="translate(-410.000000, -364.000000)">
            <g id="check_circle_outline_black_24dp" transform="translate(410.000000, 364.000000)">
                <polygon id="Path" points="0 0 20 0 20 20 0 20"></polygon>
                <path d="M10,1.66666667 C5.4,1.66666667 1.66666667,5.4 1.66666667,10 C1.66666667,14.6 5.4,18.3333333 10,18.3333333 C14.6,18.3333333 18.3333333,14.6 18.3333333,10 C18.3333333,5.4 14.6,1.66666667 10,1.66666667 Z M10,16.6666667 C6.325,16.6666667 3.33333333,13.675 3.33333333,10 C3.33333333,6.325 6.325,3.33333333 10,3.33333333 C13.675,3.33333333 16.6666667,6.325 16.6666667,10 C16.6666667,13.675 13.675,16.6666667 10,16.6666667 Z M13.2333333,6.90833333 L8.33333333,11.8083333 L6.76666667,10.2416667 C6.44166667,9.91666667 5.91666667,9.91666667 5.59166667,10.2416667 C5.26666667,10.5666667 5.26666667,11.0916667 5.59166667,11.4166667 L7.75,13.575 C8.075,13.9 8.6,13.9 8.925,13.575 L14.4166667,8.08333333 C14.7416667,7.75833333 14.7416667,7.23333333 14.4166667,6.90833333 C14.0916667,6.58333333 13.5583333,6.58333333 13.2333333,6.90833333 Z" id="Shape" fill="#3AAB4A" fill-rule="nonzero"></path>
            </g>
        </g>
    </g>
</svg>