<?xml version="1.0" encoding="UTF-8"?>
<svg width="14px" height="6px" viewBox="0 0 14 6" version="1.1" xmlns="http://www.w3.org/2000/svg" xmlns:xlink="http://www.w3.org/1999/xlink">
    <!-- Generator: sketchtool 63.1 (101010) - https://sketch.com -->
    <title>1415E964-AFCE-4809-B1C5-1BD239B22FB2</title>
    <desc>Created with sketchtool.</desc>
    <g id="BBT_Behzad_Approved" stroke="none" stroke-width="1" fill="none" fill-rule="evenodd">
        <g id="03" transform="translate(-233.000000, -267.000000)">
            <g id="Icon/ForwardLongArrow/Grey" transform="translate(230.000000, 260.000000)">
                <polygon id="Path" points="0 0 20 0 20 20 0 20"></polygon>
                <path d="M13.3416667,9.16666667 L4.16666667,9.16666667 C3.70833333,9.16666667 3.33333333,9.54166667 3.33333333,10 C3.33333333,10.4583333 3.70833333,10.8333333 4.16666667,10.8333333 L13.3416667,10.8333333 L13.3416667,12.325 C13.3416667,12.7 13.7916667,12.8833333 14.05,12.6166667 L16.3666667,10.2916667 C16.525,10.125 16.525,9.86666667 16.3666667,9.7 L14.05,7.375 C13.7916667,7.10833333 13.3416667,7.3 13.3416667,7.66666667 L13.3416667,9.16666667 L13.3416667,9.16666667 Z" id="Path" fill-opacity="0.15" fill="#000000" fill-rule="nonzero"></path>
            </g>
        </g>
    </g>
</svg>