<?xml version="1.0" encoding="UTF-8"?>
<svg width="22px" height="22px" viewBox="0 0 22 22" version="1.1" xmlns="http://www.w3.org/2000/svg" xmlns:xlink="http://www.w3.org/1999/xlink">
    <!-- Generator: sketchtool 63.1 (101010) - https://sketch.com -->
    <title>DF7BA236-3EE9-4203-892D-90FBBDDE24EC</title>
    <desc>Created with sketchtool.</desc>
    <g id="BBT_Behzad_Approved" stroke="none" stroke-width="1" fill="none" fill-rule="evenodd">
        <g id="02" transform="translate(-26.000000, -537.000000)" fill="#000000" fill-rule="nonzero">
            <g id="Stacked-Group-3" transform="translate(26.000000, 537.000000)">
                <g id="My-Account">
                    <g id="Icon/MyAccount">
                        <g id="Shape">
                            <path d="M10.9552591,0 C16.9764701,0 21.8268902,4.93404797 21.8268902,10.9552591 C21.8268902,16.8928422 16.8928422,21.8268902 10.9552591,21.8268902 C4.93404797,21.8268902 0,16.9764701 0,10.9552591 C0,4.93404797 4.93404797,0 10.9552591,0 Z M13.1295853,4.93404797 C13.7149808,5.51944349 13.9658646,6.35572281 13.9658646,7.1083742 L13.9658646,8.6973049 C13.9658646,9.53358422 13.7149808,10.2862356 13.1295853,10.7880032 C11.8751663,12.0424222 9.95172388,12.0424222 8.78093283,10.7880032 C8.27916524,10.2862356 7.86102558,9.53358422 7.86102558,8.6973049 L7.86102558,7.1083742 C7.86102558,6.35572281 8.27916524,5.51944349 8.78093283,4.93404797 C9.95172388,3.76325693 11.8751663,3.76325693 13.1295853,4.93404797 Z M8.27916524,11.038887 C8.61367697,10.7880032 8.9481887,11.4570266 8.53004904,11.7079104 C8.53004904,11.7079104 6.69023454,12.6278177 6.10483902,12.8787015 C5.43581556,13.1295853 5.18493177,13.7149808 5.10130384,14.3840043 C5.10130384,15.1366556 5.10130384,15.4711674 5.0176759,15.7220512 C6.94111833,17.4782377 14.8857718,17.4782377 16.8092143,15.7220512 C16.8092143,15.4711674 16.8092143,15.1366556 16.7255863,14.3840043 C16.7255863,13.7149808 16.4747026,13.1295853 15.8056791,12.8787015 C15.2202836,12.6278177 13.2968411,11.7079104 13.2968411,11.7079104 C12.9623294,11.4570266 13.2132132,10.7880032 13.7149808,11.038887 C13.7149808,11.038887 15.4711674,11.9587942 16.0565629,12.209678 C16.9764701,12.5441898 17.3946098,13.3804691 17.4782377,14.3840043 C17.5618657,15.3875394 17.5618657,15.8056791 17.5618657,15.8056791 C17.5618657,15.972935 17.4782377,16.0565629 17.3946098,16.1401908 C15.3875394,18.398145 6.43935074,18.398145 4.43228038,16.1401908 C4.34865245,16.0565629 4.34865245,15.972935 4.34865245,15.8056791 C4.34865245,15.8056791 4.34865245,15.3875394 4.43228038,14.3840043 C4.51590831,13.3804691 4.85042004,12.5441898 5.85395522,12.209678 C6.10483902,12.0424222 8.27916524,11.038887 8.27916524,11.038887 Z M9.28270042,5.51944349 C8.86456076,5.85395522 8.61367697,6.43935074 8.61367697,7.1083742 L8.61367697,8.6973049 C8.61367697,9.28270042 8.86456076,9.86809594 9.28270042,10.2862356 C10.2862356,11.2061429 11.7079104,11.2061429 12.5441898,10.2862356 C12.9623294,9.86809594 13.2132132,9.28270042 13.2132132,8.6973049 L13.2132132,7.1083742 C13.2132132,6.43935074 12.9623294,5.85395522 12.5441898,5.51944349 C11.7079104,4.59953625 10.2862356,4.59953625 9.28270042,5.51944349 Z M10.9552591,0.919907249 C5.35218763,0.919907249 0.919907249,5.35218763 0.919907249,10.9552591 C0.919907249,16.4747026 5.43581556,20.9906109 10.9552591,20.9906109 C16.4747026,20.9906109 20.9906109,16.4747026 20.9906109,10.9552591 C20.9906109,5.43581556 16.4747026,0.919907249 10.9552591,0.919907249 Z"></path>
                        </g>
                    </g>
                </g>
            </g>
        </g>
    </g>
</svg>