<svg width="13" height="13" viewBox="0 0 13 13" fill="none" xmlns="http://www.w3.org/2000/svg">
<path d="M5.85158 12.5878C5.85158 12.8098 6.04136 13 6.26277 13H6.76886C6.99027 13 7.18005 12.8098 7.18005 12.5878V7.16585H12.5888C12.8102 7.16585 13 6.97561 13 6.75366V6.27805C13 6.0561 12.8102 5.86585 12.5888 5.86585H7.18005V0.380488C7.18005 0.158536 6.99027 0 6.76886 0H6.26277C6.04136 0 5.85158 0.158536 5.85158 0.380488V5.86585H0.411192C0.189781 5.86585 0 6.0561 0 6.27805V6.75366C0 6.97561 0.189781 7.16585 0.411192 7.16585H5.85158V12.5878Z" fill="#1A1818"/>
</svg>
