<svg xmlns="http://www.w3.org/2000/svg" xmlns:xlink="http://www.w3.org/1999/xlink" width="18px" height="19px" viewBox="0 0 18 19" version="1.1">
    <!-- Generator: sketchtool 52.6 (67491) - http://www.bohemiancoding.com/sketch -->
    <title>A309AAE8-951C-4F5A-AEFB-09E8560D3EB6</title>
    <desc>Created with sketchtool.</desc>
    <g id="STORE-LOCATOR" stroke="none" stroke-width="1" fill="none" fill-rule="evenodd">
        <g id="STORES_1480px_Store-Locator" transform="translate(-391.000000, -337.000000)" fill="#222222">
            <g id="One-Time" transform="translate(391.000000, 321.000000)">
                <g id="Group-9">
                    <g id="Group-5" transform="translate(0.000000, 3.000000)">
                        <g id="Search-bar">
                            <g id="Group">
                                <path d="M17.7263218,30.2992922 L13.2890139,25.5979736 C14.4299237,24.2163507 15.0550349,22.4779864 15.0550349,20.6682737 C15.0550349,16.4400543 11.6781252,13 7.52751747,13 C3.37690979,13 0,16.4400543 0,20.6682737 C0,24.8964932 3.37690979,28.3365475 7.52751747,28.3365475 C9.08571359,28.3365475 10.5705982,27.8577805 11.8401304,26.9489234 L16.3111485,31.6859161 C16.4980273,31.8836242 16.7493809,31.9926471 17.0187352,31.9926471 C17.2736889,31.9926471 17.5155513,31.8936263 17.6991573,31.7135886 C18.0892791,31.3311751 18.1017158,30.6970422 17.7263218,30.2992922 Z M7.52751747,15.0004192 C10.5954718,15.0004192 13.0913347,17.5429521 13.0913347,20.6682737 C13.0913347,23.7935954 10.5954718,26.3361283 7.52751747,26.3361283 C4.45956318,26.3361283 1.96370021,23.7935954 1.96370021,20.6682737 C1.96370021,17.5429521 4.45956318,15.0004192 7.52751747,15.0004192 Z" id="icon-search"/>
                            </g>
                        </g>
                    </g>
                </g>
            </g>
        </g>
    </g>
</svg>