<?xml version="1.0" encoding="UTF-8"?>
<svg width="20px" height="22px" viewBox="0 0 20 22" version="1.1" xmlns="http://www.w3.org/2000/svg" xmlns:xlink="http://www.w3.org/1999/xlink">
    <!-- Generator: sketchtool 63.1 (101010) - https://sketch.com -->
    <title>2F7C2960-12F1-43DB-B7A5-ADEF44F0F1B7</title>
    <desc>Created with sketchtool.</desc>
    <g id="BBT_Behzad_Approved" stroke="none" stroke-width="1" fill="none" fill-rule="evenodd">
        <g id="02" transform="translate(-27.000000, -579.000000)">
            <g id="Stacked-Group-3" transform="translate(26.000000, 537.000000)">
                <g id="Store_Locator" transform="translate(0.000000, 42.000000)">
                    <g id="Icon/StoreLocator">
                        <g>
                            <rect id="Rectangle" fill-opacity="0" fill="#FFFFFF" x="0" y="0" width="22" height="22"></rect>
                            <g id="noun_Map_3052517" transform="translate(1.000000, 0.000000)" fill="#000000" fill-rule="nonzero">
                                <path d="M11.1456317,11.2513441 C11.816129,12.8222446 12.0075941,13.2340054 12.3786962,13.2340054 C12.7512769,13.2340054 12.9427419,12.8222446 13.6147177,11.2498656 C14.1225806,10.0596774 14.7553763,8.57896505 15.2846774,8.03340054 C16.4157258,6.86908602 16.8363575,5.95389785 16.8363575,4.65430108 C16.8363575,2.19704301 14.8374328,0.197379032 12.3794355,0.197379032 C9.92217742,0.197379032 7.92251344,2.19704301 7.92251344,4.65430108 C7.92251344,5.95389785 8.34388441,6.86908602 9.4749328,8.03340054 C10.0034946,8.57822581 10.6355511,10.0604167 11.1456317,11.2513441 Z M12.3786962,0.870094086 C14.4663306,0.870094086 16.1643817,2.56814516 16.1643817,4.65430108 C16.1643817,5.78313172 15.8206317,6.5172043 14.8019489,7.56545699 C14.1854167,8.19899194 13.5540995,9.67896505 12.9959677,10.9859543 C12.790457,11.4664651 12.5494624,12.0327285 12.3786962,12.3602151 C12.2094086,12.0327285 11.968414,11.4679435 11.7636425,10.9874328 C11.2047715,9.68044355 10.5734543,8.19973118 9.9561828,7.56545699 C8.93823925,6.5172043 8.59448925,5.78387097 8.59448925,4.65430108 C8.59448925,2.56814516 10.2925403,0.870094086 12.3786962,0.870094086 Z" id="Shape"></path>
                                <path d="M12.3786962,6.60739247 C13.5703629,6.60739247 14.5402554,5.63823925 14.5402554,4.44731183 C14.5402554,3.25564516 13.5703629,2.28575269 12.3786962,2.28575269 C11.1877688,2.28575269 10.2186156,3.25564516 10.2186156,4.44731183 C10.2186156,5.63897849 11.1870296,6.60739247 12.3786962,6.60739247 Z M12.3786962,2.95846774 C13.2,2.95846774 13.8675403,3.62674731 13.8675403,4.44805108 C13.8675403,5.26787634 13.2007392,5.93615591 12.3786962,5.93615591 C11.558871,5.93615591 10.8898522,5.26861559 10.8898522,4.44805108 C10.8898522,3.62674731 11.5581317,2.95846774 12.3786962,2.95846774 Z" id="Shape"></path>
                                <path d="M18.1692204,9.24133065 C18.1485215,9.07352151 18.0051075,8.94858871 17.8358199,8.94858871 L16.0601478,8.94858871 C15.944086,9.10013441 15.8051075,9.33965054 15.6594758,9.62130376 L17.5408602,9.62130376 L19.0363575,21.3080645 L0.716330645,21.3080645 L2.21182796,9.62130376 L9.09865591,9.62130376 C8.95302419,9.33965054 8.8140457,9.09939516 8.69724462,8.94858871 L1.91612903,8.94858871 C1.7468414,8.94858871 1.60416667,9.07426075 1.58346774,9.24133065 L0.00221774194,21.6008065 C-0.0110887097,21.6976478 0.0184811828,21.79375 0.0827956989,21.8661962 C0.146370968,21.9386425 0.238776882,21.9800403 0.334879032,21.9800403 L19.4170699,21.9800403 C19.5139113,21.9800403 19.6063172,21.9379032 19.6698925,21.8661962 C19.7334677,21.7930108 19.7637769,21.6969086 19.7504704,21.6008065 L18.1692204,9.24133065 Z" id="Path"></path>
                                <path d="M14.0834005,16.993078 C14.359879,17.253293 14.6090054,17.534207 14.8241263,17.8328629 L15.3689516,17.4395833 C15.1294355,17.1076613 14.8514785,16.7920027 14.5424731,16.5022177 L14.0834005,16.993078 Z" id="Path"></path>
                                <path d="M15.9950941,18.5255376 L15.3807796,18.7990591 C15.534543,19.1435484 15.6483871,19.4983871 15.7200941,19.856922 L16.3795027,19.7238575 C16.2981855,19.3180108 16.1688172,18.915121 15.9950941,18.5255376 Z" id="Path"></path>
                                <path d="M8.83991935,14.7465054 L9.04173387,14.105578 C8.66471774,13.9872984 8.30396505,13.8512769 7.96686828,13.7026882 L7.69556452,14.3184812 C8.05409946,14.4766801 8.43998656,14.6208333 8.83991935,14.7465054 Z" id="Path"></path>
                                <path d="M6.60443548,13.7507392 L6.95557796,13.1778226 C6.62365591,12.9752688 6.31612903,12.7520161 6.04260753,12.5139785 L5.60201613,13.0225806 C5.90436828,13.2842742 6.2422043,13.5289651 6.60443548,13.7507392 Z" id="Path"></path>
                                <path d="M12.2020161,15.7533602 C12.5546371,15.9152554 12.8895161,16.0985887 13.1955645,16.2989247 L13.5644489,15.7363575 C13.2295699,15.5175403 12.865121,15.3172043 12.4821909,15.1412634 L12.2020161,15.7533602 Z" id="Path"></path>
                                <path d="M4.4266129,10.8772849 L4.10356183,10.9711694 C4.10947581,10.991129 4.25362903,11.4768145 4.74005376,12.1125672 L5.27452957,11.7037634 C4.87016129,11.1759409 4.74892473,10.7863575 4.74818548,10.781922 L4.4266129,10.8772849 Z" id="Path"></path>
                                <path d="M10.1587366,14.4005376 L10.0168011,15.0584677 L10.115121,15.0791667 C10.4662634,15.1538306 10.8092742,15.2432796 11.1360215,15.3445565 L11.3363575,14.7028898 C10.9896505,14.5949597 10.6259409,14.4995968 10.2548387,14.4212366 L10.1587366,14.4005376 Z" id="Path"></path>
                            </g>
                        </g>
                    </g>
                </g>
            </g>
        </g>
    </g>
</svg>