<?xml version="1.0" encoding="UTF-8"?>
<svg width="50px" height="50px" viewBox="0 0 50 50" version="1.1" xmlns="http://www.w3.org/2000/svg" xmlns:xlink="http://www.w3.org/1999/xlink">
    <title>210AE046-48EB-493D-B70F-055CAD0F168B</title>
    <g id="Polarized_Selector_Sep16_2022" stroke="none" stroke-width="1" fill="none" fill-rule="evenodd">
        <g id="06-Cart" transform="translate(-163.000000, -680.000000)">
            <g id="highlight_off_black_24dp" transform="translate(163.000000, 680.000000)">
                <polygon id="Path" points="0 0 50 0 50 50 0 50"></polygon>
                <path d="M28.9375,18.125 L25,22.0625 L21.0625,18.125 C20.25,17.3125 18.9375,17.3125 18.125,18.125 C17.3125,18.9375 17.3125,20.25 18.125,21.0625 L22.0625,25 L18.125,28.9375 C17.3125,29.75 17.3125,31.0625 18.125,31.875 C18.9375,32.6875 20.25,32.6875 21.0625,31.875 L25,27.9375 L28.9375,31.875 C29.75,32.6875 31.0625,32.6875 31.875,31.875 C32.6875,31.0625 32.6875,29.75 31.875,28.9375 L27.9375,25 L31.875,21.0625 C32.6875,20.25 32.6875,18.9375 31.875,18.125 C31.0625,17.3333333 29.7291667,17.3333333 28.9375,18.125 Z M25,4.16666667 C13.4791667,4.16666667 4.16666667,13.4791667 4.16666667,25 C4.16666667,36.5208333 13.4791667,45.8333333 25,45.8333333 C36.5208333,45.8333333 45.8333333,36.5208333 45.8333333,25 C45.8333333,13.4791667 36.5208333,4.16666667 25,4.16666667 Z M25,41.6666667 C15.8125,41.6666667 8.33333333,34.1875 8.33333333,25 C8.33333333,15.8125 15.8125,8.33333333 25,8.33333333 C34.1875,8.33333333 41.6666667,15.8125 41.6666667,25 C41.6666667,34.1875 34.1875,41.6666667 25,41.6666667 Z" id="Shape" fill="#000000" fill-rule="nonzero"></path>
            </g>
        </g>
    </g>
</svg>