<?xml version="1.0" encoding="UTF-8"?>
<svg width="14px" height="14px" viewBox="0 0 14 14" version="1.1" xmlns="http://www.w3.org/2000/svg" xmlns:xlink="http://www.w3.org/1999/xlink">
    <!-- Generator: sketchtool 63.1 (101010) - https://sketch.com -->
    <title>4D23838D-6A88-4447-B698-EF624956BC57</title>
    <desc>Created with sketchtool.</desc>
    <g id="BBT_Behzad_Approved" stroke="none" stroke-width="1" fill="none" fill-rule="evenodd">
        <g id="02" transform="translate(-279.000000, -18.000000)">
            <g id="Icon/Close" transform="translate(275.000000, 14.000000)">
                <g id="Path">
                    <polygon points="0 0 22 0 22 22 0 22"></polygon>
                    <path d="M16.775,5.23416667 C16.4175,4.87666667 15.84,4.87666667 15.4825,5.23416667 L11,9.7075 L6.5175,5.225 C6.16,4.8675 5.5825,4.8675 5.225,5.225 C4.8675,5.5825 4.8675,6.16 5.225,6.5175 L9.7075,11 L5.225,15.4825 C4.8675,15.84 4.8675,16.4175 5.225,16.775 C5.5825,17.1325 6.16,17.1325 6.5175,16.775 L11,12.2925 L15.4825,16.775 C15.84,17.1325 16.4175,17.1325 16.775,16.775 C17.1325,16.4175 17.1325,15.84 16.775,15.4825 L12.2925,11 L16.775,6.5175 C17.1233333,6.16916667 17.1233333,5.5825 16.775,5.23416667 Z" fill="#FFFFFF" fill-rule="nonzero"></path>
                </g>
            </g>
        </g>
    </g>
</svg>