<?xml version="1.0" encoding="UTF-8"?>
<svg width="15px" height="15px" viewBox="0 0 15 15" version="1.1" xmlns="http://www.w3.org/2000/svg" xmlns:xlink="http://www.w3.org/1999/xlink">
    <title>90D8B052-90FF-4067-900C-0E1A826D7EB8</title>
    <g id="Movado_Desktop_V01_Mod" stroke="none" stroke-width="1" fill="none" fill-rule="evenodd">
        <g id="01" transform="translate(-410.000000, -251.000000)" fill="#000000" fill-rule="nonzero">
            <g id="Movado/Component/Desktop/DefaultTextInfo" transform="translate(100.000000, 236.000000)">
                <g id="noun_Info_2510064" transform="translate(310.000000, 15.000000)">
                    <path d="M7.810405,3.31305 C7.94035578,2.83679733 8.37078928,2.50477926 8.86443,2.50002 C9.34835833,2.502675 9.66108167,2.87097167 9.56289667,3.32265167 C9.43294572,3.79890493 9.00251134,4.13092315 8.50887,4.13568167 C8.02494333,4.13302667 7.71220833,3.76473 7.810405,3.31305 Z M9.46439667,10.69655 C8.598765,11.1949117 7.83395333,11.27674 8.01937833,10.4237633 L8.99383333,5.94112167 C9.188475,5.045715 8.13804,4.81919333 7.1965,5.29751667 C6.52054171,5.65508856 5.91970882,6.13939891 5.426775,6.72403 C5.39968666,6.75613767 5.39941635,6.80301737 5.42613261,6.83543529 C5.45284888,6.86785321 5.49891661,6.87654477 5.53560833,6.85609 C6.40124,6.35773667 7.16605167,6.27591 6.98062667,7.12888667 L6.006175,11.6115317 C5.81153333,12.5069383 6.86196833,12.73346 7.80350833,12.2551367 C8.47946447,11.8975615 9.08029677,11.4132516 9.57323333,10.8286233 C9.600329,10.7965152 9.60060286,10.7496292 9.5738841,10.7172068 C9.54716534,10.6847844 9.50109111,10.6760931 9.46439667,10.6965533 L9.46439667,10.69655 Z M15,7.5 C15,11.6421356 11.6421356,15 7.5,15 C3.35786438,15 0,11.6421356 0,7.5 C0,3.35786438 3.35786438,0 7.5,0 C9.48912367,0 11.396778,0.790176303 12.8033009,2.19669914 C14.2098237,3.60322198 15,5.51087633 15,7.5 Z M14.1666667,7.5 C14.1666667,3.81810167 11.1818983,0.833333333 7.5,0.833333333 C3.81810167,0.833333333 0.833333333,3.81810167 0.833333333,7.5 C0.833333333,11.1818983 3.81810167,14.1666667 7.5,14.1666667 C11.1801728,14.1625041 14.1625041,11.1801728 14.1666667,7.5 L14.1666667,7.5 Z" id="Shape"></path>
                </g>
            </g>
        </g>
    </g>
</svg>