<?xml version="1.0" encoding="UTF-8"?>
<svg width="20px" height="20px" viewBox="0 0 20 20" version="1.1" xmlns="http://www.w3.org/2000/svg" xmlns:xlink="http://www.w3.org/1999/xlink">
    <title>1F1ED8EC-B907-45A5-9251-62D08A186E9A</title>
    <g id="MCS_Updated_User_Journey_May2021" stroke="none" stroke-width="1" fill="none" fill-rule="evenodd">
        <g id="03/Desktop/PDP_03F" transform="translate(-805.000000, -409.000000)">
            <g id="PDP_Overlay" transform="translate(410.000000, 164.000000)">
                <g id="Search" transform="translate(50.000000, 230.000000)">
                    <g id="Input/Desktop/Dropdown" transform="translate(240.000000, 0.000000)">
                        <g id="expand_more_black_24dp" transform="translate(105.000000, 15.000000)">
                            <polygon id="Path" opacity="0.87" points="20 20 0 20 0 0 20 0"></polygon>
                            <path d="M13.2333333,7.74166667 L10,10.975 L6.76666667,7.74166667 C6.44166667,7.41666667 5.91666667,7.41666667 5.59166667,7.74166667 C5.26666667,8.06666667 5.26666667,8.59166667 5.59166667,8.91666667 L9.41666667,12.7416667 C9.74166667,13.0666667 10.2666667,13.0666667 10.5916667,12.7416667 L14.4166667,8.91666667 C14.7416667,8.59166667 14.7416667,8.06666667 14.4166667,7.74166667 C14.0916667,7.425 13.5583333,7.41666667 13.2333333,7.74166667 L13.2333333,7.74166667 Z" id="Path" fill="#000000" fill-rule="nonzero"></path>
                        </g>
                    </g>
                </g>
            </g>
        </g>
    </g>
</svg>