<?xml version="1.0" encoding="UTF-8"?>
<svg width="30px" height="30px" viewBox="0 0 30 30" version="1.1" xmlns="http://www.w3.org/2000/svg" xmlns:xlink="http://www.w3.org/1999/xlink">
    <title>5A248352-8EDE-4000-8883-19FE08ED65A5</title>
    <defs>
        <rect id="path-1" x="0" y="0" width="30" height="30"></rect>
    </defs>
    <g id="Updtaes_May19_2022" stroke="none" stroke-width="1" fill="none" fill-rule="evenodd">
        <g id="B002_Offer1" transform="translate(-849.000000, -563.000000)">
            <g id="Stacked-Group-5" transform="translate(848.000000, 203.000000)">
                <g id="Stacked-Group" transform="translate(0.000000, 357.000000)">
                    <g id="Location/Store/Stock-Right" transform="translate(1.000000, 0.000000)">
                        <g id="map-pin" transform="translate(0.000000, 3.000000)">
                            <mask id="mask-2" fill="white">
                                <use xlink:href="#path-1"></use>
                            </mask>
                            <g id="map-pin-(Background/Mask)"></g>
                            <path d="M8.21177444,5.24800682 C6.41142526,7.06087164 5.4,9.51964577 5.4,12.0834243 C5.4,15.82694 7.81888475,19.4594485 10.4711432,22.2785185 C11.7727341,23.6619697 13.0784014,24.7945418 14.0600121,25.5816303 C14.4253372,25.8745592 14.7444271,26.1185587 15,26.3087335 C15.2555706,26.1185587 15.5746628,25.8745592 15.9399879,25.5816303 C16.9215992,24.7945418 18.2272659,23.6619697 19.5288563,22.2785185 C22.181115,19.4594485 24.6,15.82694 24.6,12.0834243 C24.6,9.51964577 23.5885735,7.06087222 21.7882244,5.24800682 C19.9878754,3.43514156 17.5460781,2.41668485 15,2.41668485 C12.4539219,2.41668485 10.0121232,3.43514156 8.21177444,5.24800682 Z M14.3337101,28.7968419 L14.3302803,28.7945326 L14.3222832,28.7891257 L14.2947819,28.7703975 C14.2714165,28.7544165 14.2380913,28.7314706 14.1954689,28.7017465 C14.1102356,28.6423052 13.9877563,28.5557003 13.8333492,28.4434069 C13.5246546,28.2189124 13.0876328,27.8912281 12.5649879,27.4721544 C11.5215986,26.6355327 10.1272659,25.4269414 8.72885685,23.9405793 C5.98111525,21.0200228 3,16.7983055 3,12.0834243 C3,8.87870085 4.26428189,5.80523442 6.51471834,3.53915274 C8.76515493,1.27307121 11.8174021,0 15,0 C18.1825974,0 21.2348442,1.27307121 23.4852814,3.53915274 C25.7357162,5.80523413 27,8.87870085 27,12.0834243 C27,16.7983055 24.018885,21.0200228 21.2711437,23.9405793 C19.8727341,25.4269414 18.4784008,26.6355327 17.4350121,27.4721544 C16.9123672,27.8912281 16.4753448,28.2189124 16.1666508,28.4434069 C16.0122437,28.5557003 15.8897644,28.6423052 15.8045311,28.7017465 C15.7619087,28.7314706 15.7285835,28.7544165 15.7052181,28.7703975 L15.6777168,28.7891257 L15.6697197,28.7945326 L15.667186,28.7962381 C15.6668404,28.7964686 15.6656399,28.7972775 15,27.7918758 C14.3343601,28.7972775 14.3340557,28.7970724 14.3337101,28.7968419 Z M15.6656399,28.7972775 C15.2625607,29.0678644 14.7367893,29.0674288 14.3337101,28.7968419 L15,27.7918758 L15.6656399,28.7972775 Z" id="Vector-(Stroke)" fill="#000000" mask="url(#mask-2)"></path>
                            <path d="M12.5,12 C12.5,13.3807118 13.6192881,14.5 15,14.5 C16.3807118,14.5 17.5,13.3807118 17.5,12 C17.5,10.6192881 16.3807118,9.5 15,9.5 C13.6192881,9.5 12.5,10.6192881 12.5,12 Z M15,7 C17.7614236,7 20,9.23857611 20,12 C20,14.7614236 17.7614236,17 15,17 C12.2385761,17 10,14.7614236 10,12 C10,9.23857611 12.2385761,7 15,7 Z" id="Vector-(Stroke)" fill="#000000" mask="url(#mask-2)"></path>
                        </g>
                    </g>
                </g>
            </g>
        </g>
    </g>
</svg>