<svg width="15" height="15" viewBox="0 0 15 15" fill="none" xmlns="http://www.w3.org/2000/svg">
<g clip-path="url(#clip0_1_21)">
<mask id="mask0_1_21" style="mask-type:alpha" maskUnits="userSpaceOnUse" x="0" y="0" width="15" height="15">
<path d="M15 0H0V15H15V0Z" fill="white"/>
</mask>
<g mask="url(#mask0_1_21)">
<path fill-rule="evenodd" clip-rule="evenodd" d="M4.10589 2.624C3.20571 3.53044 2.7 4.75982 2.7 6.04171C2.7 7.91347 3.90944 9.72972 5.23557 11.1393C5.88637 11.831 6.5392 12.3973 7.03001 12.7908C7.21267 12.9373 7.37221 13.0593 7.5 13.1544C7.62779 13.0593 7.78733 12.9373 7.96999 12.7908C8.4608 12.3973 9.11363 11.831 9.76443 11.1393C11.0906 9.72972 12.3 7.91347 12.3 6.04171C12.3 4.75982 11.7943 3.53044 10.8941 2.624C9.99394 1.71757 8.77304 1.20834 7.5 1.20834C6.22696 1.20834 5.00606 1.71757 4.10589 2.624ZM7.16685 14.3984L7.16514 14.3973L7.16114 14.3946L7.14739 14.3852C7.13571 14.3772 7.11905 14.3657 7.09773 14.3509C7.05512 14.3212 6.99388 14.2779 6.91667 14.2217C6.76233 14.1095 6.54382 13.9456 6.28249 13.7361C5.7608 13.3178 5.06363 12.7135 4.36443 11.9703C2.99056 10.51 1.5 8.39915 1.5 6.04171C1.5 4.43935 2.13214 2.90262 3.25736 1.76958C4.38258 0.636536 5.9087 0 7.5 0C9.0913 0 10.6174 0.636536 11.7426 1.76958C12.8679 2.90262 13.5 4.43935 13.5 6.04171C13.5 8.39915 12.0094 10.51 10.6356 11.9703C9.93637 12.7135 9.2392 13.3178 8.71751 13.7361C8.45618 13.9456 8.23767 14.1095 8.08333 14.2217C8.00612 14.2779 7.94488 14.3212 7.90227 14.3509C7.88095 14.3657 7.86429 14.3772 7.85261 14.3852L7.83886 14.3946L7.83486 14.3973L7.83359 14.3981C7.83342 14.3982 7.83282 14.3986 7.5 13.8959C7.16718 14.3986 7.16703 14.3985 7.16685 14.3984ZM7.83282 14.3986C7.63128 14.5339 7.36839 14.5337 7.16685 14.3984L7.5 13.8959L7.83282 14.3986Z" fill="black"/>
<path fill-rule="evenodd" clip-rule="evenodd" d="M6.25 6C6.25 6.69036 6.80964 7.25 7.5 7.25C8.19036 7.25 8.75 6.69036 8.75 6C8.75 5.30964 8.19036 4.75 7.5 4.75C6.80964 4.75 6.25 5.30964 6.25 6ZM7.5 3.5C8.88071 3.5 10 4.61929 10 6C10 7.38071 8.88071 8.5 7.5 8.5C6.11929 8.5 5 7.38071 5 6C5 4.61929 6.11929 3.5 7.5 3.5Z" fill="black"/>
</g>
</g>
<defs>
<clipPath id="clip0_1_21">
<rect width="15" height="15" fill="white"/>
</clipPath>
</defs>
</svg>
