<svg width="15" height="15" viewBox="0 0 15 15" fill="none" xmlns="http://www.w3.org/2000/svg">
<g clip-path="url(#clip0_1_2)">
<path d="M7.5 1.25C4.05 1.25 1.25 4.05 1.25 7.5C1.25 10.95 4.05 13.75 7.5 13.75C10.95 13.75 13.75 10.95 13.75 7.5C13.75 4.05 10.95 1.25 7.5 1.25ZM2.5 7.5C2.5 4.7375 4.7375 2.5 7.5 2.5C8.65625 2.5 9.71875 2.89375 10.5625 3.55625L3.55625 10.5625C2.89375 9.71875 2.5 8.65625 2.5 7.5ZM7.5 12.5C6.34375 12.5 5.28125 12.1062 4.4375 11.4437L11.4437 4.4375C12.1062 5.28125 12.5 6.34375 12.5 7.5C12.5 10.2625 10.2625 12.5 7.5 12.5Z" fill="#AF2828"/>
</g>
<defs>
<clipPath id="clip0_1_2">
<rect width="15" height="15" fill="white"/>
</clipPath>
</defs>
</svg>
