<?xml version="1.0" encoding="UTF-8"?><svg version="1.1" width="20px" height="20px" viewBox="0 0 20.0 20.0" xmlns="http://www.w3.org/2000/svg" xmlns:xlink="http://www.w3.org/1999/xlink"><defs><clipPath id="i0"><path d="M1440,0 L1440,1124 L0,1124 L0,0 L1440,0 Z"></path></clipPath><clipPath id="i1"><path d="M8.33333333,0 C12.9333333,0 16.6666667,3.73333333 16.6666667,8.33333333 C16.6666667,12.9333333 12.9333333,16.6666667 8.33333333,16.6666667 C3.73333333,16.6666667 0,12.9333333 0,8.33333333 C0,3.73333333 3.73333333,0 8.33333333,0 Z M13.5916667,4.25 L4.25,13.5916667 C5.375,14.475 6.79166667,15 8.33333333,15 C12.0166667,15 15,12.0166667 15,8.33333333 C15,6.79166667 14.475,5.375 13.5916667,4.25 Z M8.33333333,1.66666667 C4.65,1.66666667 1.66666667,4.65 1.66666667,8.33333333 C1.66666667,9.875 2.19166667,11.2916667 3.075,12.4166667 L12.4166667,3.075 C11.2916667,2.19166667 9.875,1.66666667 8.33333333,1.66666667 Z"></path></clipPath></defs><g transform="translate(-1015.0 -508.0)"><g clip-path="url(#i0)"><g transform="translate(755.0 508.0)"><g transform="translate(260.0 0.0)"><g transform="translate(1.6666666666666679 1.6666666666666679)"><g clip-path="url(#i1)"><polygon points="0,0 16.6666667,0 16.6666667,16.6666667 0,16.6666667 0,0" stroke="none" fill="#AE2727"></polygon></g></g></g></g></g></g></svg>