<?xml version="1.0" encoding="UTF-8"?>
<svg width="20px" height="17px" viewBox="0 0 20 17" version="1.1" xmlns="http://www.w3.org/2000/svg" xmlns:xlink="http://www.w3.org/1999/xlink">
    <title>18EE8452-1E08-4DCD-9BA8-91618C2CF95C</title>
    <g id="MCS_Updated_User_Journey_May2021" stroke="none" stroke-width="1" fill="none" fill-rule="evenodd">
        <g id="04/Desktop/Cart_00F" transform="translate(-187.000000, -458.000000)" fill="#AF2828" fill-rule="nonzero">
            <g id="Error_Messaging" transform="translate(167.000000, 431.000000)">
                <g id="Stacked-Group-3" transform="translate(20.000000, 15.000000)">
                    <g id="warning_black_24dp" transform="translate(0.000000, 12.000000)">
                        <path d="M2.09977259,17 L17.9002274,17 C19.5159446,17 20.5231449,15.3307364 19.7152863,14.0013229 L11.8150589,0.997060121 C11.0072003,-0.332353374 8.99279969,-0.332353374 8.18494111,0.997060121 L0.284713706,14.0013229 C-0.523144874,15.3307364 0.484055433,17 2.09977259,17 Z M10,10.0030869 C9.42295816,10.0030869 8.95083301,9.55328532 8.95083301,9.00352786 L8.95083301,7.00440982 C8.95083301,6.45465236 9.42295816,6.0048508 10,6.0048508 C10.5770418,6.0048508 11.049167,6.45465236 11.049167,7.00440982 L11.049167,9.00352786 C11.049167,9.55328532 10.5770418,10.0030869 10,10.0030869 Z M11.049167,14.0013229 L8.95083301,14.0013229 L8.95083301,12.0022049 L11.049167,12.0022049 L11.049167,14.0013229 Z" id="Shape"></path>
                    </g>
                </g>
            </g>
        </g>
    </g>
</svg>